<?xml version="1.0" encoding="UTF-8" standalone="no"?>
<!-- Created with Inkscape (http://www.inkscape.org/) -->

<svg
   xmlns:dc="http://purl.org/dc/elements/1.1/"
   xmlns:cc="http://creativecommons.org/ns#"
   xmlns:rdf="http://www.w3.org/1999/02/22-rdf-syntax-ns#"
   xmlns:svg="http://www.w3.org/2000/svg"
   xmlns="http://www.w3.org/2000/svg"
   xmlns:sodipodi="http://sodipodi.sourceforge.net/DTD/sodipodi-0.dtd"
   xmlns:inkscape="http://www.inkscape.org/namespaces/inkscape"
   width="26.524179mm"
   height="28.905691mm"
   viewBox="0 0 93.983311 102.42174"
   id="svg2"
   version="1.1"
   inkscape:version="0.91 r13725">
  <defs
     id="defs4" />
  <sodipodi:namedview
     id="base"
     pagecolor="#ffffff"
     bordercolor="#666666"
     borderopacity="1.0"
     inkscape:pageopacity="0.0"
     inkscape:pageshadow="2"
     inkscape:zoom="2.8"
     inkscape:cx="94.149495"
     inkscape:cy="95.828026"
     inkscape:document-units="px"
     inkscape:current-layer="layer1"
     showgrid="false"
     fit-margin-top="0"
     fit-margin-left="0"
     fit-margin-right="0"
     fit-margin-bottom="0"
     inkscape:window-width="1920"
     inkscape:window-height="1031"
     inkscape:window-x="127"
     inkscape:window-y="0"
     inkscape:window-maximized="0" />
  <metadata
     id="metadata7">
    <rdf:RDF>
      <cc:Work
         rdf:about="">
        <dc:format>image/svg+xml</dc:format>
        <dc:type
           rdf:resource="http://purl.org/dc/dcmitype/StillImage" />
        <dc:title></dc:title>
      </cc:Work>
    </rdf:RDF>
  </metadata>
  <g
     inkscape:label="Layer 1"
     inkscape:groupmode="layer"
     id="layer1"
     transform="translate(-460.09187,-943.62563)">
    <g
       id="g4248"
       transform="translate(-93.571429,-1.4285714)">
      <path
         style="fill:#c6ec25"
         d="m 595.76514,1047.1991 c -2.83594,-0.3201 -8.32031,-1.8309 -12.1875,-3.3572 -6.78711,-2.6787 -7.2496,-3.0666 -13.31975,-11.172 -8.22942,-10.9886 -10.50209,-15.2756 -13.83044,-26.0883 l -2.76415,-8.97972 1.4219,-8.14626 c 1.1919,-6.82849 1.94324,-8.75532 4.64467,-11.91134 1.77253,-2.07079 3.22277,-4.34685 3.22277,-5.05791 0,-0.71105 0.35199,-1.07528 0.7822,-0.8094 0.43021,0.26588 2.61956,-1.38871 4.86522,-3.67687 3.21143,-3.2722 5.59607,-4.64899 11.17093,-6.44961 3.89834,-1.25912 9.45612,-2.55592 12.35061,-2.88178 l 5.26271,-0.59246 2.55451,-6.51103 c 1.40498,-3.58106 2.87372,-6.51102 3.26387,-6.51102 0.39014,0 1.46667,0.83683 2.39228,1.85962 1.62106,1.79126 1.61302,2.02786 -0.2188,6.43571 l -1.90174,4.57609 7.16098,0.50497 c 9.10625,0.64213 16.57675,3.46381 22.97977,8.67967 6.34764,5.17076 9.13537,9.96928 11.87003,20.43197 l 2.16138,8.26927 -1.69715,9.0108 c -1.4821,7.869 -2.46302,10.3254 -7.74173,19.3869 -7.01708,12.0456 -9.4619,14.9038 -15.29511,17.881 -8.42586,4.3005 -18.13022,6.1267 -27.14746,5.1089 z"
         id="path4294"
         inkscape:connector-curvature="0" />
      <path
         style="fill:#b9ea21"
         d="m 595.76514,1047.1991 c -2.83594,-0.3201 -8.32031,-1.8309 -12.1875,-3.3572 -6.78711,-2.6787 -7.2496,-3.0666 -13.31975,-11.172 -8.22942,-10.9886 -10.50209,-15.2756 -13.83044,-26.0883 l -2.76415,-8.97972 1.4219,-8.14626 c 1.1919,-6.82849 1.94324,-8.75532 4.64467,-11.91134 1.77253,-2.07079 3.22277,-4.34685 3.22277,-5.05791 0,-0.71105 0.36055,-1.06999 0.80123,-0.79764 0.44067,0.27235 1.77983,-0.5465 2.97591,-1.81967 1.54643,-1.64609 3.16889,-2.31486 5.61598,-2.31486 2.25066,0 4.02836,-0.64871 5.13813,-1.875 0.93327,-1.03125 2.26428,-1.875 2.9578,-1.875 0.69352,0 1.26095,-0.58273 1.26095,-1.29495 0,-1.37644 6.4541,-3.38232 10.96202,-3.40691 3.85055,-0.021 4.53624,-0.74326 7.32913,-7.72001 1.39328,-3.48047 2.84487,-6.32813 3.22574,-6.32813 0.38088,0 1.44983,0.83683 2.37544,1.85962 1.62106,1.79126 1.61302,2.02786 -0.2188,6.43571 l -1.90174,4.57609 7.16098,0.50497 c 9.10625,0.64213 16.57675,3.46381 22.97977,8.67967 6.34764,5.17076 9.13537,9.96928 11.87003,20.43197 l 2.16138,8.26927 -1.69715,9.0108 c -1.4821,7.869 -2.46302,10.3254 -7.74173,19.3869 -7.01708,12.0456 -9.4619,14.9038 -15.29511,17.881 -8.42586,4.3005 -18.13022,6.1267 -27.14746,5.1089 z m 20.9782,-62.14105 c 0.9677,-0.36366 2.28532,-0.22477 2.92805,0.30865 1.66049,1.37808 4.21245,0.13863 5.23112,-2.54067 0.72659,-1.91108 0.41222,-2.74147 -1.92133,-5.07502 -2.11297,-2.11297 -3.19439,-2.58879 -4.45618,-1.96068 -0.91636,0.45616 -4.06242,1.3812 -6.99125,2.05565 -4.96081,1.14237 -5.62761,1.0841 -9.74582,-0.85169 -3.10509,-1.45957 -4.61531,-1.76304 -5.0747,-1.01973 -0.43374,0.70182 -2.25446,0.84592 -5.4059,0.42787 l -4.75187,-0.63036 0.20818,5.24441 c 0.24507,6.17358 1.01313,7.33966 2.98247,4.52803 1.78682,-2.55104 2.84343,-2.60505 3.47817,-0.17781 0.69062,2.64094 3.32736,2.33432 4.03088,-0.46875 0.70967,-2.82755 0.8595,-2.84813 3.41346,-0.46875 1.10691,1.03125 3.03345,1.875 4.28118,1.875 1.96817,0 2.18852,-0.31906 1.6639,-2.40932 -0.56924,-2.26805 -0.40115,-2.20577 2.86672,1.0621 2.88735,2.88735 3.64236,3.24351 4.48744,2.11684 0.55882,-0.74501 1.80778,-1.65211 2.77548,-2.01577 z m -5.9782,-1.97977 c 0,-1.40734 1.68313,-2.90345 2.42819,-2.15839 0.65389,0.65389 -0.64066,3.50931 -1.59099,3.50931 -0.46046,0 -0.8372,-0.60791 -0.8372,-1.35092 z"
         id="path4292"
         inkscape:connector-curvature="0" />
      <path
         style="fill:#b7dc20"
         d="m 595.76514,1047.1991 c -2.83594,-0.3201 -8.32031,-1.8309 -12.1875,-3.3572 -6.78711,-2.6787 -7.2496,-3.0666 -13.31975,-11.172 -8.22942,-10.9886 -10.50209,-15.2756 -13.83044,-26.0883 l -2.76415,-8.97972 1.4219,-8.14626 c 1.1919,-6.82849 1.94324,-8.75532 4.64467,-11.91134 1.77253,-2.07079 3.22277,-4.34685 3.22277,-5.05791 0,-0.71105 0.36549,-1.06694 0.81221,-0.79086 0.44671,0.27609 1.55778,-0.32188 2.46904,-1.32881 0.91126,-1.00693 2.05577,-1.58423 2.54336,-1.28289 0.48758,0.30135 3.70073,0.23796 7.14033,-0.14086 4.54653,-0.50073 5.74194,-0.89429 4.37881,-1.44161 -1.59365,-0.63989 -1.46126,-0.76274 0.88231,-0.81875 2.6289,-0.0628 2.67256,-0.12999 0.9375,-1.44232 -1.70889,-1.29254 -1.61253,-1.37826 1.58102,-1.40625 3.27781,-0.0287 6.14512,-1.89012 4.87229,-3.16295 -0.33928,-0.33928 1.56282,-0.61687 4.22688,-0.61687 3.66535,0 4.84375,-0.33972 4.84375,-1.39639 0,-2.00899 4.75542,-13.60361 5.57939,-13.60361 0.38088,0 1.45859,0.84651 2.39491,1.88113 1.65057,1.82386 1.62859,2.05218 -0.72203,7.5 l -2.42441,5.61887 2.3289,0 c 1.52722,0 2.09767,-0.37413 1.65718,-1.08685 -1.05634,-1.7092 10.53382,-0.30221 16.7888,2.03808 6.6299,2.48056 14.68332,8.94223 17.75141,14.24285 1.28126,2.21357 3.30217,7.74584 4.49092,12.29395 l 2.16138,8.26927 -1.69715,9.0108 c -1.4821,7.869 -2.46302,10.3254 -7.74173,19.3869 -7.01708,12.0456 -9.4619,14.9038 -15.29511,17.881 -8.42586,4.3005 -18.13022,6.1267 -27.14746,5.1089 z m 9.00101,-55.69488 c -0.51085,-2.03536 -0.21031,-2.36882 2.61215,-2.89832 1.75417,-0.32908 4.00479,-0.16195 5.00137,0.3714 1.48851,0.79663 2.24694,0.47403 4.24861,-1.8071 2.21358,-2.52265 2.48818,-2.61442 2.99981,-1.00244 0.69586,2.19248 6.01528,3.22067 9.81304,1.89676 3.93969,-1.37338 4.26664,-4.21288 0.96508,-8.38144 -1.52134,-1.92085 -2.76607,-3.99693 -2.76607,-4.61352 0,-1.53011 -3.85542,-4.63333 -5.80405,-4.67167 -0.87191,-0.0172 -1.84603,-0.45306 -2.1647,-0.96869 -0.93785,-1.51746 -3.28742,-1.10693 -2.68277,0.46875 0.33172,0.86447 -0.002,1.40625 -0.8653,1.40625 -0.7727,0 -1.65165,0.98308 -1.95322,2.18462 -0.46564,1.85527 -1.01098,2.12019 -3.61726,1.75722 -1.68792,-0.23507 -3.49083,-0.75532 -4.00645,-1.15611 -1.73371,-1.3476 -5.82924,-1.36913 -8.30588,-0.0437 -2.19773,1.17619 -2.66502,1.12691 -4.42594,-0.4667 -1.89322,-1.71334 -2.0163,-1.71672 -3.20716,-0.0881 -1.14566,1.56678 -1.30415,1.57608 -2.11666,0.12421 -0.81534,-1.45694 -1.08999,-1.4599 -3.83319,-0.0413 -3.22057,1.66542 -3.92982,4.59115 -1.44947,5.97922 0.90329,0.50551 1.70067,2.57451 1.99352,5.17268 0.3729,3.30831 1.0572,4.70308 2.89975,5.91037 1.66378,1.09015 2.52345,1.24487 2.7721,0.49891 0.4651,-1.39529 5.24908,-1.39412 7.95128,0.002 1.15316,0.59573 2.72946,1.41467 3.5029,1.81983 2.4344,1.27525 3.03365,0.91817 2.43851,-1.45306 z"
         id="path4290"
         inkscape:connector-curvature="0" />
      <path
         style="fill:#a9db20"
         d="m 595.76514,1047.1991 c -2.83594,-0.3201 -8.32031,-1.8309 -12.1875,-3.3572 -6.78711,-2.6787 -7.2496,-3.0666 -13.31975,-11.172 -8.22942,-10.9886 -10.50209,-15.2756 -13.83044,-26.0883 l -2.76415,-8.97972 1.4278,-8.22697 c 1.10263,-6.35327 2.00031,-8.86546 3.94155,-11.03047 1.38256,-1.54193 2.83015,-2.94818 3.21686,-3.125 0.38672,-0.17682 0.70313,-1.2004 0.70313,-2.27461 0,-1.07422 0.28217,-1.67096 0.62704,-1.32608 0.34488,0.34487 1.36836,-0.0438 2.27441,-0.8638 1.33076,-1.20432 2.59985,-1.33923 6.6034,-0.70196 4.19157,0.6672 5.29196,1.28736 7.13381,4.02047 1.57834,2.34211 2.01678,3.96457 1.59288,5.89457 -0.34265,1.56005 -0.11273,3.23188 0.55512,4.0366 0.62701,0.75549 1.4187,2.74212 1.75932,4.41472 0.49792,2.44505 1.16354,3.13297 3.39604,3.50985 3.47671,0.58692 7.93298,3.54395 7.93298,5.26407 0,2.41121 7.08887,1.62434 9.80114,-1.08793 1.3125,-1.3125 2.38636,-2.96042 2.38636,-3.66203 0,-1.49274 8.60899,-2.97319 10.49853,-1.80539 1.99164,1.23091 8.25147,1.06105 8.25147,-0.22389 0,-0.6316 1.29092,-1.43189 2.86872,-1.77843 1.89331,-0.41584 3.18015,-1.44919 3.78464,-3.03913 0.7746,-2.03734 0.47662,-2.95571 -1.93122,-5.95194 -1.56593,-1.94858 -2.84714,-4.02734 -2.84714,-4.61946 0,-1.41028 -3.82739,-4.57901 -5.625,-4.657 -0.77344,-0.0335 -2.22516,-0.6804 -3.22606,-1.43744 -2.34362,-1.77262 -4.27394,-1.75916 -4.27394,0.0298 0,0.77344 -0.60268,1.40625 -1.33929,1.40625 -0.7366,0 -1.89676,0.53595 -2.57812,1.19101 -1.69809,1.63253 -21.37863,1.67183 -23.06285,0.0461 -0.65945,-0.63657 -1.79398,-0.92909 -2.52118,-0.65004 -0.7272,0.27906 -2.08608,0.0183 -3.01974,-0.57937 -1.63479,-1.04655 -1.63487,-1.06709 -0.002,-0.55552 1.42755,0.44723 1.62734,0.0981 1.2638,-2.20864 -0.51144,-3.24514 0.13879,-4.18751 1.88779,-2.73597 0.98136,0.81446 1.78919,0.49325 3.55712,-1.41438 1.51642,-1.63624 3.2604,-2.46815 5.1741,-2.46815 1.93119,0 3.05441,-0.54305 3.39341,-1.64062 1.73877,-5.62962 5.33645,-14.29688 5.93448,-14.29688 0.39014,0 1.46667,0.83683 2.39228,1.85962 1.62259,1.79294 1.60803,2.03665 -0.40626,6.79688 -1.14905,2.71549 -2.308,5.46459 -2.57543,6.10913 -0.3003,0.72374 0.28037,1.17187 1.51848,1.17187 1.1026,0 2.26799,-0.68606 2.58976,-1.52457 0.48309,-1.25893 1.52198,-1.42665 5.96222,-0.96255 7.67282,0.80197 15.10032,3.85569 20.93144,8.60568 6.34764,5.17076 9.13537,9.96928 11.87003,20.43197 l 2.16138,8.26927 -1.69715,9.01078 c -1.4821,7.869 -2.46302,10.3254 -7.74173,19.3869 -7.01708,12.0456 -9.4619,14.9038 -15.29511,17.881 -8.42586,4.3005 -18.13022,6.1267 -27.14746,5.1089 z m 27.1875,-82.89316 c 0,-1.2313 -4.02457,-2.33959 -6.30889,-1.73736 l -2.59736,0.68476 2.8125,0.63326 c 3.57569,0.8051 6.09375,0.97837 6.09375,0.41934 z"
         id="path4288"
         inkscape:connector-curvature="0" />
      <path
         style="fill:#a7d915"
         d="m 595.76514,1047.1991 c -2.83594,-0.3201 -8.32031,-1.8309 -12.1875,-3.3572 -6.78711,-2.6787 -7.2496,-3.0666 -13.31975,-11.172 -8.22942,-10.9886 -10.50209,-15.2756 -13.83044,-26.0883 l -2.76415,-8.97972 1.43391,-8.22697 c 1.52435,-8.74589 3.10186,-11.59511 6.00017,-10.83719 0.98352,0.2572 1.75334,0.73878 1.71072,1.07018 -0.0426,0.3314 -0.0275,1.76271 0.0335,3.18068 0.10363,2.40659 0.38651,2.57812 4.25165,2.57812 2.45748,0 4.31594,-0.47636 4.57191,-1.17187 0.23721,-0.64454 0.7372,-0.0228 1.11109,1.38167 0.50365,1.89186 1.44459,2.70475 3.63121,3.13701 1.9857,0.39254 4.16094,2.05191 6.64798,5.07134 2.03312,2.46834 5.30265,5.48049 7.26563,6.69365 1.96298,1.2132 3.56905,2.576 3.56905,3.0285 0,0.4524 1.92994,0.5332 4.28875,0.1795 3.84477,-0.5766 4.34199,-0.4396 4.80303,1.3234 0.43399,1.6596 0.86736,1.2677 2.77602,-2.5102 3.11803,-6.17165 5.43747,-8.40854 7.20115,-6.94482 0.74728,0.62018 1.7195,1.02318 2.16049,0.89554 0.441,-0.12764 1.8565,0.35678 3.14556,1.07648 3.85585,2.15278 7.90617,2.16831 9.83434,0.0377 0.93844,-1.03697 2.22517,-1.8854 2.85939,-1.8854 0.63422,0 1.84418,-1.05469 2.68881,-2.34375 1.61696,-2.46779 1.38725,-2.66681 -2.02317,-1.75286 -1.16015,0.31091 -2.10937,1.1738 -2.10937,1.91753 0,0.74373 -0.41324,1.09684 -0.9183,0.7847 -1.31211,-0.81093 0.80224,-3.87678 3.53108,-5.12012 2.02731,-0.9237 2.22596,-1.54399 2.04796,-6.39484 -0.10842,-2.95455 -0.0968,-5.79378 0.0258,-6.30941 0.12263,-0.51562 0.15073,-1.32071 0.0625,-1.78909 -0.0883,-0.46837 0.38558,-1.18908 1.05302,-1.60158 0.96646,-0.59731 0.97654,-0.98699 0.0495,-1.91404 -0.64022,-0.64022 -1.16404,-1.78602 -1.16404,-2.54621 0,-0.99699 0.6573,-0.76467 2.35863,0.83365 3.81052,3.57979 6.61641,9.27055 8.92394,18.09905 l 2.16138,8.26927 -1.69715,9.0108 c -1.4821,7.869 -2.46302,10.3254 -7.74173,19.3869 -7.01708,12.0456 -9.4619,14.9038 -15.29511,17.881 -8.42586,4.3005 -18.13022,6.1267 -27.14746,5.1089 z m -1.875,-74.60155 c -6.30633,-1.02136 -8.97555,-2.22499 -9.11765,-4.1114 -0.0798,-1.05923 0.35701,-1.84551 0.97067,-1.74731 1.52433,0.24394 5.94975,-1.65481 6.70499,-2.87681 0.33833,-0.54743 1.64494,-0.99533 2.90357,-0.99533 1.9159,0 2.28842,-0.45623 2.28842,-2.80264 0,-3.0395 4.44956,-15.00986 5.57939,-15.00986 0.38088,0 1.45166,0.83885 2.37951,1.86412 1.63214,1.80349 1.59358,2.08555 -1.18537,8.67188 l -2.87237,6.80775 4.84629,0.9375 c 5.96065,1.15307 7.13755,1.87327 6.5752,4.02369 -0.82869,3.16891 -12.33603,6.32946 -19.07265,5.23841 z"
         id="path4286"
         inkscape:connector-curvature="0" />
      <path
         style="fill:#9ad320"
         d="m 595.76514,1047.1991 c -2.83594,-0.3201 -8.32031,-1.8309 -12.1875,-3.3572 -6.78711,-2.6787 -7.2496,-3.0666 -13.31975,-11.172 -8.22942,-10.9886 -10.50209,-15.2756 -13.83044,-26.0883 l -2.76415,-8.97972 1.42017,-8.22697 c 0.93531,-5.41822 2.04093,-8.85821 3.23842,-10.07592 1.00004,-1.01693 1.81825,-1.34657 1.81825,-0.73255 0,0.61403 0.61427,0.8807 1.36504,0.5926 1.11132,-0.42645 1.21352,0.005 0.54987,2.3185 -0.70559,2.46024 -0.50257,3.04714 1.5102,4.36596 1.6739,1.09678 2.66027,1.2457 3.52076,0.53156 0.65747,-0.54565 1.50748,-0.68001 1.88891,-0.29857 0.38144,0.38143 1.28746,-0.11875 2.01338,-1.11151 1.25355,-1.71433 1.34881,-1.66028 1.89601,1.0757 0.43069,2.15342 1.2031,3.0061 3.05945,3.37737 2.95534,0.59107 10.87486,7.62191 10.06369,8.93441 -0.31157,0.50413 0.93424,1.84414 2.76847,2.97774 1.83423,1.1336 3.99476,3.0681 4.80117,4.2988 1.09411,1.6698 2.31912,2.2377 4.82712,2.2377 2.61406,0 3.11093,0.25 2.23593,1.125 -1.51791,1.5179 -1.41784,2.625 0.23727,2.625 0.74924,0 2.06293,-1.4766 2.91931,-3.2812 0.85638,-1.8047 1.90244,-3.2813 2.32456,-3.2813 0.42213,0 1.0434,-0.8692 1.38059,-1.9317 0.48797,-1.5374 1.13431,-1.8171 3.167,-1.3707 2.08035,0.4569 2.79112,0.1177 3.83316,-1.82935 0.97843,-1.82821 1.73663,-2.23969 3.2243,-1.74982 1.06978,0.35227 2.67503,0.59501 3.56723,0.53943 0.89219,-0.0556 1.85634,0.27786 2.14256,0.74097 0.30349,0.49107 1.53506,0.45625 2.95479,-0.0835 1.33891,-0.50905 3.19407,-0.68444 4.12258,-0.38974 1.31925,0.41872 2.12535,-0.44683 3.68849,-3.9605 1.10015,-2.47297 1.83164,-5.67504 1.62553,-7.11571 -0.20611,-1.44067 -0.0221,-2.83737 0.40898,-3.10377 0.43104,-0.26641 0.41799,-1.19705 -0.029,-2.0681 -0.44701,-0.87105 -1.0462,-3.41681 -1.33153,-5.65725 -0.46662,-3.66382 -0.33962,-4.02666 1.26269,-3.60764 1.48513,0.38837 1.62739,0.17795 0.8552,-1.2649 -0.50945,-0.95192 -1.34588,-1.9901 -1.85873,-2.30706 -0.51285,-0.31696 -0.93246,-1.0468 -0.93246,-1.62188 0,-1.66329 4.5063,3.02132 6.91923,7.19302 1.21109,2.09384 3.17459,7.52815 4.36334,12.07626 l 2.16138,8.26927 -1.69715,9.01077 c -1.4821,7.869 -2.46302,10.3254 -7.74173,19.3869 -7.01708,12.0456 -9.4619,14.9038 -15.29511,17.881 -8.42586,4.3005 -18.13022,6.1267 -27.14746,5.1089 z m -2.51346,-74.88684 c -1.64021,-0.40964 -3.70439,-1.46698 -4.58705,-2.34964 -1.46048,-1.46048 -1.47202,-1.73768 -0.12833,-3.08137 0.81209,-0.81208 3.0872,-1.73735 5.0558,-2.05615 3.43068,-0.55557 3.59972,-0.75422 4.0713,-4.78464 0.52463,-4.48381 4.42484,-14.98626 5.56532,-14.98626 0.37583,0 1.43699,0.8328 2.35814,1.85066 1.61667,1.7864 1.56691,2.11202 -1.43342,9.37901 l -3.10823,7.52836 2.1085,1.96437 c 1.2821,1.19446 2.84046,1.77295 3.97604,1.47599 1.5281,-0.39961 1.66654,-0.24618 0.76168,0.84412 -0.79126,0.95341 -0.80651,1.33249 -0.0536,1.33249 1.90437,0 1.09701,1.66107 -1.05709,2.17484 -4.59582,1.09614 -10.69699,1.41553 -13.52908,0.70822 z"
         id="path4284"
         inkscape:connector-curvature="0" />
      <path
         style="fill:#99d811"
         d="m 595.76514,1047.1991 c -2.83594,-0.3201 -8.32031,-1.8309 -12.1875,-3.3572 -6.78711,-2.6787 -7.2496,-3.0666 -13.31975,-11.172 -8.22942,-10.9886 -10.50209,-15.2756 -13.83044,-26.0883 l -2.76415,-8.97972 1.42017,-8.22697 c 0.93531,-5.41822 2.04093,-8.85821 3.23842,-10.07592 1.14118,-1.16045 1.81825,-1.40167 1.81825,-0.64779 0,0.66063 0.47855,0.9054 1.06345,0.54391 0.73664,-0.45527 0.93065,0.24758 0.63131,2.28711 -0.34244,2.33324 0.0261,3.2446 1.77553,4.39088 1.21422,0.79559 2.70525,1.139 3.31341,0.76314 2.45692,-1.51846 5.60332,-1.17784 6.08355,0.65858 0.26204,1.00203 1.13941,1.82188 1.9497,1.82188 2.89798,0 7.41815,4.02162 8.26168,7.35046 0.49719,1.96208 1.46914,3.35742 2.43443,3.49488 2.22551,0.31696 7.10291,3.91066 8.27183,6.09486 0.68646,1.2827 1.96933,1.8098 4.40435,1.8098 2.67226,0 3.18576,0.25 2.31076,1.125 -1.51791,1.5179 -1.41785,2.625 0.23727,2.625 0.74924,0 2.06293,-1.4766 2.91931,-3.2812 0.85638,-1.8047 1.90244,-3.2813 2.32456,-3.2813 0.42213,0 1.0434,-0.8692 1.38059,-1.9317 0.48797,-1.5374 1.13431,-1.8171 3.167,-1.3707 2.07819,0.4565 2.7911,0.1177 3.82726,-1.81833 1.51602,-2.8327 2.26909,-2.94169 4.55202,-0.65876 1.55514,1.55509 2.11836,1.60219 5.85938,0.48927 2.27637,-0.67719 4.8488,-1.01011 5.71651,-0.73983 2.02643,0.63122 5.74714,-7.3205 5.20347,-11.1206 -0.20611,-1.44067 -0.0221,-2.83737 0.40898,-3.10377 0.43104,-0.2664 0.33421,-1.32428 -0.21518,-2.35084 -0.5494,-1.02655 -0.86694,-2.79392 -0.70566,-3.92748 0.26571,-1.86754 0.48977,-1.75299 2.38682,1.22024 1.34755,2.112 2.09921,2.70711 2.10938,1.67005 0.0107,-1.08876 0.50188,-1.42467 1.51487,-1.03595 1.31074,0.50298 1.34203,0.32377 0.24908,-1.42633 -0.68751,-1.10086 -1.88944,-1.90031 -2.67096,-1.77655 -0.96288,0.15249 -1.45148,-0.60808 -1.51564,-2.3593 -0.0521,-1.42139 -0.85575,-3.42529 -1.78593,-4.45313 -0.93018,-1.02783 -1.27751,-1.86879 -0.77185,-1.86879 1.21453,0 4.22924,3.42313 6.60515,7.5 1.05173,1.80469 2.87924,7.00242 4.06113,11.55053 l 2.14889,8.26927 -1.69715,9.0108 c -1.4821,7.869 -2.46302,10.3254 -7.74173,19.3869 -7.01708,12.0456 -9.4619,14.9038 -15.29511,17.881 -8.42586,4.3005 -18.13022,6.1267 -27.14746,5.1089 z m -2.51346,-74.92198 c -5.00199,-1.19029 -7.77566,-5.66042 -3.51224,-5.66042 0.75,0 2.0962,-0.39108 2.99155,-0.86906 0.89534,-0.47799 2.36618,-1.09756 3.26852,-1.37683 1.15571,-0.35769 1.64063,-1.48338 1.64063,-3.80857 0,-3.40991 4.3526,-15.50804 5.57939,-15.50804 0.38088,0 1.44618,0.8328 2.36733,1.85066 1.61667,1.7864 1.56691,2.11202 -1.43342,9.37901 l -3.10823,7.52836 2.1085,1.96437 c 1.2821,1.19446 2.84046,1.77295 3.97604,1.47599 1.46742,-0.38374 1.64682,-0.22242 0.83734,0.75295 -0.7609,0.91682 -0.71429,1.34663 0.1783,1.64416 2.02334,0.67445 -2.09829,2.29418 -7.224,2.83891 -2.57813,0.27399 -6.02949,0.17882 -7.66971,-0.21149 z"
         id="path4282"
         inkscape:connector-curvature="0" />
      <path
         style="fill:#97cb10"
         d="m 595.76514,1047.1991 c -2.83594,-0.3201 -8.32031,-1.8309 -12.1875,-3.3572 -6.78711,-2.6787 -7.2496,-3.0666 -13.31975,-11.172 -8.21668,-10.9716 -10.50264,-15.2774 -13.80269,-25.9981 -2.57284,-8.35827 -2.67463,-9.28867 -1.70297,-15.56611 0.56838,-3.67207 1.38037,-6.67649 1.80442,-6.67649 0.42404,0 0.77099,0.63281 0.77099,1.40625 0,0.77344 0.35416,1.40625 0.78702,1.40625 0.43286,0 1.26756,1.05469 1.8549,2.34375 0.60764,1.33364 1.85578,2.34375 2.89602,2.34375 1.00547,0 2.52352,0.69539 3.37345,1.54532 1.77486,1.77486 8.69284,3.30011 9.44538,2.08249 0.27714,-0.44842 1.91428,-0.81531 3.6381,-0.81531 2.65657,0 3.28736,0.43933 4.13916,2.88282 0.55273,1.58555 1.38995,2.64488 1.86049,2.35407 0.47054,-0.29081 1.37686,0.0994 2.01405,0.86721 0.63718,0.7677 1.72994,1.3959 2.42836,1.3959 0.69841,0 2.00811,1.1602 2.91043,2.5781 2.21898,3.4871 3.14095,4.0065 5.89485,3.3211 2.03447,-0.5063 2.19132,-0.3906 1.16327,0.858 -0.99522,1.2087 -0.80209,1.6962 1.18876,3.0007 2.08155,1.3638 2.44419,1.3824 2.91733,0.1495 0.29716,-0.7744 0.35236,-1.9493 0.12266,-2.6108 -0.2297,-0.6616 0.53391,-2.3474 1.6969,-3.7463 1.16299,-1.399 2.3107,-3.0865 2.55046,-3.75 0.34374,-0.9514 0.83775,-0.9699 2.33599,-0.088 1.56508,0.9217 2.16517,0.8261 3.40374,-0.5425 0.82703,-0.9139 1.50368,-2.15571 1.50368,-2.75964 0,-1.62027 1.63731,-1.33575 3.59836,0.6253 1.54257,1.54254 2.19349,1.60404 6.20465,0.58552 2.46471,-0.62581 5.27001,-0.93159 6.234,-0.6795 1.14877,0.30041 1.94443,-0.14362 2.30912,-1.28864 0.30602,-0.96085 1.01569,-2.80168 1.57703,-4.09074 0.56134,-1.28906 1.16397,-4.24219 1.33917,-6.5625 0.1752,-2.32031 0.54804,-4.83974 0.82854,-5.59873 0.44901,-1.21496 0.61435,-1.21496 1.38271,0 0.73584,1.16356 0.87496,1.1273 0.88706,-0.23122 0.0101,-1.12856 0.49136,-1.42816 1.60672,-1.00016 1.30545,0.50095 1.22099,0.0895 -0.46875,-2.28352 -1.13361,-1.59201 -2.06111,-3.18619 -2.06111,-3.54262 0,-0.35643 -0.92351,-1.97881 -2.05225,-3.60528 l -2.05224,-2.95722 2.04387,1.77835 c 3.42012,2.9758 6.38462,9.05191 8.65569,17.74093 l 2.16138,8.26927 -1.69715,9.0108 c -1.4821,7.869 -2.46302,10.3254 -7.74173,19.3869 -7.01708,12.0456 -9.4619,14.9038 -15.29511,17.881 -8.42586,4.3005 -18.13022,6.1267 -27.14746,5.1089 z m 45.87161,-62.59085 c -0.0531,-2.78876 -0.22226,-3.09642 -0.87161,-1.5853 -1.13126,2.63257 -1.13126,6.32415 0,5.625 0.51562,-0.31867 0.90785,-2.13654 0.87161,-4.0397 z m -78.68411,3.57095 c 0,-1.75 0.25,-2 1.125,-1.125 0.875,0.875 0.875,1.375 0,2.25 -0.875,0.875 -1.125,0.625 -1.125,-1.125 z m 30.8185,-15.66099 c -1.35451,-0.20833 -3.42161,-1.39945 -4.59356,-2.64693 -2.03368,-2.16475 -2.04962,-2.29451 -0.34975,-2.84637 0.97958,-0.31803 2.62481,-0.9236 3.65606,-1.34571 1.03125,-0.42211 2.61328,-1.00343 3.51562,-1.29182 1.15257,-0.36835 1.64063,-1.50626 1.64063,-3.82514 0,-3.40991 4.3526,-15.50804 5.57939,-15.50804 0.38088,0 1.44618,0.8328 2.36733,1.85066 1.61667,1.7864 1.56691,2.11202 -1.43342,9.37901 l -3.10823,7.52836 2.00826,1.87098 c 1.10455,1.02905 2.68362,1.87099 3.50905,1.87099 0.82543,0 1.26231,0.38584 0.97086,0.85743 -0.29146,0.47158 -10e-4,1.03371 0.6453,1.24917 3.62575,1.20858 -8.93329,3.69939 -14.40754,2.85741 z"
         id="path4280"
         inkscape:connector-curvature="0" />
      <path
         style="fill:#87c910"
         d="m 595.76514,1047.1991 c -2.83594,-0.3201 -8.32031,-1.8309 -12.1875,-3.3572 -6.78711,-2.6787 -7.2496,-3.0666 -13.31975,-11.172 -8.2156,-10.9702 -10.50269,-15.2775 -13.80037,-25.9905 -1.94328,-6.3131 -2.58604,-9.98576 -2.22227,-12.69785 0.68209,-5.08534 2.51505,-5.61055 4.24154,-1.21535 1.20307,3.06272 2.02847,3.70867 6.56042,5.13415 2.85132,0.89685 6.15352,2.66245 7.33824,3.92345 1.68859,1.7975 3.10018,2.2929 6.53281,2.2929 4.34405,0 7.48188,1.8986 7.48188,4.5269 0,0.604 0.94922,1.1075 2.10937,1.1189 1.16016,0.011 3.16407,0.8459 4.45313,1.8542 1.28906,1.0083 2.99766,1.8427 3.79687,1.8542 0.79922,0.011 1.91892,0.4866 2.48822,1.0559 1.95937,1.9594 8.41141,0.027 11.44474,-3.4279 l 2.78798,-3.1754 8.25672,0.1501 c 5.99731,0.1089 9.26135,-0.2884 11.928,-1.4519 3.41864,-1.4917 3.5514,-1.6896 1.92914,-2.8758 -1.67006,-1.2212 -1.6365,-1.3994 0.81114,-4.30829 1.49707,-1.77917 2.34487,-3.69103 2.04948,-4.62174 -0.67308,-2.12069 4.28653,-6.90253 6.34132,-6.11404 2.471,0.94821 2.88316,7.61365 1.0443,16.88787 -1.38828,7.0018 -2.64157,10.0572 -7.66358,18.6833 -6.97427,11.9793 -9.42529,14.8421 -15.25437,17.8172 -8.42586,4.3005 -18.13022,6.1267 -27.14746,5.1089 z m 3.75,-30.8949 c 0,-0.5156 -0.39698,-0.9375 -0.88217,-0.9375 -0.4852,0 -1.14291,0.4219 -1.46158,0.9375 -0.31867,0.5156 0.0783,0.9375 0.88217,0.9375 0.80387,0 1.46158,-0.4219 1.46158,-0.9375 z m -5.05599,-43.93029 c -3.51776,-0.77944 -5.12118,-3.19228 -3.4553,-5.19955 0.67306,-0.81099 1.60159,-1.24099 2.0634,-0.95557 0.46182,0.28541 1.67964,0.25234 2.70628,-0.0735 1.49309,-0.47389 1.86661,-1.42202 1.86661,-4.73815 0,-4.04401 4.19964,-16.35294 5.57939,-16.35294 0.38088,0 1.45138,0.83855 2.37889,1.86344 1.63157,1.80286 1.59058,2.09169 -1.26094,8.88486 -1.62104,3.86178 -2.94734,7.68303 -2.94734,8.49167 0,1.60952 4.19836,6.24917 4.96294,5.48459 0.26087,-0.26087 0.73117,-0.0587 1.04511,0.44928 0.90894,1.47069 -8.75379,3.0732 -12.93904,2.14587 z"
         id="path4278"
         inkscape:connector-curvature="0" />
      <path
         style="fill:#86ba0f"
         d="m 595.76514,1047.1991 c -2.83594,-0.3201 -8.32031,-1.8309 -12.1875,-3.3572 -6.78711,-2.6787 -7.2496,-3.0666 -13.31975,-11.172 -3.45867,-4.6183 -7.33639,-10.3072 -8.61714,-12.642 -2.13029,-3.8835 -7.3624,-18.7237 -6.60127,-18.7237 0.17885,0 1.0446,1.516 1.92388,3.369 0.87928,1.8529 2.4811,3.717 3.55961,4.1425 4.22345,1.6659 5.79676,2.1103 7.98933,2.2568 1.25313,0.084 2.44844,0.6622 2.65625,1.2857 0.48856,1.4657 6.0706,1.472 7.53409,0.01 0.875,-0.875 1.375,-0.875 2.25,0 0.61875,0.6188 2.2864,1.125 3.70589,1.125 3.30168,0 7.35661,1.8363 7.35661,3.3314 0,1.2726 2.05614,2.2936 4.61887,2.2936 0.90917,0 2.42451,0.8525 3.36742,1.8944 l 1.7144,1.8944 2.41528,-2.2496 c 2.69857,-2.5135 6.87614,-3.4997 14.98848,-3.5385 4.82696,-0.023 5.61594,-0.2956 6.69539,-2.3126 0.7873,-1.4711 1.45858,-1.9062 1.88249,-1.2203 0.46631,0.7545 1.17066,0.6158 2.41014,-0.4744 6.26847,-5.5138 7.3541,-6.2474 7.7017,-5.2046 0.2113,0.6338 1.53387,-0.2458 3.06768,-2.0404 2.37429,-2.7779 3.10946,-4.4704 2.84888,-6.55865 -0.0406,-0.32532 0.75974,-1.34585 1.77852,-2.26784 1.81786,-1.64513 1.84399,-1.61114 1.40398,1.82561 -1.41606,11.06028 -2.9097,15.40368 -8.73703,25.40718 -6.98018,11.9825 -9.43071,14.8442 -15.25874,17.8188 -8.42586,4.3005 -18.13022,6.1267 -27.14746,5.1089 z m 19.21875,-32.5461 c 0.51562,-0.5182 3.04687,-1.2371 5.625,-1.5976 3.62749,-0.5072 4.44093,-0.402 3.59715,0.4651 -0.59969,0.6164 -3.13094,1.3353 -5.625,1.5977 -3.03641,0.3194 -4.2249,0.1657 -3.59715,-0.4652 z m -53.90625,-8.7166 c 0,-0.5461 0.42187,-0.7321 0.9375,-0.4134 0.51562,0.3186 0.9375,0.7654 0.9375,0.9928 0,0.2274 -0.42188,0.4134 -0.9375,0.4134 -0.51563,0 -0.9375,-0.4468 -0.9375,-0.9928 z m 82.5,-11.55279 c 0,-0.77344 0.42187,-1.66699 0.9375,-1.98566 0.51562,-0.31867 0.9375,0.0534 0.9375,0.82684 0,0.77344 -0.42188,1.66699 -0.9375,1.98566 -0.51563,0.31867 -0.9375,-0.0534 -0.9375,-0.82684 z m -49.11849,-22.0097 c -3.51776,-0.77944 -5.12118,-3.19228 -3.4553,-5.19955 0.67306,-0.81099 1.60159,-1.24099 2.0634,-0.95557 0.46182,0.28541 1.67964,0.25234 2.70628,-0.0735 1.49309,-0.47389 1.86661,-1.42202 1.86661,-4.73815 0,-4.04401 4.19964,-16.35294 5.57939,-16.35294 0.38088,0 1.45138,0.83855 2.37889,1.86344 1.63157,1.80286 1.59058,2.09169 -1.26094,8.88486 -1.62104,3.86178 -2.94734,7.68303 -2.94734,8.49167 0,1.60952 4.19836,6.24917 4.96294,5.48459 0.26087,-0.26087 0.73117,-0.0587 1.04511,0.44928 0.90894,1.47069 -8.75379,3.0732 -12.93904,2.14587 z"
         id="path4276"
         inkscape:connector-curvature="0" />
      <path
         style="fill:#7dc110"
         d="m 595.76514,1047.1991 c -2.83594,-0.3201 -8.32031,-1.8306 -12.1875,-3.3566 -6.72621,-2.6541 -7.28885,-3.1185 -12.96918,-10.7033 -7.585,-10.128 -10.40086,-14.9296 -12.51672,-21.3431 -2.21347,-6.7095 -2.09841,-7.239 0.44642,-2.0544 1.50753,3.0713 2.70818,4.3041 4.41448,4.5325 1.28906,0.1726 2.74453,0.6999 3.23437,1.1719 1.19874,1.155 2.64777,1.0951 1.92188,-0.079 -1.01328,-1.6395 1.03166,-1.0141 4.59831,1.4062 1.89954,1.2891 3.87699,2.3438 4.39434,2.3438 0.51735,0 1.87929,1.0128 3.02655,2.2507 1.2288,1.3259 3.42546,2.3853 5.34586,2.5782 2.78617,0.2798 3.30348,0.021 3.55952,-1.782 0.28833,-2.0302 2.98167,-3.0888 2.98167,-1.1719 0,0.5156 0.60268,0.9375 1.33929,0.9375 0.7366,0 1.90482,0.5655 2.59604,1.2568 1.39547,1.3954 11.05634,2.9846 11.07903,1.8224 0.008,-0.4045 0.38508,-1.3209 0.8382,-2.0364 0.67309,-1.0628 1.21552,-0.936 2.96429,0.6933 1.17725,1.0967 2.34426,1.7903 2.59335,1.5412 0.2491,-0.2491 -0.49423,-1.2743 -1.65183,-2.2783 -3.15502,-2.7364 -2.21612,-5.1556 2.14006,-5.5143 2.3735,-0.1954 3.39091,0.044 2.98375,0.7031 -0.33981,0.5498 -0.2162,0.9997 0.27469,0.9997 0.49089,0 1.15359,-0.6803 1.47267,-1.5118 0.46156,-1.2028 0.85693,-1.2822 1.93424,-0.3881 0.74475,0.6181 1.79444,0.8517 2.33265,0.519 0.53822,-0.3326 0.97857,-0.158 0.97857,0.3881 0,0.546 0.84375,0.9928 1.875,0.9928 1.04167,0 1.875,0.625 1.875,1.4063 0,0.7734 0.68202,1.4062 1.51559,1.4062 1.05732,0 1.36636,-0.5707 1.02206,-1.8873 -0.33943,-1.298 0.13871,-2.224 1.53128,-2.9656 1.11365,-0.5931 2.44669,-1.6242 2.96232,-2.2913 1.27905,-1.6548 5.86725,-2.3547 6.47114,-0.987 0.26713,0.605 0.24577,-0.06 -0.0475,-1.4782 -0.33847,-1.6366 -0.13625,-2.5781 0.5538,-2.5781 0.59783,0 1.72296,-1.5222 2.5003,-3.3826 1.91508,-4.5834 2.27557,-3.7429 1.04876,2.4451 -1.08604,5.478 -10.96228,23.5678 -15.53066,28.4468 -6.42028,6.8568 -21.66323,11.3296 -33.90211,9.9481 z m 9.84375,-28.0824 c 0.31867,-0.5156 1.00128,-0.9375 1.51691,-0.9375 0.51562,0 0.67676,0.4219 0.35809,0.9375 -0.31867,0.5156 -1.00128,0.9375 -1.51691,0.9375 -0.51562,0 -0.67676,-0.4219 -0.35809,-0.9375 z m -10.3125,-46.7604 c -3.96012,-0.83836 -4.52544,-4.53694 -0.75946,-4.96877 2.5153,-0.28842 2.66097,-0.5777 3.22066,-6.39583 0.55591,-5.77888 4.0535,-15.9375 5.48724,-15.9375 0.36697,0 1.42608,0.83855 2.35359,1.86344 1.63101,1.80223 1.59383,2.08704 -1.13192,8.67187 -3.95185,9.54684 -4.50376,12.94962 -2.19812,13.55255 2.80739,0.73415 3.2464,3.09964 0.57526,3.09964 -1.23071,0 -2.7995,0.15975 -3.4862,0.35501 -0.6867,0.19525 -2.51418,0.0871 -4.06105,-0.24041 z"
         id="path4274"
         inkscape:connector-curvature="0" />
      <path
         style="fill:#9b6b42"
         d="m 595.76514,1047.1991 c -2.83594,-0.3201 -8.32031,-1.8306 -12.1875,-3.3566 -6.72621,-2.6541 -7.28885,-3.1185 -12.96918,-10.7033 -7.58715,-10.1309 -10.40086,-14.9296 -12.51938,-21.3512 -2.07943,-6.3032 -1.65311,-7.4641 0.587,-1.5985 1.47181,3.8539 2.71974,4.8253 5.54712,4.3178 0.44099,-0.079 1.45881,0.3983 2.26183,1.0609 1.14554,0.9452 1.54398,0.9553 1.8498,0.047 0.29811,-0.8856 1.03397,-0.8248 3.12879,0.2584 1.50646,0.7791 2.73902,1.8275 2.73902,2.3299 0,0.5024 0.78622,0.9134 1.74716,0.9134 0.96094,0 2.75958,1.0124 3.99699,2.2498 1.27876,1.2788 3.66064,2.3916 5.51847,2.5782 2.79549,0.2807 3.31199,0.023 3.56821,-1.7811 0.37137,-2.6149 0.3408,-2.6164 4.85667,0.2344 2.04201,1.289 4.69144,2.3437 5.88762,2.3437 1.19618,0 2.63866,0.4638 3.20551,1.0306 1.48532,1.4854 4.79959,0.1472 5.14435,-2.077 0.29171,-1.882 0.30863,-1.8814 2.41528,0.092 1.16683,1.0931 2.58365,1.7018 3.14849,1.3528 0.64236,-0.397 0.0545,-1.4102 -1.56961,-2.7052 -4.08751,-3.2593 -2.35934,-4.4301 5.518,-3.7384 3.69551,0.3245 7.45739,0.5779 8.35973,0.5633 1.01716,-0.017 1.64063,0.6763 1.64063,1.8231 0,1.5784 0.28381,1.6978 1.93553,0.8138 1.54006,-0.8242 1.71004,-1.3076 0.83192,-2.3656 -0.87671,-1.0564 -0.74459,-1.4572 0.64259,-1.9494 0.96042,-0.3407 2.64975,-1.431 3.75407,-2.4228 2.40041,-2.156 5.19179,-2.7335 6.2837,-1.3001 0.48255,0.6334 0.58235,0.3903 0.25564,-0.6228 -0.31719,-0.9836 0.22067,-2.4185 1.31781,-3.5157 1.01956,-1.0195 1.85374,-2.6726 1.85374,-3.6734 0,-1.0008 0.46707,-2.1083 1.03794,-2.4611 0.67275,-0.4158 0.85526,-0.023 0.51873,1.1165 -0.28556,0.9669 -0.81504,3.4225 -1.17662,5.4568 -0.72648,4.0872 -11.29768,22.8943 -15.22794,27.0918 -6.42028,6.8568 -21.66323,11.3296 -33.90211,9.9481 z m -23.4375,-28.0824 c 0,-0.5156 -0.44677,-0.9375 -0.99283,-0.9375 -0.54605,0 -0.73209,0.4219 -0.41342,0.9375 0.31867,0.5156 0.76545,0.9375 0.99283,0.9375 0.22738,0 0.41342,-0.4219 0.41342,-0.9375 z m 22.96875,-46.7604 c -3.96012,-0.83836 -4.52544,-4.53694 -0.75946,-4.96877 2.5153,-0.28842 2.66097,-0.5777 3.22066,-6.39583 0.55591,-5.77888 4.0535,-15.9375 5.48724,-15.9375 0.36697,0 1.42608,0.83855 2.35359,1.86344 1.63101,1.80223 1.59383,2.08704 -1.13192,8.67187 -3.95185,9.54684 -4.50376,12.94962 -2.19812,13.55255 2.80739,0.73415 3.2464,3.09964 0.57526,3.09964 -1.23071,0 -2.7995,0.15975 -3.4862,0.35501 -0.6867,0.19525 -2.51418,0.0871 -4.06105,-0.24041 z"
         id="path4272"
         inkscape:connector-curvature="0" />
      <path
         style="fill:#76b910"
         d="m 595.76514,1047.1991 c -2.83594,-0.3201 -8.32031,-1.8306 -12.1875,-3.3566 -6.72621,-2.6541 -7.28885,-3.1185 -12.96918,-10.7033 -7.58715,-10.1309 -10.40086,-14.9296 -12.51938,-21.3512 -2.07943,-6.3032 -1.65311,-7.4641 0.587,-1.5985 1.47181,3.8539 2.71974,4.8253 5.54712,4.3178 0.44099,-0.079 1.45881,0.3983 2.26183,1.0609 1.14554,0.9452 1.54398,0.9553 1.8498,0.047 0.29811,-0.8856 1.03397,-0.8248 3.12879,0.2584 1.50646,0.7791 2.73902,1.8275 2.73902,2.3299 0,0.5024 0.78622,0.9134 1.74716,0.9134 0.96094,0 2.75958,1.0124 3.99699,2.2498 1.27876,1.2788 3.66064,2.3916 5.51847,2.5782 2.79549,0.2807 3.31199,0.023 3.56821,-1.7811 0.37137,-2.6149 0.3408,-2.6164 4.85667,0.2344 2.04201,1.289 4.69144,2.3437 5.88762,2.3437 1.19618,0 2.63866,0.4638 3.20551,1.0306 1.48532,1.4854 4.79959,0.1472 5.14435,-2.077 0.29171,-1.882 0.30863,-1.8814 2.41528,0.092 1.16683,1.0931 2.58365,1.7018 3.14849,1.3528 0.64236,-0.397 0.0545,-1.4102 -1.56961,-2.7052 -4.08751,-3.2593 -2.35934,-4.4301 5.518,-3.7384 3.69551,0.3245 7.45739,0.5779 8.35973,0.5633 1.01716,-0.017 1.64063,0.6763 1.64063,1.8231 0,1.5784 0.28381,1.6978 1.93553,0.8138 1.54006,-0.8242 1.71004,-1.3076 0.83192,-2.3656 -0.87671,-1.0564 -0.74459,-1.4572 0.64259,-1.9494 0.96042,-0.3407 2.64975,-1.431 3.75407,-2.4228 2.40041,-2.156 5.19179,-2.7335 6.2837,-1.3001 0.48255,0.6334 0.58235,0.3903 0.25564,-0.6228 -0.31719,-0.9836 0.22067,-2.4185 1.31781,-3.5157 1.01956,-1.0195 1.85374,-2.6726 1.85374,-3.6734 0,-1.0008 0.46707,-2.1083 1.03794,-2.4611 0.67275,-0.4158 0.85526,-0.023 0.51873,1.1165 -0.28556,0.9669 -0.81504,3.4225 -1.17662,5.4568 -0.72648,4.0872 -11.29768,22.8943 -15.22794,27.0918 -6.42028,6.8568 -21.66323,11.3296 -33.90211,9.9481 z m -23.4375,-28.0824 c 0,-0.5156 -0.44677,-0.9375 -0.99283,-0.9375 -0.54605,0 -0.73209,0.4219 -0.41342,0.9375 0.31867,0.5156 0.76545,0.9375 0.99283,0.9375 0.22738,0 0.41342,-0.4219 0.41342,-0.9375 z m 22.96875,-46.7604 c -3.96012,-0.83836 -4.52544,-4.53694 -0.75946,-4.96877 2.5153,-0.28842 2.66097,-0.5777 3.22066,-6.39583 0.55591,-5.77888 4.0535,-15.9375 5.48724,-15.9375 0.36697,0 1.42608,0.83855 2.35359,1.86344 1.63101,1.80223 1.59383,2.08704 -1.13192,8.67187 -3.95185,9.54684 -4.50376,12.94962 -2.19812,13.55255 2.80739,0.73415 3.2464,3.09964 0.57526,3.09964 -1.23071,0 -2.7995,0.15975 -3.4862,0.35501 -0.6867,0.19525 -2.51418,0.0871 -4.06105,-0.24041 z"
         id="path4270"
         inkscape:connector-curvature="0" />
      <path
         style="fill:#76b909"
         d="m 584.04639,1044.0429 c -8.00206,-3.2118 -8.61361,-3.8036 -18.49199,-17.8949 l -3.94326,-5.625 3.51051,2.6466 c 2.76052,2.0812 4.10555,2.5159 6.29575,2.0349 2.18353,-0.4796 2.78524,-0.2875 2.78524,0.8891 0,0.8254 1.16016,1.9952 2.57812,2.5995 1.41797,0.6042 3.22196,1.6298 4.00887,2.279 1.84402,1.5213 9.35051,2.7575 9.35051,1.5399 0,-0.4988 1.07698,-1.3975 2.39328,-1.9973 2.03551,-0.9274 3.00902,-0.7467 6.5121,1.2091 3.88594,2.1695 4.28265,2.2177 7.01643,0.854 2.42173,-1.2082 3.14399,-1.2411 4.39773,-0.2006 1.28061,1.0628 1.7038,0.9382 2.89213,-0.8515 1.73715,-2.6163 3.97583,-2.7244 3.97583,-0.1921 0,2.7967 2.40052,3.2433 5.27599,0.9814 1.39918,-1.1006 3.23864,-1.7526 4.13859,-1.467 2.5537,0.8105 6.19265,-1.3538 8.03822,-4.7808 1.00931,-1.8742 1.9501,-2.7235 2.33213,-2.1054 0.75172,1.2164 -3.86926,9.458 -7.45021,13.2876 -5.62319,6.0138 -17.60082,10.0036 -29.67847,9.886 -7.20075,-0.07 -9.53684,-0.5234 -15.9375,-3.0925 z m 33.75,-8.0512 c 0.31867,-0.5156 0.13263,-0.9375 -0.41342,-0.9375 -0.54606,0 -0.99283,0.4219 -0.99283,0.9375 0,0.5156 0.18604,0.9375 0.41342,0.9375 0.22738,0 0.67416,-0.4219 0.99283,-0.9375 z m 4.73437,-7.372 c 1.42245,-1.293 6.98438,-2.9222 6.98438,-2.0459 0,0.4383 -1.32858,1.2601 -2.9524,1.8262 -3.59345,1.2527 -5.26887,1.344 -4.03198,0.2197 z m -38.52292,-3.0029 c -0.33987,-0.5499 -0.38442,-1.2334 -0.099,-1.5188 0.7984,-0.7984 5.29379,0.5595 5.29379,1.5991 0,1.2433 -4.41895,1.1751 -5.1948,-0.08 z m -14.25833,-2.4335 c -1.29625,-0.523 -1.61111,-2.1916 -0.41355,-2.1916 0.41707,0 1.57723,0.6194 2.57812,1.3764 1.35609,1.0257 1.46147,1.3652 0.41356,1.3323 -0.77344,-0.024 -1.93359,-0.257 -2.57813,-0.5171 z m 25.54688,-50.827 c -3.96012,-0.83836 -4.52544,-4.53694 -0.75946,-4.96877 2.5153,-0.28842 2.66097,-0.5777 3.22066,-6.39583 0.55591,-5.77888 4.0535,-15.9375 5.48724,-15.9375 0.36697,0 1.42608,0.83855 2.35359,1.86344 1.63101,1.80223 1.59383,2.08704 -1.13192,8.67187 -3.95185,9.54684 -4.50376,12.94962 -2.19812,13.55255 2.80739,0.73415 3.2464,3.09964 0.57526,3.09964 -1.23071,0 -2.7995,0.15975 -3.4862,0.35501 -0.6867,0.19525 -2.51418,0.0871 -4.06105,-0.24041 z"
         id="path4268"
         inkscape:connector-curvature="0" />
      <path
         style="fill:#75a910"
         d="m 584.04639,1044.0429 c -8.00206,-3.2118 -8.61361,-3.8036 -18.49199,-17.8949 l -3.94326,-5.625 3.51051,2.6466 c 2.76052,2.0812 4.10555,2.5159 6.29575,2.0349 2.18353,-0.4796 2.78524,-0.2875 2.78524,0.8891 0,0.8254 1.16016,1.9952 2.57812,2.5995 1.41797,0.6042 3.22196,1.6298 4.00887,2.279 1.84402,1.5213 9.35051,2.7575 9.35051,1.5399 0,-0.4988 1.07698,-1.3975 2.39328,-1.9973 2.03551,-0.9274 3.00902,-0.7467 6.5121,1.2091 3.88594,2.1695 4.28265,2.2177 7.01643,0.854 2.42173,-1.2082 3.14399,-1.2411 4.39773,-0.2006 1.28061,1.0628 1.7038,0.9382 2.89213,-0.8515 1.73715,-2.6163 3.97583,-2.7244 3.97583,-0.1921 0,2.7967 2.40052,3.2433 5.27599,0.9814 1.39918,-1.1006 3.23864,-1.7526 4.13859,-1.467 2.5537,0.8105 6.19265,-1.3538 8.03822,-4.7808 1.00931,-1.8742 1.9501,-2.7235 2.33213,-2.1054 0.75172,1.2164 -3.86926,9.458 -7.45021,13.2876 -5.62319,6.0138 -17.60082,10.0036 -29.67847,9.886 -7.20075,-0.07 -9.53684,-0.5234 -15.9375,-3.0925 z m 33.75,-8.0512 c 0.31867,-0.5156 0.13263,-0.9375 -0.41342,-0.9375 -0.54606,0 -0.99283,0.4219 -0.99283,0.9375 0,0.5156 0.18604,0.9375 0.41342,0.9375 0.22738,0 0.67416,-0.4219 0.99283,-0.9375 z m 4.73437,-7.372 c 1.42245,-1.293 6.98438,-2.9222 6.98438,-2.0459 0,0.4383 -1.32858,1.2601 -2.9524,1.8262 -3.59345,1.2527 -5.26887,1.344 -4.03198,0.2197 z m -27.23437,-56.2634 c -3.96012,-0.83836 -4.52544,-4.53694 -0.75946,-4.96877 2.5153,-0.28842 2.66097,-0.5777 3.22066,-6.39583 0.55591,-5.77888 4.0535,-15.9375 5.48724,-15.9375 0.36697,0 1.42608,0.83855 2.35359,1.86344 1.63101,1.80223 1.59383,2.08704 -1.13192,8.67187 -3.95185,9.54684 -4.50376,12.94962 -2.19812,13.55255 2.80739,0.73415 3.2464,3.09964 0.57526,3.09964 -1.23071,0 -2.7995,0.15975 -3.4862,0.35501 -0.6867,0.19525 -2.51418,0.0871 -4.06105,-0.24041 z"
         id="path4266"
         inkscape:connector-curvature="0" />
      <path
         style="fill:#66a910"
         d="m 598.57764,1046.245 c -1.28906,-0.3803 -4.35692,-0.7335 -6.81746,-0.7848 -7.26727,-0.1518 -15.53861,-4.458 -19.70665,-10.2597 -1.91003,-2.6586 -3.0516,-4.8338 -2.53683,-4.8338 1.80569,0 0.91402,-1.6773 -1.17344,-2.2073 -1.16015,-0.2946 -2.61889,-1.3607 -3.24163,-2.3692 -1.08007,-1.7492 -1.01523,-1.7726 1.40625,-0.5094 3.14327,1.6398 4.87346,1.6976 4.91077,0.164 0.0169,-0.6931 0.39808,-0.5388 0.9331,0.3777 0.49752,0.8522 3.03349,3.079 5.63547,4.9483 2.60199,1.8693 4.49059,3.7876 4.1969,4.2628 -0.97368,1.5754 3.33011,2.9757 10.37622,3.376 5.89825,0.3351 6.9548,0.1686 6.9548,-1.0958 0,-1.1679 0.86345,-1.4374 3.98437,-1.2437 2.19141,0.136 4.72803,-0.084 5.63694,-0.4892 2.63904,-1.1761 4.28317,0.9635 4.06105,5.2849 -0.15619,3.0388 -0.64356,4.0227 -2.29536,4.6337 -3.08665,1.1418 -9.63764,1.5381 -12.3245,0.7455 z m -3.75,-3.6908 c 0,-0.5156 -0.44677,-0.9375 -0.99283,-0.9375 -0.54605,0 -0.73209,0.4219 -0.41342,0.9375 0.31867,0.5156 0.76545,0.9375 0.99283,0.9375 0.22738,0 0.41342,-0.4219 0.41342,-0.9375 z m -3.51563,-5.3084 c -1.28087,-0.5168 -1.63306,-3.1291 -0.42187,-3.1291 0.97029,0 3,2.0297 3,3 0,0.82 -0.7704,0.8585 -2.57813,0.1291 z m 39.58307,-2.6603 c 0.39511,-1.0313 0.73845,-2.5025 0.76297,-3.2693 0.0245,-0.7668 1.03298,-2.1717 2.24102,-3.1219 1.20804,-0.9503 2.00004,-2.0455 1.75999,-2.4339 -0.24004,-0.3884 0.12541,-0.7062 0.81212,-0.7062 0.83851,0 0.33459,1.5651 -1.53439,4.7656 -3.11589,5.3358 -5.2031,7.7968 -4.04171,4.7657 z m -8.47963,-0.9577 c 0.99361,-0.7517 2.03608,-1.1372 2.3166,-0.8567 0.58846,0.5885 -1.79259,2.2619 -3.18566,2.2389 -0.51563,-0.01 -0.12455,-0.6305 0.86906,-1.3822 z m 6.16219,0.5996 c 0,-0.5157 0.42187,-1.1983 0.9375,-1.5169 0.51562,-0.3187 0.9375,-0.1576 0.9375,0.358 0,0.5157 -0.42188,1.1983 -0.9375,1.517 -0.51563,0.3186 -0.9375,0.1575 -0.9375,-0.3581 z m -32.8125,-61.91039 c -1.48637,-0.39864 -2.34375,-1.29904 -2.34375,-2.46133 0,-1.40243 0.55028,-1.76888 2.34375,-1.5608 2.28966,0.26566 2.33616,0.14892 2.01471,-5.05811 -0.25428,-4.11908 0.24378,-6.79004 2.19222,-11.7563 1.3867,-3.53445 2.84047,-6.42627 3.23062,-6.42627 0.39014,0 1.46822,0.83855 2.39573,1.86344 1.63101,1.80223 1.59383,2.08704 -1.13192,8.67187 -3.75695,9.07601 -4.38879,12.66119 -2.5546,14.49538 0.79339,0.79339 1.31697,1.54389 1.16351,1.66778 -0.93873,0.75786 -5.32593,1.09655 -7.31027,0.56434 z"
         id="path4264"
         inkscape:connector-curvature="0" />
      <path
         style="fill:#749014"
         d="m 595.76514,972.31701 c -1.48637,-0.39864 -2.34375,-1.29904 -2.34375,-2.46133 0,-1.40243 0.55028,-1.76888 2.34375,-1.5608 2.28966,0.26566 2.33616,0.14892 2.01471,-5.05811 -0.25428,-4.11908 0.24378,-6.79004 2.19222,-11.7563 1.3867,-3.53445 2.84047,-6.42627 3.23062,-6.42627 0.39014,0 1.46822,0.83855 2.39573,1.86344 1.63101,1.80223 1.59383,2.08704 -1.13192,8.67187 -3.75695,9.07601 -4.38879,12.66119 -2.5546,14.49538 0.79339,0.79339 1.31697,1.54389 1.16351,1.66778 -0.93873,0.75786 -5.32593,1.09655 -7.31027,0.56434 z"
         id="path4262"
         inkscape:connector-curvature="0" />
      <path
         style="fill:#646521"
         d="m 596.56592,971.33036 c -2.12791,-1.77286 -2.13767,-1.8399 -0.27221,-1.86997 1.78537,-0.0288 1.90297,-0.47156 1.52243,-5.73244 -0.33506,-4.63219 0.0648,-6.91753 2.1324,-12.1875 1.39964,-3.56744 2.864,-6.48625 3.25415,-6.48625 0.39014,0 1.46822,0.83855 2.39573,1.86344 1.63138,1.80265 1.59192,2.08849 -1.20959,8.7625 -1.59278,3.79449 -3.18563,9.0826 -3.53965,11.75136 -0.35403,2.66876 -0.966,5.05149 -1.35996,5.29497 -0.39395,0.24347 -1.70943,-0.38477 -2.9233,-1.39611 z"
         id="path4260"
         inkscape:connector-curvature="0" />
      <path
         style="fill:#5c6720"
         d="m 596.56592,971.33036 c -2.12791,-1.77286 -2.13767,-1.8399 -0.27221,-1.86997 1.77853,-0.0287 1.90254,-0.47754 1.53513,-5.55684 -0.21983,-3.03911 0.11841,-7.09551 0.75164,-9.01421 l 1.15133,-3.48856 2.21422,2.38794 c 2.07943,2.24256 2.13314,2.582 0.88233,5.57561 -0.73254,1.75322 -1.62236,5.37732 -1.97738,8.05356 -0.35501,2.67624 -0.9678,5.0651 -1.36176,5.30858 -0.39395,0.24347 -1.70943,-0.38477 -2.9233,-1.39611 z m 7.4528,-22.91984 c -1.89218,-0.7974 -2.31241,-1.41213 -1.67149,-2.44513 0.72317,-1.16556 1.18059,-1.05629 2.94434,0.70339 2.54653,2.54066 2.09362,3.16042 -1.27285,1.74174 z"
         id="path4258"
         inkscape:connector-curvature="0" />
      <path
         style="fill:#575720"
         d="m 598.23885,968.70746 c -0.88743,-5.3684 -0.70863,-10.87064 0.4624,-14.22986 l 1.0611,-3.04388 2.12476,2.29145 2.12476,2.29146 -1.74901,5.06566 c -0.96196,2.78611 -1.76278,6.20092 -1.77961,7.58846 -0.0475,3.9137 -1.59931,3.93908 -2.2444,0.0367 z"
         id="path4256"
         inkscape:connector-curvature="0" />
      <path
         style="fill:#494a12"
         d="m 598.24656,968.75497 c -0.84286,-5.10007 -0.73938,-11.51327 0.18578,-11.51327 0.43571,0 1.44431,0.73828 2.24133,1.64063 1.23295,1.39588 1.28741,2.4353 0.36505,6.96774 -1.36108,6.68833 -2.04867,7.40368 -2.79216,2.9049 z"
         id="path4254"
         inkscape:connector-curvature="0" />
      <path
         style="fill:#3d4210"
         d="m 598.26963,968.8971 c -1.12617,-6.81905 -0.87578,-7.9054 1.82208,-7.9054 2.41999,0 2.43115,0.0312 0.86626,2.41949 -0.87192,1.33072 -1.35573,3.01775 -1.07514,3.74895 0.28059,0.73121 0.1694,2.25065 -0.2471,3.37654 -0.65739,1.77711 -0.83755,1.56089 -1.3661,-1.63958 z"
         id="path4252"
         inkscape:connector-curvature="0" />
      <path
         style="fill:#383910"
         d="m 598.34819,968.96045 c -0.24642,-1.28906 -0.0847,-2.34375 0.35945,-2.34375 0.44413,0 0.8075,1.05469 0.8075,2.34375 0,1.28906 -0.16176,2.34375 -0.35946,2.34375 -0.1977,0 -0.56107,-1.05469 -0.80749,-2.34375 z"
         id="path4250"
         inkscape:connector-curvature="0" />
    </g>
  </g>
</svg>
