<?xml version="1.0" encoding="UTF-8" standalone="no"?>
<!-- Created with Inkscape (http://www.inkscape.org/) -->

<svg
   xmlns:dc="http://purl.org/dc/elements/1.1/"
   xmlns:cc="http://creativecommons.org/ns#"
   xmlns:rdf="http://www.w3.org/1999/02/22-rdf-syntax-ns#"
   xmlns:svg="http://www.w3.org/2000/svg"
   xmlns="http://www.w3.org/2000/svg"
   xmlns:sodipodi="http://sodipodi.sourceforge.net/DTD/sodipodi-0.dtd"
   xmlns:inkscape="http://www.inkscape.org/namespaces/inkscape"
   width="26.262434mm"
   height="22.714975mm"
   viewBox="0 0 93.055872 80.486135"
   id="svg2"
   version="1.1"
   inkscape:version="0.91 r13725">
  <defs
     id="defs4" />
  <sodipodi:namedview
     id="base"
     pagecolor="#ffffff"
     bordercolor="#666666"
     borderopacity="1.0"
     inkscape:pageopacity="0.0"
     inkscape:pageshadow="2"
     inkscape:zoom="2.8"
     inkscape:cx="102.18051"
     inkscape:cy="-5.5057182"
     inkscape:document-units="px"
     inkscape:current-layer="layer1"
     showgrid="false"
     fit-margin-top="0"
     fit-margin-left="0"
     fit-margin-right="0"
     fit-margin-bottom="0"
     inkscape:window-width="1920"
     inkscape:window-height="1031"
     inkscape:window-x="179"
     inkscape:window-y="0"
     inkscape:window-maximized="0" />
  <metadata
     id="metadata7">
    <rdf:RDF>
      <cc:Work
         rdf:about="">
        <dc:format>image/svg+xml</dc:format>
        <dc:type
           rdf:resource="http://purl.org/dc/dcmitype/StillImage" />
        <dc:title></dc:title>
      </cc:Work>
    </rdf:RDF>
  </metadata>
  <g
     inkscape:label="Layer 1"
     inkscape:groupmode="layer"
     id="layer1"
     transform="translate(-591.34657,-889.22749)">
    <g
       id="g3600"
       transform="translate(-108.92858,7.142858)">
      <path
         style="fill:#fcd923"
         d="m 732.15015,960.9248 c -8.36566,-2.79379 -18.03554,-8.163 -21.65471,-12.0238 -1.85541,-1.97928 -4.914,-6.40942 -6.79688,-9.84476 -3.30545,-6.03087 -3.42341,-6.57448 -3.42341,-15.77687 0,-9.20833 0.12992,-9.80583 3.83999,-17.66017 3.25119,-6.88289 4.74692,-8.88094 9.75483,-13.03085 7.29963,-6.04899 7.86034,-6.2825 20.82488,-8.67277 12.30843,-2.26929 14.94917,-1.88707 26.96324,3.90274 9.9822,4.81061 13.3331,7.67532 19.76195,16.89469 2.98261,4.27724 6.88274,9.57458 8.66696,11.77186 l 3.24402,3.99505 -2.60663,7.25495 c -3.6497,10.1581 -4.44156,11.53843 -10.59781,18.47364 -7.12158,8.02267 -12.57608,11.38418 -22.0334,13.57878 -12.14331,2.81789 -19.89374,3.15772 -25.94303,1.13751 z"
         id="path3646"
         inkscape:connector-curvature="0" />
      <path
         style="fill:#fcca20"
         d="m 732.15015,960.9248 c -8.36566,-2.79379 -18.03554,-8.163 -21.65471,-12.0238 -1.85541,-1.97928 -4.914,-6.40942 -6.79688,-9.84476 -3.30545,-6.03087 -3.42341,-6.57448 -3.42341,-15.77687 0,-9.20833 0.12992,-9.80583 3.83999,-17.66017 3.25119,-6.88289 4.74692,-8.88094 9.75483,-13.03085 7.30277,-6.05159 7.85571,-6.28157 20.87529,-8.68241 8.55267,-1.57713 11.31919,-1.7547 14.53125,-0.93266 6.88759,1.7627 6.98512,1.85629 3.62868,3.48186 -1.71693,0.83153 -3.44042,2.3735 -3.82998,3.42659 -0.61486,1.6621 -0.0258,2.19208 4.46488,4.01724 3.73351,1.51741 5.58618,1.8406 6.65725,1.1613 1.15884,-0.73497 0.97044,-0.83644 -0.85968,-0.46304 -2.18344,0.44549 -2.16741,0.40411 0.23437,-0.60496 1.41797,-0.59574 2.57813,-1.60632 2.57813,-2.24573 0,-0.699 1.21494,-1.13852 3.04687,-1.10224 4.30991,0.0853 9.79001,4.84297 16.25079,14.10836 2.96734,4.25543 6.85496,9.53493 8.63918,11.73221 l 3.24402,3.99505 -2.60663,7.25495 c -3.6497,10.1581 -4.44156,11.53843 -10.59781,18.47364 -7.12158,8.02267 -12.57608,11.38418 -22.0334,13.57878 -12.14331,2.81789 -19.89374,3.15772 -25.94303,1.13751 z m 18.98438,-74.83713 c -0.64453,-0.26007 -1.69922,-0.26007 -2.34375,0 -0.64453,0.26008 -0.11719,0.47286 1.17187,0.47286 1.28907,0 1.81641,-0.21278 1.17188,-0.47286 z"
         id="path3644"
         inkscape:connector-curvature="0" />
      <path
         style="fill:#fdc615"
         d="m 732.15015,960.9248 c -8.36566,-2.79379 -18.03554,-8.163 -21.65471,-12.0238 -1.85541,-1.97928 -4.914,-6.40942 -6.79688,-9.84476 -3.30545,-6.03087 -3.42341,-6.57448 -3.42341,-15.77687 0,-9.20833 0.12992,-9.80583 3.83999,-17.66017 3.25119,-6.88289 4.74692,-8.88094 9.75483,-13.03085 3.25317,-2.6958 6.90408,-5.31589 8.11314,-5.82242 4.6079,-1.93044 23.71338,-4.7985 26.57329,-3.9891 2.60425,0.73703 2.4221,0.84222 -2.45998,1.42065 -4.80734,0.56958 -12.52384,3.42922 -9.29011,3.4428 2.18471,0.009 9.40634,2.99043 9.40634,3.88315 0,0.44557 -0.63281,0.81013 -1.40625,0.81013 -0.77343,0 -1.40625,0.56036 -1.40625,1.24524 0,0.72921 1.99287,1.70524 4.80906,2.3553 4.36938,1.00857 5.22298,0.91615 9.33657,-1.01086 2.49014,-1.16651 4.54481,-2.64827 4.56595,-3.2928 0.0374,-1.13952 1.86371,-1.60099 4.72593,-1.19414 2.84657,0.40462 9.35989,6.78696 14.61016,14.31636 2.96734,4.25543 6.85166,9.5309 8.63184,11.72325 l 3.23668,3.98609 -2.97613,8.25367 c -3.34615,9.27981 -4.23427,10.78297 -10.8463,18.35765 -7.61496,8.72361 -19.37604,13.68567 -35.62501,15.03037 -4.99839,0.41364 -7.79144,0.13267 -11.71875,-1.17889 z m 38.46672,-7.48888 c 1.16157,-0.94058 1.94392,-2.21422 1.73855,-2.83031 -0.23076,-0.69228 -1.55708,-0.039 -3.47219,1.71014 -3.35415,3.06355 -1.85921,4.02949 1.73364,1.12017 z m -8.3964,-45.46954 c -0.5543,-0.5543 -1.00781,-1.67623 -1.00781,-2.49319 0,-1.27478 -5.45066,-5.4694 -5.92429,-4.5591 -0.0932,0.17915 -0.63684,1.16872 -1.20808,2.19904 -0.8815,1.58994 -0.6298,2.17493 1.66392,3.86719 2.79609,2.06289 8.40746,2.91726 6.47626,0.98606 z m -5.69532,-2.03907 c -0.97506,-1.17487 -0.8397,-1.40625 0.82271,-1.40625 1.14371,0 1.9898,0.59796 1.9898,1.40625 0,0.77344 -0.37022,1.40625 -0.82271,1.40625 -0.45249,0 -1.3479,-0.63281 -1.9898,-1.40625 z m 3.75001,-10.78125 c 0.77343,-0.49983 0.98437,-0.90879 0.46875,-0.90879 -0.51563,0 -1.57032,0.40896 -2.34375,0.90879 -0.77344,0.49984 -0.98438,0.90879 -0.46876,0.90879 0.51563,0 1.57032,-0.40895 2.34376,-0.90879 z"
         id="path3642"
         inkscape:connector-curvature="0" />
      <path
         style="fill:#ebca21"
         d="m 732.15015,960.9248 c -8.36566,-2.79379 -18.03554,-8.163 -21.65471,-12.0238 -1.85541,-1.97928 -4.914,-6.40942 -6.79688,-9.84476 -3.30545,-6.03087 -3.42341,-6.57448 -3.42341,-15.77687 0,-9.20833 0.12992,-9.80583 3.83999,-17.66017 3.25119,-6.88289 4.74692,-8.88094 9.75483,-13.03085 3.25317,-2.6958 6.90408,-5.31589 8.11314,-5.82242 4.60594,-1.92962 23.71695,-4.87494 26.04374,-4.01377 1.96525,0.72737 1.55769,0.93019 -2.92874,1.45748 -4.75952,0.55939 -12.44756,3.41713 -9.2293,3.43064 0.7562,0.003 3.19202,0.69974 5.41295,1.54792 3.78934,1.44717 3.94487,1.64509 2.52533,3.21367 -1.41093,1.55905 -1.32095,1.77069 1.33737,3.14536 1.56754,0.81061 3.99103,1.47383 5.38551,1.47383 3.24884,0 11.5314,-3.85505 11.58176,-5.39062 0.0374,-1.13952 1.86371,-1.60099 4.72593,-1.19414 2.84657,0.40462 9.35989,6.78696 14.61016,14.31636 2.96734,4.25543 6.85496,9.53493 8.63918,11.73221 l 3.24402,3.99505 -2.58442,7.25495 c -3.36699,9.45178 -5.04546,12.304 -11.46291,19.47892 -4.03939,4.51616 -6.87617,6.66936 -11.74076,8.9116 -12.29599,5.66758 -26.8738,7.6444 -35.39278,4.79941 z m 38.56802,-7.59267 c 1.88315,-1.54341 2.04472,-2.09077 1.08335,-3.67006 -0.92546,-1.52027 -0.85049,-2.08261 0.41433,-3.10793 1.10233,-0.8936 1.34276,-0.91647 0.84019,-0.0799 -0.38722,0.64453 -0.25727,1.17188 0.28879,1.17188 0.54605,0 0.99283,-1.01953 0.99283,-2.26563 0,-1.24609 0.52734,-2.45396 1.17187,-2.68415 0.64453,-0.23019 0.91398,-0.69903 0.59877,-1.04186 -0.31521,-0.34283 -1.58083,-0.20429 -2.8125,0.30785 -4.20547,1.74871 -6.47115,4.51278 -7.28946,8.89296 -0.70515,3.77451 -0.60306,4.29083 0.84849,4.29083 0.90756,0 2.64606,-0.81628 3.86334,-1.81394 z m -1.30239,-34.9871 c 0.64453,0.21713 1.17188,-0.10174 1.17188,-0.70861 0,-0.60687 -0.80475,-1.31384 -1.78833,-1.57105 -0.98358,-0.25721 -1.99877,-1.2724 -2.25598,-2.25598 -0.25721,-0.98358 -0.95393,-1.78833 -1.54825,-1.78833 -0.59433,0 -0.82285,0.41705 -0.50783,0.92676 0.33516,0.54231 -0.0656,0.68179 -0.96613,0.33623 -1.02576,-0.39362 -1.39653,-1.33531 -1.11192,-2.82413 0.23484,-1.22849 0.0617,-2.45937 -0.38479,-2.73531 -0.44648,-0.27594 -0.81177,-1.2296 -0.81177,-2.11924 0,-0.88965 -1.22525,-2.34132 -2.72278,-3.22593 -2.64871,-1.56463 -5.72173,-2.24038 -4.46268,-0.98133 0.34488,0.34487 -0.041,1.36524 -0.85752,2.26747 -1.36189,1.50487 -1.32332,1.80169 0.4667,3.59171 1.0732,1.0732 1.95127,2.59 1.95127,3.37067 0,2.5319 4.13429,7.93122 6.09376,7.95835 1.03125,0.0143 2.50781,0.43351 3.28125,0.93162 0.96666,0.62255 1.6993,0.51908 2.34375,-0.33102 0.51562,-0.68017 1.46484,-1.05901 2.10937,-0.84188 z m -9.14062,-23.19897 c 0.77343,-0.49983 0.98437,-0.90879 0.46875,-0.90879 -0.51563,0 -1.57032,0.40896 -2.34375,0.90879 -0.77344,0.49984 -0.98438,0.90879 -0.46876,0.90879 0.51563,0 1.57032,-0.40895 2.34376,-0.90879 z"
         id="path3640"
         inkscape:connector-curvature="0" />
      <path
         style="fill:#f3ba20"
         d="m 732.15015,960.9248 c -8.36566,-2.79379 -18.03554,-8.163 -21.65471,-12.0238 -1.85541,-1.97928 -4.914,-6.40942 -6.79688,-9.84476 -3.30545,-6.03087 -3.42341,-6.57448 -3.42341,-15.77687 0,-9.20833 0.12992,-9.80583 3.83999,-17.66017 3.25119,-6.88289 4.74692,-8.88094 9.75483,-13.03085 3.25317,-2.6958 6.90408,-5.31589 8.11314,-5.82242 4.60594,-1.92962 23.71695,-4.87494 26.04374,-4.01377 1.96525,0.72737 1.55769,0.93019 -2.92874,1.45748 -4.75952,0.55939 -12.44756,3.41713 -9.2293,3.43064 0.7562,0.003 3.19202,0.69974 5.41295,1.54792 3.78934,1.44717 3.94487,1.64509 2.52533,3.21367 -1.41093,1.55905 -1.32095,1.77069 1.33737,3.14536 1.56754,0.81061 4.085,1.47383 5.59435,1.47383 3.38179,0 5.91303,2.50234 3.85106,3.8071 -0.74028,0.46843 -0.96417,0.85815 -0.49754,0.86605 0.46663,0.008 0.1159,0.82378 -0.7794,1.81308 -1.5506,1.71339 -1.53525,1.89129 0.32345,3.75 1.0732,1.0732 1.95127,2.59 1.95127,3.37067 0,2.40285 4.12092,7.93173 5.92101,7.944 0.93624,0.006 2.52454,0.45167 3.52954,0.98953 1.40147,0.75005 1.95134,0.65461 2.3597,-0.40955 0.29284,-0.76312 1.13033,-1.15805 1.86109,-0.87763 0.73077,0.28042 1.32867,0.003 1.32867,-0.61571 0,-0.61907 -0.80475,-1.33602 -1.78833,-1.59323 -0.98358,-0.25721 -1.99877,-1.2724 -2.25598,-2.25598 -0.25721,-0.98358 -0.95393,-1.78833 -1.54825,-1.78833 -0.59433,0 -0.82285,0.41705 -0.50783,0.92676 0.32844,0.53144 -0.0479,0.68861 -0.88217,0.36845 -1.54282,-0.59203 -2.05319,-4.10771 -0.59632,-4.10771 0.47224,0 2.87148,1.87456 5.33163,4.16569 2.46016,2.29113 4.8342,3.94246 5.27565,3.66963 0.44144,-0.27283 2.21209,0.579 3.93476,1.89294 l 3.13214,2.389 -0.94114,-3.70778 c -0.67287,-2.65092 -1.83955,-4.26304 -4.09305,-5.65578 -1.73356,-1.07139 -3.58149,-1.6825 -4.10652,-1.35801 -0.52502,0.32448 -0.95459,-2e-5 -0.95459,-0.72113 0,-0.7211 -1.02396,-1.77764 -2.27547,-2.34786 -2.38904,-1.08852 -4.73996,-5.34556 -5.5094,-9.97643 -0.54909,-3.30468 1.44508,-5.74793 3.82458,-4.68586 0.8891,0.39684 2.61419,0.83814 3.83354,0.98066 3.03263,0.35448 5.01427,2.33149 11.13189,11.10592 2.88759,4.14164 6.70668,9.32401 8.48686,11.51636 l 3.23668,3.98609 -2.97613,8.25367 c -3.37375,9.35633 -4.38433,11.0654 -10.62848,17.9744 -5.12112,5.66642 -4.95796,3.5403 0.21442,-2.794 4.31212,-5.2808 4.73066,-6.4273 3.795,-10.39562 -0.499,-2.11635 -0.78653,-2.50335 -0.85003,-1.14409 -0.0528,1.12973 -0.51784,2.31478 -1.03346,2.63346 -0.51563,0.31867 -0.9375,1.16128 -0.9375,1.87246 0,0.71119 -1.24576,2.65699 -2.76834,4.32401 -1.52259,1.66702 -2.9417,3.9079 -3.15358,4.97973 -0.30224,1.52893 -0.41275,1.41017 -0.51291,-0.5512 -0.0702,-1.375 0.39967,-2.68834 1.0442,-2.91853 0.64453,-0.23019 0.91398,-0.69903 0.59877,-1.04186 -0.76049,-0.82714 -4.52947,0.78763 -7.17612,3.07451 -2.82326,2.43949 -4.40981,10.15769 -2.19967,10.70088 2.02224,0.49702 -4.44307,3.35382 -11.14486,4.92453 -9.64863,2.26138 -17.78148,2.45932 -23.4375,0.57045 z m 38.97191,-12.23501 c -0.28257,-0.4572 0.0263,-1.27944 0.68626,-1.8272 0.9018,-0.74843 1.23423,-0.54184 1.33767,0.83127 0.14102,1.87207 -1.10386,2.48465 -2.02393,0.99593 z"
         id="path3638"
         inkscape:connector-curvature="0" />
      <path
         style="fill:#daca24"
         d="m 732.15015,960.9248 c -8.36566,-2.79379 -18.03554,-8.163 -21.65471,-12.0238 -1.85541,-1.97928 -4.914,-6.40942 -6.79688,-9.84476 -3.30545,-6.03087 -3.42341,-6.57448 -3.42341,-15.77687 0,-9.20833 0.12992,-9.80583 3.83999,-17.66017 3.25119,-6.88289 4.74692,-8.88094 9.75483,-13.03085 3.25317,-2.6958 6.90408,-5.31589 8.11314,-5.82242 4.47035,-1.87281 24.0385,-4.94495 25.67253,-4.03051 1.2309,0.68885 0.52004,1.03177 -3.14737,1.51827 -4.48313,0.59471 -11.574,3.37427 -8.63946,3.38659 0.7562,0.003 3.19202,0.69974 5.41295,1.54792 3.78934,1.44717 3.94487,1.64509 2.52533,3.21367 -1.41093,1.55905 -1.32095,1.77069 1.33737,3.14536 1.56754,0.81061 3.6494,1.47383 4.62634,1.47383 1.84257,0 4.74574,2.58079 4.74574,4.21875 0,0.51563 -0.63707,1.64146 -1.41571,2.50185 -1.27119,1.40464 -1.21651,1.76357 0.53555,3.51563 1.0732,1.0732 1.95127,2.59 1.95127,3.37067 0,2.40285 4.12092,7.93173 5.92101,7.944 0.93624,0.006 2.52454,0.45167 3.52954,0.98953 1.40147,0.75005 1.95134,0.65461 2.3597,-0.40955 0.29284,-0.76312 1.13033,-1.15805 1.86109,-0.87763 0.73077,0.28042 1.32867,0.003 1.32867,-0.61571 0,-0.61907 -0.84375,-1.34622 -1.875,-1.6159 -1.03125,-0.26967 -1.875,-1.08877 -1.875,-1.82021 0,-1.55426 2.65168,-0.43568 4.63645,1.95582 0.66055,0.79591 1.5933,1.20465 2.07279,0.90831 0.47948,-0.29633 2.30372,0.5534 4.05386,1.8883 l 3.18208,2.42708 -1.11495,-3.85093 c -0.87275,-3.01442 -1.92788,-4.28786 -4.85737,-5.86234 -2.05833,-1.10628 -3.95599,-2.26467 -4.21702,-2.57419 -0.26103,-0.30953 -1.40672,-1.05351 -2.54599,-1.65329 -2.22894,-1.17345 -4.50993,-5.48012 -5.24472,-9.90242 -0.54909,-3.30468 1.44508,-5.74793 3.82458,-4.68586 0.8891,0.39684 2.61419,0.83814 3.83354,0.98066 3.03263,0.35448 5.01427,2.33149 11.13189,11.10592 2.88759,4.14164 6.70668,9.32401 8.48686,11.51636 l 3.23668,3.98609 -2.97613,8.25367 c -3.37375,9.35633 -4.38433,11.0654 -10.62848,17.9744 -5.12112,5.66642 -4.95796,3.5403 0.21442,-2.794 4.31212,-5.2808 4.73066,-6.4273 3.795,-10.39562 -0.499,-2.11635 -0.78653,-2.50335 -0.85003,-1.14409 -0.0528,1.12973 -0.51784,2.31478 -1.03346,2.63346 -0.51563,0.31867 -0.9375,1.16384 -0.9375,1.87815 0,0.71431 -1.47455,2.90426 -3.27677,4.86655 -1.80223,1.96229 -3.27879,3.07561 -3.28125,2.47405 -0.002,-0.60157 0.52286,-1.28209 1.16739,-1.51228 0.64453,-0.23019 0.91398,-0.69903 0.59877,-1.04186 -0.76049,-0.82714 -4.52947,0.78763 -7.17612,3.07451 -2.81433,2.43177 -4.42133,10.19188 -2.19967,10.62209 2.16088,0.41844 -4.72504,3.52747 -11.0728,4.99943 -9.77348,2.26634 -17.85208,2.4637 -23.50956,0.57434 z m 0.52394,-69.11171 c 1.71592,-1.37473 1.686,-1.39424 -0.52394,-0.34176 -2.86971,1.3667 -3.40157,1.79973 -2.21043,1.79973 0.50301,0 1.73348,-0.65608 2.73437,-1.45797 z"
         id="path3636"
         inkscape:connector-curvature="0" />
      <path
         style="fill:#ecc813"
         d="m 732.15015,960.9248 c -8.36566,-2.79379 -18.03554,-8.163 -21.65471,-12.0238 -1.85541,-1.97928 -4.914,-6.40942 -6.79688,-9.84476 -3.30545,-6.03087 -3.42341,-6.57448 -3.42341,-15.77687 0,-9.20833 0.12992,-9.80583 3.83999,-17.66017 3.25119,-6.88289 4.74692,-8.88094 9.75483,-13.03085 3.25317,-2.6958 6.90408,-5.31589 8.11314,-5.82242 4.47035,-1.87281 24.0385,-4.94495 25.67253,-4.03051 1.2309,0.68885 0.52004,1.03177 -3.14737,1.51827 -4.48313,0.59471 -11.574,3.37427 -8.63946,3.38659 0.7562,0.003 3.19202,0.69974 5.41295,1.54792 3.78934,1.44717 3.94487,1.64509 2.52533,3.21367 -1.41093,1.55905 -1.32095,1.77069 1.33737,3.14536 1.56754,0.81061 3.6494,1.47383 4.62634,1.47383 1.84257,0 4.74574,2.58079 4.74574,4.21875 0,0.51563 -0.63707,1.64146 -1.41571,2.50185 -1.27119,1.40464 -1.21651,1.76357 0.53555,3.51563 1.0732,1.0732 1.95127,2.59 1.95127,3.37067 0,2.40285 4.12092,7.93173 5.92101,7.944 0.93624,0.006 2.52454,0.45167 3.52954,0.98953 1.40147,0.75005 1.95134,0.65461 2.3597,-0.40955 0.29284,-0.76312 1.13033,-1.15805 1.86109,-0.87763 0.73077,0.28042 1.32867,0.003 1.32867,-0.61571 0,-0.61907 -0.84375,-1.34622 -1.875,-1.6159 -1.03125,-0.26967 -1.875,-1.08877 -1.875,-1.82021 0,-1.55426 2.65168,-0.43568 4.63645,1.95582 0.66055,0.79591 1.5933,1.20465 2.07279,0.90831 0.47948,-0.29633 2.29455,0.5464 4.03348,1.87275 l 3.16169,2.41154 -0.95163,-3.50305 c -1.20797,-4.44664 -3.0581,-6.52118 -6.48749,-7.2744 -1.49341,-0.32801 -2.71529,-0.9563 -2.71529,-1.39621 0,-0.43991 -0.82479,-1.06161 -1.83287,-1.38156 -1.48536,-0.47144 -1.67445,-0.99836 -0.99735,-2.77928 0.45953,-1.20866 0.58119,-2.45187 0.27036,-2.7627 -0.31083,-0.31083 0.0735,-0.56515 0.85409,-0.56515 0.78058,0 1.80011,-0.84991 2.26563,-1.88868 0.81712,-1.82339 0.999,-1.78287 5.26041,1.17187 2.45208,1.7002 7.17731,6.75734 10.6309,11.37762 l 6.21687,8.31706 -2.54782,7.15169 c -3.1255,8.77319 -5.93315,13.80098 -9.71431,17.39585 -3.96701,3.77157 -4.59678,2.53794 -0.73455,-1.43887 3.66868,-3.77753 4.44997,-6.13186 3.44464,-10.38017 -0.50155,-2.11945 -0.76719,-2.45722 -0.83254,-1.05857 -0.0528,1.12973 -0.51784,2.31478 -1.03346,2.63346 -0.51563,0.31867 -0.9375,1.16384 -0.9375,1.87815 0,0.71431 -1.47455,2.90426 -3.27677,4.86655 -1.80223,1.96229 -3.27879,3.07561 -3.28125,2.47405 -0.002,-0.60157 0.52286,-1.28209 1.16739,-1.51228 0.64453,-0.23019 0.91398,-0.69903 0.59877,-1.04186 -0.76049,-0.82714 -4.52947,0.78763 -7.17612,3.07451 -2.81433,2.43177 -4.42133,10.19188 -2.19967,10.62209 2.16088,0.41844 -4.72504,3.52747 -11.0728,4.99943 -9.77348,2.26634 -17.85208,2.4637 -23.50956,0.57434 z m 0.52394,-69.11171 c 1.71592,-1.37473 1.686,-1.39424 -0.52394,-0.34176 -2.86971,1.3667 -3.40157,1.79973 -2.21043,1.79973 0.50301,0 1.73348,-0.65608 2.73437,-1.45797 z"
         id="path3634"
         inkscape:connector-curvature="0" />
      <path
         style="fill:#fdb611"
         d="m 732.15015,960.9248 c -8.36566,-2.79379 -18.03554,-8.163 -21.65471,-12.0238 -1.85541,-1.97928 -4.914,-6.40942 -6.79688,-9.84476 -3.30545,-6.03087 -3.42341,-6.57448 -3.42341,-15.77687 0,-9.20833 0.12992,-9.80583 3.83999,-17.66017 3.25119,-6.88289 4.74692,-8.88094 9.75483,-13.03085 3.25317,-2.6958 6.90408,-5.31589 8.11314,-5.82242 4.47035,-1.87281 24.0385,-4.94495 25.67253,-4.03051 1.2309,0.68885 0.52004,1.03177 -3.14737,1.51827 -4.48313,0.59471 -11.574,3.37427 -8.63946,3.38659 0.7562,0.003 3.19202,0.69974 5.41295,1.54792 3.78934,1.44717 3.94487,1.64509 2.52533,3.21367 -1.41093,1.55905 -1.32095,1.77069 1.33737,3.14536 1.56754,0.81061 3.6494,1.47383 4.62634,1.47383 1.84257,0 4.74574,2.58079 4.74574,4.21875 0,0.51563 -0.63707,1.64146 -1.41571,2.50185 -1.27119,1.40464 -1.21651,1.76357 0.53555,3.51563 1.0732,1.0732 1.95127,2.59 1.95127,3.37067 0,2.40285 4.12092,7.93173 5.92101,7.944 0.93624,0.006 2.49575,0.43627 3.46558,0.9553 1.2864,0.68846 1.96702,0.60302 2.51649,-0.31592 1.18584,-1.9832 6.41692,-0.11486 8.71515,3.11271 1.71301,2.4057 2.22069,2.62625 3.78973,1.64637 1.45833,-0.91075 2.07084,-0.86072 3.14005,0.25647 1.58594,1.65712 0.43968,5.60667 -1.6272,5.60667 -1.36844,0 -2.44805,2.71525 -2.4705,6.21334 -0.007,1.09702 -0.62054,2.49896 -1.36333,3.11542 -0.74279,0.61646 -1.12486,1.82827 -0.84906,2.69291 0.36717,1.15108 0.26865,1.24853 -0.36788,0.36388 -1.0272,-1.42758 -4.1891,-0.37306 -7.52551,2.50983 -2.81433,2.43177 -4.42133,10.19188 -2.19967,10.62209 2.16088,0.41844 -4.72504,3.52747 -11.0728,4.99943 -9.77348,2.26634 -17.85208,2.4637 -23.50956,0.57434 z m 0.52394,-69.11171 c 1.71592,-1.37473 1.686,-1.39424 -0.52394,-0.34176 -2.86971,1.3667 -3.40157,1.79973 -2.21043,1.79973 0.50301,0 1.73348,-0.65608 2.73437,-1.45797 z m 45.53315,54.21559 c 0.70767,-0.88957 2.15263,-2.4716 3.21104,-3.51563 2.57585,-2.54087 6.02193,-11.17742 6.13783,-15.38263 0.0837,-3.038 0.16824,-3.14687 0.81261,-1.04686 0.70221,2.28849 0.75723,2.2569 2.33305,-1.3398 1.59612,-3.64302 1.58976,-3.7021 -0.57824,-5.36978 -3.00244,-2.30954 -3.89688,-2.14604 -3.36892,0.61583 0.5879,3.07541 0.30579,2.96236 -2.02709,-0.81232 -2.11959,-3.42956 -7.86701,-7.66031 -11.72025,-8.62741 -1.33079,-0.334 -2.41961,-0.95499 -2.41961,-1.37997 0,-0.42498 -0.82479,-1.03447 -1.83287,-1.35442 -1.48536,-0.47144 -1.67445,-0.99836 -0.99735,-2.77928 0.45953,-1.20866 0.58119,-2.45187 0.27036,-2.7627 -0.31083,-0.31083 0.0735,-0.56515 0.85409,-0.56515 0.78058,0 1.80011,-0.84991 2.26563,-1.88868 0.81712,-1.82339 0.999,-1.78287 5.26041,1.17187 2.45208,1.7002 7.17731,6.75734 10.6309,11.37762 l 6.21687,8.31706 -2.56897,7.15169 c -3.42292,9.529 -4.60098,11.75121 -8.54245,16.11395 -3.24496,3.59178 -6.51414,5.31612 -3.93704,2.07661 z"
         id="path3632"
         inkscape:connector-curvature="0" />
      <path
         style="fill:#ecba10"
         d="m 732.15015,960.92861 c -8.37748,-2.80393 -18.03842,-8.16988 -21.65471,-12.02761 -1.85541,-1.97928 -4.914,-6.40942 -6.79688,-9.84476 -3.30545,-6.03087 -3.42341,-6.57448 -3.42341,-15.77687 0,-9.20008 0.13286,-9.81286 3.82901,-17.66017 3.21659,-6.82916 4.73891,-8.87912 9.51795,-12.81689 7.10135,-5.85127 8.59423,-6.65588 13.84054,-7.4595 2.32032,-0.35542 5.00986,-0.87154 5.97678,-1.14692 1.13547,-0.3234 1.53086,-0.13315 1.11655,0.53723 -0.35282,0.57087 -0.0892,1.07999 0.58572,1.13139 0.67496,0.0514 0.17252,0.40755 -1.11655,0.79146 -2.16222,0.64394 -2.01699,0.78938 1.875,1.8777 5.7736,1.61449 8.03883,2.88747 6.65741,3.74124 -1.51637,0.93716 -0.34941,3.52341 1.84924,4.09837 1.24415,0.32536 1.73943,1.16473 1.57578,2.67051 -0.20252,1.86339 0.15184,2.16929 2.33945,2.01952 1.9382,-0.13268 2.57812,0.24965 2.57812,1.54033 0,0.94425 -0.63281,1.95965 -1.40625,2.25645 -0.77343,0.29679 -1.40625,0.13099 -1.40625,-0.36845 0,-0.49944 -0.63281,-0.90808 -1.40625,-0.90808 -1.59203,0 -1.88564,1.46806 -0.46875,2.34375 0.51563,0.31868 0.9375,1.4434 0.9375,2.49938 0,1.32148 0.43836,1.75176 1.40625,1.38035 0.81019,-0.3109 1.40625,-0.0176 1.40625,0.6919 0,1.48276 3.2117,4.56043 3.96889,3.80324 0.2945,-0.29451 1.73683,0.97018 3.20517,2.81043 1.46833,1.84024 3.51345,3.35933 4.5447,3.37574 1.03125,0.0164 2.69391,0.64924 3.6948,1.40628 2.22544,1.68323 4.37001,1.79912 3.78562,0.20456 -0.23621,-0.64453 -0.0647,-1.74437 0.38113,-2.44408 1.1695,-1.83545 4.38238,-0.53378 6.69344,2.7118 1.68479,2.36607 2.19183,2.58235 3.75921,1.60351 1.45833,-0.91075 2.07084,-0.86072 3.14005,0.25647 1.58594,1.65712 0.43968,5.60667 -1.6272,5.60667 -1.36844,0 -2.44805,2.71525 -2.4705,6.21334 -0.007,1.09702 -0.62054,2.49896 -1.36333,3.11542 -0.74859,0.62128 -1.09076,1.82151 -0.76771,2.69291 0.32355,0.87273 -0.42351,0.45826 -1.67932,-0.9317 l -2.26215,-2.50378 -4.0014,4.35835 c -2.20077,2.39709 -4.00139,5.09098 -4.00139,5.98642 0,0.89544 -0.84375,2.07964 -1.875,2.63155 -1.03125,0.55191 -1.875,1.62144 -1.875,2.37673 0,0.7553 -0.64766,1.37327 -1.43924,1.37327 -1.16842,0 -1.24233,0.36791 -0.39279,1.95529 0.57554,1.07541 0.90679,2.0585 0.73611,2.18464 -0.86407,0.63857 -11.36347,2.44568 -16.71659,2.87719 -4.48124,0.36123 -7.45818,0.0345 -11.25,-1.23458 z m 31.39252,-17.99227 c -1.05989,-1.71494 -2.11641,-0.92068 -2.53077,1.90256 -0.22747,1.54981 -0.1897,3.04171 0.0839,3.31533 0.76727,0.76727 3.08769,-4.181 2.44685,-5.21789 z m 13.05969,-10.8911 c 0.8323,-2.16893 -0.0777,-4.29528 -2.62907,-6.1433 l -2.19222,-1.58788 1.76087,3.45385 c 0.96848,1.89962 1.55695,3.98526 1.30772,4.63475 -0.24924,0.6495 -0.0897,1.18091 0.35462,1.18091 0.44427,0 1.07341,-0.69225 1.39808,-1.53833 z m -17.97039,-8.22005 c -1.21703,-1.9692 -3.49014,-4.30413 -4.19017,-4.30413 -1.17122,0 -0.853,1.19159 1.23121,4.61039 1.47674,2.42233 2.14704,2.89075 2.74714,1.91976 0.43658,-0.70641 0.5319,-1.70811 0.21182,-2.22602 z M 742.9314,897.02106 c -0.31867,-0.51562 -1.42315,-0.9375 -2.4544,-0.9375 -1.03125,0 -1.61427,0.42188 -1.2956,0.9375 0.31868,0.51563 1.42316,0.9375 2.45441,0.9375 1.03125,0 1.61427,-0.42187 1.29559,-0.9375 z m -5.50427,-2.53552 c -0.77275,-0.77275 -3.40198,0.46504 -3.40198,1.60158 0,0.69334 0.59949,0.67907 1.9553,-0.0465 1.07541,-0.57555 1.72641,-1.27532 1.44668,-1.55506 z M 729.75121,893.71 c 1.0009,-0.75704 2.55803,-1.37644 3.4603,-1.37644 0.90227,0 1.90122,-0.42187 2.21989,-0.9375 1.20615,-1.95159 -4.22051,-0.84397 -6.74459,1.37663 -2.81738,2.47861 -1.96535,3.2289 1.0644,0.93731 z m 32.8677,63.31107 c -0.31868,-0.51563 -0.13264,-0.9375 0.41342,-0.9375 0.54605,0 0.99283,0.42187 0.99283,0.9375 0,0.51562 -0.18604,0.9375 -0.41343,0.9375 -0.22738,0 -0.67415,-0.42188 -0.99282,-0.9375 z m 15.58833,-10.99239 c 0.70767,-0.88957 2.15263,-2.4716 3.21104,-3.51563 2.57585,-2.54087 6.02193,-11.17742 6.13783,-15.38263 0.0837,-3.038 0.16824,-3.14687 0.81261,-1.04686 0.70221,2.28849 0.75723,2.2569 2.33305,-1.3398 1.59612,-3.64302 1.58976,-3.7021 -0.57824,-5.36978 -3.00244,-2.30954 -3.89688,-2.14604 -3.36892,0.61583 0.5879,3.07541 0.30579,2.96236 -2.02709,-0.81232 -2.11959,-3.42956 -7.86701,-7.66031 -11.72025,-8.62741 -1.33079,-0.334 -2.41961,-0.95499 -2.41961,-1.37997 0,-0.42498 -0.82479,-1.03447 -1.83287,-1.35442 -1.48536,-0.47144 -1.67445,-0.99836 -0.99735,-2.77928 0.45953,-1.20866 0.58119,-2.45187 0.27036,-2.7627 -0.31083,-0.31083 0.0735,-0.56515 0.85409,-0.56515 0.78058,0 1.80011,-0.84991 2.26563,-1.88868 0.81712,-1.82339 0.999,-1.78287 5.26041,1.17187 2.45208,1.7002 7.17731,6.75734 10.6309,11.37762 l 6.21687,8.31706 -2.56897,7.15169 c -3.42292,9.529 -4.60098,11.75121 -8.54245,16.11395 -3.24496,3.59178 -6.51414,5.31612 -3.93704,2.07661 z M 748.5564,898.89606 c -0.31867,-0.51562 -0.15753,-0.9375 0.3581,-0.9375 0.51562,0 1.19823,0.42188 1.5169,0.9375 0.31868,0.51563 0.15754,0.9375 -0.35809,0.9375 -0.51562,0 -1.19823,-0.42187 -1.51691,-0.9375 z m -9.84375,-15 c -1.13135,-0.73113 -0.98308,-0.91159 0.75846,-0.92314 1.20709,-0.008 1.90839,0.40037 1.58529,0.92314 -0.69673,1.12734 -0.59931,1.12734 -2.34375,0 z m 5.15625,-0.9375 c -1.66148,-0.71396 -1.58141,-0.81322 0.70313,-0.87161 1.41797,-0.0362 2.57812,0.35599 2.57812,0.87161 0,1.10036 -0.72058,1.10036 -3.28125,0 z"
         id="path3630"
         inkscape:connector-curvature="0" />
      <path
         style="fill:#fda810"
         d="m 732.15015,960.92861 c -8.37748,-2.80393 -18.03842,-8.16988 -21.65471,-12.02761 -1.85541,-1.97928 -4.914,-6.40942 -6.79688,-9.84476 -3.30545,-6.03087 -3.42341,-6.57448 -3.42341,-15.77687 0,-9.20008 0.13286,-9.81286 3.82901,-17.66017 3.21659,-6.82916 4.73891,-8.87912 9.51795,-12.81689 7.10135,-5.85127 8.59423,-6.65588 13.84054,-7.4595 2.32032,-0.35542 5.00986,-0.87154 5.97678,-1.14692 1.13547,-0.3234 1.53086,-0.13315 1.11655,0.53723 -0.35282,0.57087 -0.0892,1.07999 0.58572,1.13139 0.67496,0.0514 0.17252,0.40755 -1.11655,0.79146 -2.16222,0.64394 -2.01699,0.78938 1.875,1.8777 5.7736,1.61449 8.03883,2.88747 6.65741,3.74124 -1.51637,0.93716 -0.34941,3.52341 1.84924,4.09837 1.24415,0.32536 1.73943,1.16473 1.57578,2.67051 -0.20252,1.86339 0.15184,2.16929 2.33945,2.01952 1.9382,-0.13268 2.57812,0.24965 2.57812,1.54033 0,0.94425 -0.63281,1.95965 -1.40625,2.25645 -0.77343,0.29679 -1.40625,0.13099 -1.40625,-0.36845 0,-0.49944 -0.63281,-0.90808 -1.40625,-0.90808 -1.59203,0 -1.88564,1.46806 -0.46875,2.34375 0.51563,0.31868 0.9375,1.4434 0.9375,2.49938 0,1.32148 0.43836,1.75176 1.40625,1.38035 0.81019,-0.3109 1.40625,-0.0176 1.40625,0.6919 0,1.48276 3.2117,4.56043 3.96889,3.80324 0.2945,-0.29451 1.73683,0.97018 3.20517,2.81043 1.46833,1.84024 3.37379,3.34591 4.23435,3.34593 0.86055,10e-6 2.75899,0.61127 4.21875,1.35835 1.45975,0.74709 3.3678,1.56816 4.2401,1.82462 2.21906,0.65241 4.69168,4.72532 4.74433,7.8149 0.0814,4.7786 -0.21579,5.41629 -4.92408,10.56466 -2.57813,2.81909 -4.6875,5.85596 -4.6875,6.74858 0,0.89262 -0.84375,2.07451 -1.875,2.62642 -1.03125,0.55191 -1.875,1.62144 -1.875,2.37673 0,0.7553 -0.64766,1.37327 -1.43924,1.37327 -1.16842,0 -1.24233,0.36791 -0.39279,1.95529 0.57554,1.07541 0.90679,2.0585 0.73611,2.18464 -0.86407,0.63857 -11.36347,2.44568 -16.71659,2.87719 -4.48124,0.36123 -7.45818,0.0345 -11.25,-1.23458 z m 31.39252,-17.99227 c -1.05989,-1.71494 -2.11641,-0.92068 -2.53077,1.90256 -0.22747,1.54981 -0.1897,3.04171 0.0839,3.31533 0.76727,0.76727 3.08769,-4.181 2.44685,-5.21789 z m -4.9107,-19.11115 c -1.21703,-1.9692 -3.49014,-4.30413 -4.19017,-4.30413 -1.17122,0 -0.853,1.19159 1.23121,4.61039 1.47674,2.42233 2.14704,2.89075 2.74714,1.91976 0.43658,-0.70641 0.5319,-1.70811 0.21182,-2.22602 z M 742.9314,897.02106 c -0.31867,-0.51562 -1.42315,-0.9375 -2.4544,-0.9375 -1.03125,0 -1.61427,0.42188 -1.2956,0.9375 0.31868,0.51563 1.42316,0.9375 2.45441,0.9375 1.03125,0 1.61427,-0.42187 1.29559,-0.9375 z m -5.50427,-2.53552 c -0.77275,-0.77275 -3.40198,0.46504 -3.40198,1.60158 0,0.69334 0.59949,0.67907 1.9553,-0.0465 1.07541,-0.57555 1.72641,-1.27532 1.44668,-1.55506 z M 729.75121,893.71 c 1.0009,-0.75704 2.55803,-1.37644 3.4603,-1.37644 0.90227,0 1.90122,-0.42187 2.21989,-0.9375 1.20615,-1.95159 -4.22051,-0.84397 -6.74459,1.37663 -2.81738,2.47861 -1.96535,3.2289 1.0644,0.93731 z m 32.8677,63.31107 c -0.31868,-0.51563 -0.13264,-0.9375 0.41342,-0.9375 0.54605,0 0.99283,0.42187 0.99283,0.9375 0,0.51562 -0.18604,0.9375 -0.41343,0.9375 -0.22738,0 -0.67415,-0.42188 -0.99282,-0.9375 z m 15.58833,-10.99239 c 0.70767,-0.88957 2.15794,-2.4716 3.22282,-3.51563 1.06489,-1.04403 2.93712,-4.42948 4.16051,-7.52323 1.22339,-3.09376 2.5506,-5.85073 2.94935,-6.12661 0.39876,-0.27588 1.41142,-2.14442 2.25037,-4.1523 1.49257,-3.57222 1.47823,-3.68695 -0.66676,-5.33693 -1.20567,-0.92742 -2.92943,-1.6956 -3.83058,-1.70707 -0.90115,-0.0115 -3.64695,-1.46381 -6.10178,-3.22743 -2.45483,-1.76362 -5.61987,-3.49685 -7.03342,-3.85163 -1.41355,-0.35478 -2.57009,-0.99276 -2.57009,-1.41774 0,-0.42498 -0.82479,-1.03447 -1.83287,-1.35442 -1.48536,-0.47144 -1.67445,-0.99836 -0.99735,-2.77928 0.45953,-1.20866 0.58119,-2.45187 0.27036,-2.7627 -0.31083,-0.31083 0.0735,-0.56515 0.85409,-0.56515 0.78058,0 1.80011,-0.84991 2.26563,-1.88868 0.81712,-1.82339 0.999,-1.78287 5.26041,1.17187 2.45208,1.7002 7.17731,6.75734 10.6309,11.37762 l 6.21687,8.31706 -2.56897,7.15169 c -3.42292,9.529 -4.60098,11.75121 -8.54245,16.11395 -3.24496,3.59178 -6.51414,5.31612 -3.93704,2.07661 z M 748.5564,898.89606 c -0.31867,-0.51562 -0.15753,-0.9375 0.3581,-0.9375 0.51562,0 1.19823,0.42188 1.5169,0.9375 0.31868,0.51563 0.15754,0.9375 -0.35809,0.9375 -0.51562,0 -1.19823,-0.42187 -1.51691,-0.9375 z m -9.84375,-15 c -1.13135,-0.73113 -0.98308,-0.91159 0.75846,-0.92314 1.20709,-0.008 1.90839,0.40037 1.58529,0.92314 -0.69673,1.12734 -0.59931,1.12734 -2.34375,0 z m 5.15625,-0.9375 c -1.66148,-0.71396 -1.58141,-0.81322 0.70313,-0.87161 1.41797,-0.0362 2.57812,0.35599 2.57812,0.87161 0,1.10036 -0.72058,1.10036 -3.28125,0 z"
         id="path3628"
         inkscape:connector-curvature="0" />
      <path
         style="fill:#d5ba20"
         d="m 732.15015,960.87403 c -8.21444,-2.66241 -17.99726,-8.07139 -21.65471,-11.97303 -1.85541,-1.97928 -4.914,-6.40942 -6.79688,-9.84476 -3.30545,-6.03087 -3.42341,-6.57448 -3.42341,-15.77687 0,-9.19253 0.13554,-9.8193 3.819,-17.66017 3.10874,-6.61748 4.77412,-8.91399 8.95463,-12.34814 6.92252,-5.68661 9.83988,-7.49314 12.07012,-7.47422 1.73536,0.0147 1.70571,0.14605 -0.39809,1.76322 -1.25021,0.96102 -2.37303,2.4282 -2.49518,3.2604 -0.26389,1.79803 0.0313,1.84667 2.72053,0.44837 1.94181,-1.00966 1.93035,-0.93711 -0.22158,1.40255 -1.24813,1.35701 -2.09188,2.59228 -1.875,2.74505 0.21688,0.15277 2.5037,0.81192 5.08182,1.46478 5.85245,1.482 7.12953,2.62961 4.15199,3.73108 -2.17101,0.80311 -2.06601,0.95499 2.67814,3.8741 4.73062,2.91078 4.91258,3.17234 4.33795,6.23539 -0.50492,2.69146 -0.36052,3.10534 0.91294,2.61667 1.94918,-0.74797 1.95949,1.13439 0.0315,5.74878 -1.36389,3.26425 -1.35458,3.82607 0.11749,7.09052 1.60425,3.55759 3.57198,5.07745 5.23944,4.0469 0.49168,-0.30388 1.48982,-0.058 2.21808,0.54641 0.72827,0.60441 1.76735,0.82499 2.30909,0.49018 0.54173,-0.33481 2.20736,0.26169 3.70141,1.32554 1.49405,1.06386 3.45499,1.93429 4.35765,1.93429 1.54285,0 1.53916,0.11275 -0.0615,1.88145 -0.93648,1.0348 -2.17399,2.82679 -2.75002,3.98219 -0.57603,1.1554 -1.66817,2.12476 -2.42698,2.15412 -0.75881,0.0294 -2.53981,0.54724 -3.95778,1.15085 -2.19976,0.93641 -2.57813,1.6477 -2.57813,4.84661 0,3.25607 0.38784,3.94968 2.94902,5.27412 2.2832,1.18069 2.65362,1.7153 1.64063,2.36783 -1.1084,0.714 -1.09464,0.98016 0.09,1.74129 1.95295,1.25475 0.23135,2.78111 -4.33067,3.83955 -5.22803,1.21296 -8.57203,1.0076 -14.4115,-0.88505 z m 46.05709,-14.84535 c 0.70767,-0.88957 2.15794,-2.4716 3.22282,-3.51563 1.06489,-1.04403 2.93712,-4.42948 4.16051,-7.52323 1.22339,-3.09376 2.5506,-5.85073 2.94935,-6.12661 0.39876,-0.27588 1.41142,-2.14442 2.25037,-4.1523 1.49257,-3.57222 1.47823,-3.68695 -0.66676,-5.33693 -1.20567,-0.92742 -2.92943,-1.6956 -3.83058,-1.70707 -0.90115,-0.0115 -3.64695,-1.46381 -6.10178,-3.22743 -2.45483,-1.76362 -5.61987,-3.49685 -7.03342,-3.85163 -1.41355,-0.35478 -2.57009,-0.99276 -2.57009,-1.41774 0,-0.42498 -0.82479,-1.03447 -1.83287,-1.35442 -1.48536,-0.47144 -1.67445,-0.99836 -0.99735,-2.77928 0.45953,-1.20866 0.58119,-2.45187 0.27036,-2.7627 -0.31083,-0.31083 0.0735,-0.56515 0.85409,-0.56515 0.78058,0 1.80011,-0.84991 2.26563,-1.88868 0.81712,-1.82339 0.999,-1.78287 5.26041,1.17187 2.45208,1.7002 7.17731,6.75734 10.6309,11.37762 l 6.21687,8.31706 -2.56897,7.15169 c -3.42292,9.529 -4.60098,11.75121 -8.54245,16.11395 -3.24496,3.59178 -6.51414,5.31612 -3.93704,2.07661 z"
         id="path3626"
         inkscape:connector-curvature="0" />
      <path
         style="fill:#daba11"
         d="m 732.15015,960.87403 c -8.21444,-2.66241 -17.99726,-8.07139 -21.65471,-11.97303 -1.85541,-1.97928 -4.914,-6.40942 -6.79688,-9.84476 -3.30545,-6.03087 -3.42341,-6.57448 -3.42341,-15.77687 0,-9.19253 0.13554,-9.8193 3.819,-17.66017 3.10874,-6.61748 4.77412,-8.91399 8.95463,-12.34814 6.92252,-5.68661 9.83988,-7.49314 12.07012,-7.47422 1.73536,0.0147 1.70571,0.14605 -0.39809,1.76322 -1.25021,0.96102 -2.37303,2.4282 -2.49518,3.2604 -0.26389,1.79803 0.0313,1.84667 2.72053,0.44837 1.94181,-1.00966 1.93035,-0.93711 -0.22158,1.40255 -1.24813,1.35701 -2.09188,2.59228 -1.875,2.74505 0.21688,0.15277 2.5037,0.81192 5.08182,1.46478 5.85245,1.482 7.12953,2.62961 4.15199,3.73108 -2.17101,0.80311 -2.06601,0.95499 2.67814,3.8741 4.73062,2.91078 4.91258,3.17234 4.33795,6.23539 -0.50492,2.69146 -0.36052,3.10534 0.91294,2.61667 1.94918,-0.74797 1.95949,1.13439 0.0315,5.74878 -1.36389,3.26425 -1.35458,3.82607 0.11749,7.09052 1.60425,3.55759 3.57198,5.07745 5.23944,4.0469 0.49168,-0.30388 1.48982,-0.058 2.21808,0.54641 0.72827,0.60441 1.76735,0.82499 2.30909,0.49018 0.54173,-0.33481 2.20736,0.26169 3.70141,1.32554 1.49405,1.06386 3.45499,1.93429 4.35765,1.93429 1.54285,0 1.53916,0.11275 -0.0615,1.88145 -0.93648,1.0348 -2.17399,2.82679 -2.75002,3.98219 -0.57603,1.1554 -1.66817,2.12476 -2.42698,2.15412 -0.75881,0.0294 -2.53981,0.54724 -3.95778,1.15085 -2.19976,0.93641 -2.57813,1.6477 -2.57813,4.84661 0,3.25607 0.38784,3.94968 2.94902,5.27412 2.2832,1.18069 2.65362,1.7153 1.64063,2.36783 -1.1084,0.714 -1.09464,0.98016 0.09,1.74129 1.95295,1.25475 0.23135,2.78111 -4.33067,3.83955 -5.22803,1.21296 -8.57203,1.0076 -14.4115,-0.88505 z m 51.56868,-19.89982 c -0.007,-1.80878 3.81954,-11.39499 4.83483,-12.111 0.3912,-0.27588 1.39768,-2.14442 2.23663,-4.1523 1.49257,-3.57222 1.47823,-3.68695 -0.66676,-5.33693 -1.20567,-0.92742 -2.92477,-1.6956 -3.82023,-1.70707 -1.90339,-0.0244 -8.51663,-4.48912 -9.92755,-6.70231 -0.53478,-0.83887 -1.26298,-3.07451 -1.61822,-4.9681 -0.64022,-3.41265 -0.62225,-3.43723 2.04524,-2.79864 3.64686,0.87304 4.25127,1.4332 10.77498,9.98631 l 5.67838,7.44481 -2.94603,8.17018 c -3.03294,8.41119 -6.5799,14.96296 -6.59127,12.17505 z"
         id="path3624"
         inkscape:connector-curvature="0" />
      <path
         style="fill:#fe9710"
         d="m 732.15015,960.87403 c -8.21444,-2.66241 -17.99726,-8.07139 -21.65471,-11.97303 -1.85541,-1.97928 -4.914,-6.40942 -6.79688,-9.84476 -3.30545,-6.03087 -3.42341,-6.57448 -3.42341,-15.77687 0,-9.19253 0.13554,-9.8193 3.819,-17.66017 3.10874,-6.61748 4.77412,-8.91399 8.95463,-12.34814 6.92252,-5.68661 9.83988,-7.49314 12.07012,-7.47422 1.73536,0.0147 1.70571,0.14605 -0.39809,1.76322 -1.25021,0.96102 -2.37303,2.4282 -2.49518,3.2604 -0.26389,1.79803 0.0313,1.84667 2.72053,0.44837 1.94181,-1.00966 1.93035,-0.93711 -0.22158,1.40255 -1.24813,1.35701 -2.09188,2.59228 -1.875,2.74505 0.21688,0.15277 2.5037,0.81192 5.08182,1.46478 5.85245,1.482 7.12953,2.62961 4.15199,3.73108 -2.17101,0.80311 -2.06601,0.95499 2.67814,3.8741 4.73062,2.91078 4.91258,3.17234 4.33795,6.23539 -0.50492,2.69146 -0.36052,3.10534 0.91294,2.61667 1.94918,-0.74797 1.95949,1.13439 0.0315,5.74878 -1.36389,3.26425 -1.35458,3.82607 0.11749,7.09052 1.60425,3.55759 3.57198,5.07745 5.23944,4.0469 0.49168,-0.30388 1.48982,-0.058 2.21808,0.54641 0.72827,0.60441 1.76735,0.82499 2.30909,0.49018 0.54173,-0.33481 2.20736,0.26169 3.70141,1.32554 1.49405,1.06386 3.45499,1.93429 4.35765,1.93429 1.54285,0 1.53916,0.11275 -0.0615,1.88145 -0.93648,1.0348 -2.17399,2.82679 -2.75002,3.98219 -0.57603,1.1554 -1.66817,2.12476 -2.42698,2.15412 -0.75881,0.0294 -2.53981,0.54724 -3.95778,1.15085 -2.19976,0.93641 -2.57813,1.6477 -2.57813,4.84661 0,3.25607 0.38784,3.94968 2.94902,5.27412 2.2832,1.18069 2.65362,1.7153 1.64063,2.36783 -1.1084,0.714 -1.09464,0.98016 0.09,1.74129 1.95295,1.25475 0.23135,2.78111 -4.33067,3.83955 -5.22803,1.21296 -8.57203,1.0076 -14.4115,-0.88505 z m 54.40372,-24.00921 c 0,-0.51563 0.40895,-1.57032 0.90879,-2.34375 0.49983,-0.77344 0.90879,-0.98438 0.90879,-0.46875 0,0.51562 -0.40896,1.57031 -0.90879,2.34375 -0.49984,0.77343 -0.90879,0.98437 -0.90879,0.46875 z m 1.0393,-22.06245 c -1.21728,-1.01409 -2.90478,-1.86111 -3.75,-1.88226 -2.10485,-0.0527 -9.50551,-6.88742 -9.50551,-8.77866 0,-1.19461 0.56661,-1.39575 2.57812,-0.91523 1.41797,0.33873 3.13017,1.05174 3.80488,1.58445 1.15055,0.9084 9.80291,11.93431 9.31216,11.8667 -0.12453,-0.0172 -1.22237,-0.8609 -2.43965,-1.875 z"
         id="path3622"
         inkscape:connector-curvature="0" />
      <path
         style="fill:#fe8a10"
         d="m 732.15015,960.87403 c -8.21444,-2.66241 -17.99726,-8.07139 -21.65471,-11.97303 -1.85541,-1.97928 -4.914,-6.40942 -6.79688,-9.84476 -3.30545,-6.03087 -3.42341,-6.57448 -3.42341,-15.77687 0,-9.19172 0.13582,-9.81999 3.81794,-17.66017 2.86783,-6.10638 4.75549,-8.82928 7.58548,-10.94189 2.07215,-1.54687 4.6783,-3.69755 5.79144,-4.77927 2.36934,-2.30247 5.6126,-4.12698 7.33614,-4.12698 0.66921,0 -0.46321,1.13669 -2.5165,2.52598 -4.55501,3.082 -5.65952,4.18032 -5.63057,5.59902 0.0362,1.77354 1.42857,2.65169 1.42857,0.90098 0,-1.41183 0.24019,-1.37525 2.05178,0.3125 1.12847,1.05134 2.60504,1.91152 3.28125,1.91152 0.67621,0 1.22947,0.36337 1.22947,0.8075 0,0.44412 0.94922,0.64507 2.10938,0.44655 2.75439,-0.47131 5.44564,1.21986 3.71824,2.33653 -1.85512,1.19924 -0.34473,3.75401 3.21923,5.44522 3.18695,1.51231 3.21412,1.57752 2.82963,6.79246 -0.21352,2.89602 -0.50382,5.68737 -0.6451,6.20299 -0.14128,0.51563 0.0763,2.7701 0.48353,5.00994 0.61357,3.37487 1.47088,4.60256 5.00496,7.16724 2.34552,1.70214 4.77843,2.89761 5.40649,2.65661 0.62805,-0.24101 2.4539,0.24026 4.05745,1.06949 2.88279,1.49074 2.8969,1.5333 1.25649,3.78837 -0.91247,1.25437 -2.37586,2.29394 -3.25196,2.31014 -0.8761,0.0162 -2.71664,1.50274 -4.09008,3.30342 -3.29427,4.31901 -2.65155,8.30613 1.95857,12.15 l 3.30802,2.75819 -3.47483,1.69018 c -4.29746,2.09032 -7.74867,2.07068 -14.39002,-0.0819 z m -0.9375,-39.47797 c 0,-0.51562 -0.42187,-0.9375 -0.9375,-0.9375 -0.51562,0 -0.9375,0.42188 -0.9375,0.9375 0,0.51563 0.42188,0.9375 0.9375,0.9375 0.51563,0 0.9375,-0.42187 0.9375,-0.9375 z m 55.34122,15.46876 c 0,-0.51563 0.40895,-1.57032 0.90879,-2.34375 0.49983,-0.77344 0.90879,-0.98438 0.90879,-0.46875 0,0.51562 -0.40896,1.57031 -0.90879,2.34375 -0.49984,0.77343 -0.90879,0.98437 -0.90879,0.46875 z m 1.0393,-22.06245 c -1.21728,-1.01409 -2.90478,-1.86111 -3.75,-1.88226 -2.10485,-0.0527 -9.50551,-6.88742 -9.50551,-8.77866 0,-1.19461 0.56661,-1.39575 2.57812,-0.91523 1.41797,0.33873 3.13017,1.05174 3.80488,1.58445 1.15055,0.9084 9.80291,11.93431 9.31216,11.8667 -0.12453,-0.0172 -1.22237,-0.8609 -2.43965,-1.875 z"
         id="path3620"
         inkscape:connector-curvature="0" />
      <path
         style="fill:#cbb911"
         d="m 732.15015,960.87403 c -8.21444,-2.66241 -17.99726,-8.07139 -21.65471,-11.97303 -1.85541,-1.97928 -4.914,-6.40942 -6.79688,-9.84476 -3.30694,-6.03359 -3.42341,-6.57109 -3.42341,-15.79936 0,-9.158 0.15241,-9.87851 3.68342,-17.4135 3.71243,-7.92211 6.6188,-11.39364 11.78533,-14.07705 l 2.8125,-1.46076 -2.8125,2.48806 c -1.54687,1.36843 -2.28516,2.22171 -1.64062,1.89617 0.64453,-0.32554 1.17187,-0.14512 1.17187,0.40093 0,0.54606 1.43143,0.99283 3.18095,0.99283 1.96267,0 3.38762,0.53858 3.72058,1.40625 0.34626,0.90234 1.79315,1.40625 4.0378,1.40625 2.59736,0 3.22578,0.2724 2.44036,1.05781 -0.78541,0.78541 -0.77334,1.57002 0.0469,3.04688 0.60757,1.09398 1.17149,2.12619 1.25315,2.29378 0.0817,0.1676 0.77738,0.39703 1.54605,0.50984 3.98573,0.58499 4.42006,2.31978 3.31675,13.24794 -0.73689,7.29887 -0.095,8.64027 6.32769,13.22341 3.82954,2.7327 6.41872,4.03 6.80281,3.40853 0.42372,-0.68558 1.18189,-0.59257 2.39391,0.29368 1.43328,1.04804 1.55396,1.56192 0.62864,2.67686 -0.62983,0.7589 -1.69324,1.16951 -2.36312,0.91245 -0.70287,-0.26972 -2.72333,1.58335 -4.7775,4.38169 -3.00132,4.08861 -3.38766,5.12432 -2.4635,6.60414 0.60283,0.96528 1.09605,2.39359 1.09605,3.17403 0,0.78043 0.36028,1.41897 0.80061,1.41897 1.26346,0 5.70945,4.42745 5.07903,5.05786 -0.31192,0.31192 -1.55151,0.56714 -2.75464,0.56714 -1.20312,0 -2.1875,0.42187 -2.1875,0.9375 0,1.43483 -5.50909,1.02616 -11.25,-0.83454 z m -0.9375,-6.66546 c -1.13949,-2.12916 -2.8125,-2.50094 -2.8125,-0.625 0,1.60137 0.91049,2.5 2.53299,2.5 0.99247,0 1.05576,-0.42456 0.27951,-1.875 z m 9.7781,1.04372 c 0.28257,-0.4572 -0.11441,-1.35261 -0.88217,-1.98979 -1.11057,-0.92169 -1.69246,-0.91241 -2.84655,0.0454 -1.15866,0.9616 -1.20583,1.3592 -0.23438,1.97544 1.60154,1.01593 3.32438,1.00244 3.9631,-0.031 z m -17.2781,-33.38748 c 0,-1.45833 -0.53125,-2.34375 -1.40625,-2.34375 -0.875,0 -1.40625,0.88542 -1.40625,2.34375 0,1.45834 0.53125,2.34375 1.40625,2.34375 0.875,0 1.40625,-0.88541 1.40625,-2.34375 z m 9.375,0.58355 c 0,-2.11135 -2.33839,-4.26847 -3.70893,-3.42143 -1.36045,0.84081 -1.22708,3.98761 0.19331,4.56075 2.36239,0.95324 3.51562,0.57951 3.51562,-1.13932 z m 53.46622,14.41646 c 0,-0.51563 0.40895,-1.57032 0.90879,-2.34375 0.49983,-0.77344 0.90879,-0.98438 0.90879,-0.46875 0,0.51562 -0.40896,1.57031 -0.90879,2.34375 -0.49984,0.77343 -0.90879,0.98437 -0.90879,0.46875 z m 1.0393,-22.06245 c -1.21728,-1.01409 -2.90478,-1.86111 -3.75,-1.88226 -2.10485,-0.0527 -9.50551,-6.88742 -9.50551,-8.77866 0,-1.19461 0.56661,-1.39575 2.57812,-0.91523 1.41797,0.33873 3.13017,1.05174 3.80488,1.58445 1.15055,0.9084 9.80291,11.93431 9.31216,11.8667 -0.12453,-0.0172 -1.22237,-0.8609 -2.43965,-1.875 z M 718.5915,889.57784 c -0.31084,-0.50293 0.75347,-1.59631 2.36512,-2.42973 3.79172,-1.96078 4.12911,-1.46163 0.82323,1.21793 -1.49391,1.21088 -2.8665,1.73257 -3.18835,1.2118 z"
         id="path3618"
         inkscape:connector-curvature="0" />
      <path
         style="fill:#fd8610"
         d="m 732.15015,960.87403 c -8.21444,-2.66241 -17.99726,-8.07139 -21.65471,-11.97303 -1.85541,-1.97928 -4.914,-6.40942 -6.79688,-9.84476 -3.30694,-6.03359 -3.42341,-6.57109 -3.42341,-15.79936 0,-9.158 0.15241,-9.87851 3.68342,-17.4135 3.71243,-7.92211 6.6188,-11.39364 11.78533,-14.07705 l 2.8125,-1.46076 -2.8125,2.48806 c -1.54687,1.36843 -2.28516,2.22171 -1.64062,1.89617 0.64453,-0.32554 1.17187,-0.14512 1.17187,0.40093 0,0.54606 1.43143,0.99283 3.18095,0.99283 1.96267,0 3.38762,0.53858 3.72058,1.40625 0.34626,0.90234 1.79315,1.40625 4.0378,1.40625 2.59736,0 3.22578,0.2724 2.44036,1.05781 -0.78541,0.78541 -0.77334,1.57002 0.0469,3.04688 0.60757,1.09398 1.17149,2.12619 1.25315,2.29378 0.0817,0.1676 0.77738,0.39703 1.54605,0.50984 3.98573,0.58499 4.42006,2.31978 3.31675,13.24794 -0.73689,7.29887 -0.095,8.64027 6.32769,13.22341 3.82954,2.7327 6.41872,4.03 6.80281,3.40853 0.42372,-0.68558 1.18189,-0.59257 2.39391,0.29368 1.43328,1.04804 1.55396,1.56192 0.62864,2.67686 -0.62983,0.7589 -1.69324,1.16951 -2.36312,0.91245 -0.70287,-0.26972 -2.72333,1.58335 -4.7775,4.38169 -3.00132,4.08861 -3.38766,5.12432 -2.4635,6.60414 0.60283,0.96528 1.09605,2.39359 1.09605,3.17403 0,0.78043 0.36028,1.41897 0.80061,1.41897 1.26346,0 5.70945,4.42745 5.07903,5.05786 -0.31192,0.31192 -1.55151,0.56714 -2.75464,0.56714 -1.20312,0 -2.1875,0.42187 -2.1875,0.9375 0,1.43483 -5.50909,1.02616 -11.25,-0.83454 z m -0.9375,-6.66546 c -1.13949,-2.12916 -2.8125,-2.50094 -2.8125,-0.625 0,1.60137 0.91049,2.5 2.53299,2.5 0.99247,0 1.05576,-0.42456 0.27951,-1.875 z m 9.7781,1.04372 c 0.28257,-0.4572 -0.11441,-1.35261 -0.88217,-1.98979 -1.11057,-0.92169 -1.69246,-0.91241 -2.84655,0.0454 -1.15866,0.9616 -1.20583,1.3592 -0.23438,1.97544 1.60154,1.01593 3.32438,1.00244 3.9631,-0.031 z m -17.2781,-33.38748 c 0,-1.45833 -0.53125,-2.34375 -1.40625,-2.34375 -0.875,0 -1.40625,0.88542 -1.40625,2.34375 0,1.45834 0.53125,2.34375 1.40625,2.34375 0.875,0 1.40625,-0.88541 1.40625,-2.34375 z m 9.375,0.58355 c 0,-2.11135 -2.33839,-4.26847 -3.70893,-3.42143 -1.36045,0.84081 -1.22708,3.98761 0.19331,4.56075 2.36239,0.95324 3.51562,0.57951 3.51562,-1.13932 z M 718.5915,889.57784 c -0.31084,-0.50293 0.75347,-1.59631 2.36512,-2.42973 3.79172,-1.96078 4.12911,-1.46163 0.82323,1.21793 -1.49391,1.21088 -2.8665,1.73257 -3.18835,1.2118 z"
         id="path3616"
         inkscape:connector-curvature="0" />
      <path
         style="fill:#fd7b10"
         d="m 722.23836,956.65989 c -9.54589,-4.68905 -13.54006,-8.48154 -18.5398,-17.60365 -3.30545,-6.03087 -3.42341,-6.57448 -3.42341,-15.77687 0,-9.21209 0.13057,-9.81182 3.90495,-17.93539 2.86732,-6.17133 4.27347,-8.26319 5.29183,-7.87241 0.76278,0.29271 2.12774,-0.13827 3.03323,-0.95773 1.09368,-0.98976 1.85423,-1.15355 2.26562,-0.48791 0.34061,0.55111 1.60209,0.75534 2.8033,0.45386 2.48032,-0.62252 4.09237,0.98411 1.85058,1.84437 -1.19113,0.45708 -1.36835,1.64518 -0.94877,6.36074 0.54513,6.1266 1.62875,7.65099 4.89484,6.88587 1.59777,-0.37429 2.1036,0.0496 2.50601,2.10005 0.2773,1.41295 0.11475,2.96977 -0.36121,3.45962 -0.53649,0.55214 -0.86538,0.10677 -0.86538,-1.17188 0,-2.65602 -0.88134,-2.58349 -3.61402,0.29745 -1.21428,1.28015 -2.58537,2.32755 -3.04688,2.32755 -0.4615,0 -0.8391,0.83051 -0.8391,1.84558 0,1.25535 0.44973,1.673 1.40625,1.30595 0.87733,-0.33666 1.40625,0.007 1.40625,0.91376 0,0.79937 0.76606,2.00466 1.70236,2.67843 0.93631,0.67377 2.04011,2.06878 2.4529,3.10003 0.44841,1.12022 0.92026,1.42273 1.17215,0.75148 0.32108,-0.85562 0.9805,-0.86888 2.76547,-0.0556 2.47938,1.12968 5.03212,6.03809 5.03212,9.67577 0,1.19566 0.42188,2.43466 0.9375,2.75334 1.43073,0.88423 1.11639,5.7157 -0.45681,7.02134 -0.76687,0.63644 -1.96857,0.93681 -2.67045,0.66747 -0.81059,-0.31105 -1.73052,0.66834 -2.52166,2.68466 -0.98121,2.50073 -1.51328,2.95215 -2.50726,2.12722 -0.9832,-0.81598 -1.13731,-0.72288 -0.69809,0.42171 0.50373,1.31268 5.77045,2.89234 9.94144,2.98175 3.39285,0.0727 2.73759,1.44053 -0.69654,1.45395 -2.71601,0.0106 -3.3058,0.25093 -2.26563,0.92315 1.23445,0.79776 1.22613,0.91054 -0.068,0.92314 -0.81086,0.008 -5.24055,-1.83567 -9.84375,-4.09682 z M 710.1189,913.89606 c 0.31867,-0.51562 0.13263,-0.9375 -0.41342,-0.9375 -0.54606,0 -0.99283,0.42188 -0.99283,0.9375 0,0.51563 0.18604,0.9375 0.41342,0.9375 0.22738,0 0.67416,-0.42187 0.99283,-0.9375 z m 7.03125,-0.9375 c 0.55191,-1.03125 0.84308,-1.875 0.64704,-1.875 -0.19604,0 -1.12002,0.84375 -2.05329,1.875 -0.93327,1.03125 -1.22443,1.875 -0.64703,1.875 0.57739,0 1.50137,-0.84375 2.05328,-1.875 z m -2.34375,-11.25 c 0.31868,-0.51562 0.13264,-0.9375 -0.41342,-0.9375 -0.54606,0 -0.99283,0.42188 -0.99283,0.9375 0,0.51563 0.18604,0.9375 0.41342,0.9375 0.22738,0 0.67416,-0.42187 0.99283,-0.9375 z m 28.06981,57.63503 c -1.73592,-1.36168 -1.6935,-1.41569 0.92039,-1.17187 1.50712,0.14058 2.91337,0.78294 3.125,1.42747 0.53193,1.61994 -1.84589,1.46971 -4.04539,-0.2556 z m -11.52939,-46.30182 c -0.88004,-0.54409 -1.07378,-1.68938 -0.62864,-3.71609 0.77961,-3.54953 3.04154,-3.84486 3.87941,-0.50652 0.71691,2.8564 -1.27519,5.44404 -3.25077,4.22261 z"
         id="path3614"
         inkscape:connector-curvature="0" />
      <path
         style="fill:#fd7510"
         d="m 744.33765,959.83357 c -0.74357,-0.45956 -1.04073,-1.14677 -0.66035,-1.52715 0.38038,-0.38038 1.18379,-0.19942 1.78535,0.40215 1.41648,1.41648 0.62587,2.20709 -1.125,1.125 z m -19.45312,-1.69862 c -1.73217,-0.82664 -3.04688,-2.16584 -3.04688,-3.10364 0,-0.90727 -0.46707,-1.93825 -1.03794,-2.29107 -0.70307,-0.43452 -0.82765,0.0211 -0.38615,1.41212 l 0.65179,2.05359 -3.59823,-1.85675 c -4.90712,-2.53217 -9.68025,-7.83377 -13.76856,-15.29296 -3.30545,-6.03087 -3.42341,-6.57448 -3.42341,-15.77687 0,-9.20718 0.13216,-9.81524 3.8924,-17.90839 2.14083,-4.60769 4.07344,-8.19658 4.29471,-7.97531 0.22127,0.22127 -0.077,1.38766 -0.66287,2.59197 -0.99202,2.03929 -0.96865,2.06962 0.34038,0.44154 1.81012,-2.2513 6.54322,-4.71584 6.91496,-3.60064 0.15721,0.47163 1.43127,0.68222 2.83125,0.46799 2.16266,-0.33095 2.29871,-0.23297 0.9048,0.65159 -1.69019,1.07256 -2.40434,7.51044 -0.83313,7.51044 1.37063,0 0.0336,4.48414 -1.84357,6.18296 -1.834,1.65974 -2.40414,4.12954 -0.95328,4.12954 0.45274,0 1.40195,-0.87117 2.10938,-1.93594 0.8614,-1.29652 1.8281,-1.72786 2.92685,-1.30595 1.62822,0.62523 2.33842,3.24189 0.8799,3.24189 -1.54567,0 -4.86428,3.8826 -4.86428,5.69095 0,1.02734 0.7196,2.14404 1.59911,2.48154 2.61034,1.00168 5.07364,3.39074 6.04031,5.85825 0.66949,1.70892 1.10514,1.98935 1.67018,1.07508 0.57599,-0.93197 1.22889,-0.98834 2.64838,-0.22865 2.05784,1.10132 2.87108,2.63009 4.05501,7.62284 0.42795,1.80468 1.06567,4.48628 1.41716,5.95909 0.69364,2.90654 -0.8356,4.65981 -3.37684,3.87155 -0.90347,-0.28025 -1.86526,0.57715 -2.65905,2.37046 -0.68399,1.54524 -1.62907,2.57129 -2.10019,2.28013 -1.25242,-0.77404 -1.0477,2.2683 0.24582,3.65302 0.60632,0.64906 2.29382,1.00524 3.75,0.79152 2.76393,-0.40566 3.68197,1.10171 1.24136,2.03825 -0.77343,0.2968 -1.41271,0.0255 -1.4206,-0.60282 -0.0102,-0.81456 -0.21204,-0.84121 -0.70313,-0.0929 -0.49396,0.75275 -1.55051,0.63835 -3.73564,-0.40446 z m -10.48167,-38.61389 c 0.47976,0 0.87229,-0.68447 0.87229,-1.52104 0,-1.24574 -0.25452,-1.3098 -1.40625,-0.35396 -0.77344,0.6419 -1.3488,2.27559 -1.27858,3.63042 0.11445,2.20815 0.16976,2.24482 0.53396,0.35396 0.22345,-1.16016 0.79881,-2.10938 1.27858,-2.10938 z m -4.13872,-5.19668 c 0.7592,-1.97844 -0.50798,-3.04659 -1.58811,-1.33867 -1.14769,1.81477 -1.12468,2.78535 0.066,2.78535 0.53181,0 1.21674,-0.651 1.52207,-1.44668 z m -2.67005,-2.79687 c -0.28864,-0.28865 -0.81285,0.23166 -1.16491,1.15625 -0.50877,1.33612 -0.40109,1.4438 0.5248,0.5248 0.64071,-0.63593 0.92876,-1.39241 0.64011,-1.68105 z m 8.61856,-10.87124 c 0,-0.45249 -0.58768,-0.82271 -1.30595,-0.82271 -1.40773,0 -2.66845,2.2756 -1.76259,3.18146 0.66115,0.66115 3.06854,-1.18939 3.06854,-2.35875 z m 15.22258,11.21237 c -0.72337,-0.72337 -0.7271,-1.64713 -0.013,-3.21443 1.20021,-2.63417 2.60291,-2.08282 2.60291,1.0231 0,2.63259 -1.16389,3.61736 -2.58992,2.19133 z"
         id="path3612"
         inkscape:connector-curvature="0" />
      <path
         style="fill:#f36b10"
         d="m 712.01183,950.375 c -2.28742,-2.10846 -5.86393,-6.94016 -7.94781,-10.73709 -3.7078,-6.75581 -3.78887,-7.10239 -3.78887,-16.19767 0,-7.39006 0.41419,-10.29079 2.02173,-14.15896 1.39432,-3.3551 2.26267,-4.48491 2.79814,-3.64064 0.42703,0.6733 0.83279,0.8023 0.90169,0.28667 0.0689,-0.51562 0.42247,0.32813 0.78571,1.875 0.36323,1.54688 0.24425,3.65625 -0.26441,4.6875 -0.85082,1.72496 -0.78919,1.76306 0.77013,0.4761 1.56263,-1.28967 1.64288,-1.23477 1.02781,0.70313 -0.36693,1.15611 -0.32232,2.10531 0.0992,2.10934 1.00169,0.01 3.11005,4.58014 3.11005,6.74209 0,1.14943 0.70674,1.68809 2.21484,1.68809 4.58371,0 14.65985,9.75107 16.15306,15.63195 1.05162,4.14168 1.03611,4.18728 -2.90224,8.53733 -3.65051,4.03211 -4.14416,4.28927 -6.32572,3.29528 -2.12512,-0.96827 -2.31808,-0.89402 -1.89374,0.72866 0.79552,3.04207 -2.2517,2.12839 -6.75952,-2.02678 z"
         id="path3610"
         inkscape:connector-curvature="0" />
      <path
         style="fill:#ed6510"
         d="m 714.8064,952.44885 c -4.09706,-2.55322 -7.23108,-6.33307 -11.10432,-13.39261 -3.28649,-5.99011 -3.42693,-6.62277 -3.42693,-15.43741 0,-10.34872 1.8609,-17.17792 4.62413,-16.96977 1.22122,0.092 1.57538,0.92058 1.47446,3.44966 -0.073,1.83073 0.30108,3.61924 0.83139,3.97448 0.60965,0.40838 0.33281,1.34359 -0.75283,2.54321 -1.16451,1.28677 -1.47219,2.4365 -0.95613,3.57286 0.6352,1.3987 0.82006,1.24038 1.11884,-0.95816 0.49865,-3.66933 2.22026,-2.69328 3.93349,2.23003 1.14078,3.27828 1.84686,4.09618 3.35029,3.88089 1.04769,-0.15003 2.61014,0.48278 3.47211,1.40625 1.80375,1.93244 3.8417,3.88732 8.59175,8.24154 4.28562,3.92848 4.75069,8.79066 1.03125,10.78125 -1.28906,0.68988 -2.34375,1.98166 -2.34375,2.87061 0,2.07143 -2.44602,3.01649 -4.69378,1.81352 -2.45944,-1.31625 -2.60107,-1.2211 -2.09817,1.40962 0.53577,2.8027 0.51483,2.8067 -3.0518,0.58403 z m 13.59375,-11.77871 c 0,-0.22738 -0.42187,-0.67415 -0.9375,-0.99282 -0.51562,-0.31868 -0.9375,-0.13264 -0.9375,0.41342 0,0.54605 0.42188,0.99283 0.9375,0.99283 0.51563,0 0.9375,-0.18604 0.9375,-0.41343 z"
         id="path3608"
         inkscape:connector-curvature="0" />
      <path
         style="fill:#ed5510"
         d="m 709.50248,947.88044 c -1.30541,-1.41797 -3.91559,-5.38886 -5.8004,-8.8242 -3.3321,-6.07325 -3.42584,-6.51425 -3.38763,-15.93751 0.0306,-7.54796 0.41987,-10.40606 1.76002,-12.92263 l 1.72073,-3.23121 0.56612,2.76246 c 0.31136,1.51936 0.41485,3.97969 0.22997,5.46741 -0.49485,3.98202 0.74786,7.65381 2.48771,7.35034 0.97358,-0.16982 1.68624,0.70619 2.09738,2.57812 0.34251,1.55944 1.0111,2.83534 1.48576,2.83534 0.47466,0 0.86301,0.59332 0.86301,1.31849 0,0.85692 0.65638,1.14683 1.875,0.82815 1.15823,-0.30288 1.875,-0.0288 1.875,0.71708 0,0.66407 0.66591,1.94322 1.47981,2.84256 1.35069,1.4925 1.33556,1.85532 -0.17339,4.15827 -1.4095,2.15117 -1.4549,2.64261 -0.30794,3.33382 3.24812,1.95747 3.59037,2.44514 3.08154,4.39091 -0.43969,1.68135 -0.85798,1.88164 -2.3085,1.10534 -1.86334,-0.99722 -2.11732,-0.65508 -1.78091,2.39914 0.20475,1.85887 0.18921,1.85933 -1.80738,0.0526 -1.69709,-1.53573 -1.91805,-1.5726 -1.40452,-0.23437 0.86072,2.24301 0.1829,1.97998 -2.55138,-0.99007 z"
         id="path3606"
         inkscape:connector-curvature="0" />
      <path
         style="fill:#ec4410"
         d="m 708.5454,946.94869 c -0.77317,-0.90551 -2.95027,-4.45711 -4.838,-7.89245 -3.33146,-6.06266 -3.43183,-6.53068 -3.41789,-15.93751 0.0158,-10.69545 1.21102,-14.94746 2.25141,-8.00967 0.3476,2.31801 0.35615,5.31367 0.019,6.65703 -0.36584,1.45762 -0.22032,2.44247 0.3609,2.44247 0.53566,0 1.10874,0.94922 1.27351,2.10938 0.2,1.40823 0.84491,2.01781 1.94021,1.8339 0.97299,-0.16337 1.64062,0.31351 1.64062,1.17188 0,0.79604 0.42188,1.44734 0.9375,1.44734 0.51563,0 0.9375,0.63282 0.9375,1.40625 0,0.77344 0.42188,1.40626 0.9375,1.40626 0.51563,0 0.9375,0.63281 0.9375,1.40625 0,0.77343 0.37269,1.40625 0.82821,1.40625 0.45551,0 1.05299,1.16015 1.32773,2.57812 0.59747,3.08372 -1.79069,6.39209 -3.55638,4.9267 -1.82601,-1.51546 -2.48379,0.16796 -0.79485,2.03422 0.85734,0.94735 1.34786,1.93339 1.09005,2.1912 -0.25782,0.25781 -1.10134,-0.27212 -1.87451,-1.17762 z"
         id="path3604"
         inkscape:connector-curvature="0" />
      <path
         style="fill:#e23910"
         d="m 700.95874,933.95466 c -0.37597,-0.37598 -0.68359,-1.33047 -0.68359,-2.1211 0,-1.05524 0.27734,-1.16015 1.04297,-0.39453 0.57363,0.57364 0.88125,1.52813 0.68359,2.1211 -0.19765,0.59297 -0.66699,0.77051 -1.04297,0.39453 z"
         id="path3602"
         inkscape:connector-curvature="0" />
    </g>
  </g>
</svg>
