<?xml version="1.0" encoding="UTF-8" standalone="no"?>
<!-- Created with Inkscape (http://www.inkscape.org/) -->

<svg
   xmlns:dc="http://purl.org/dc/elements/1.1/"
   xmlns:cc="http://creativecommons.org/ns#"
   xmlns:rdf="http://www.w3.org/1999/02/22-rdf-syntax-ns#"
   xmlns:svg="http://www.w3.org/2000/svg"
   xmlns="http://www.w3.org/2000/svg"
   xmlns:sodipodi="http://sodipodi.sourceforge.net/DTD/sodipodi-0.dtd"
   xmlns:inkscape="http://www.inkscape.org/namespaces/inkscape"
   width="25.898649mm"
   height="27.047781mm"
   viewBox="0 0 91.766867 95.838594"
   id="svg2"
   version="1.1"
   inkscape:version="0.91 r13725">
  <defs
     id="defs4" />
  <sodipodi:namedview
     id="base"
     pagecolor="#ffffff"
     bordercolor="#666666"
     borderopacity="1.0"
     inkscape:pageopacity="0.0"
     inkscape:pageshadow="2"
     inkscape:zoom="3.959798"
     inkscape:cx="51.544586"
     inkscape:cy="48.010798"
     inkscape:document-units="px"
     inkscape:current-layer="layer1"
     showgrid="false"
     fit-margin-top="0"
     fit-margin-left="0"
     fit-margin-right="0"
     fit-margin-bottom="0"
     inkscape:window-width="1920"
     inkscape:window-height="1031"
     inkscape:window-x="1"
     inkscape:window-y="0"
     inkscape:window-maximized="0" />
  <metadata
     id="metadata7">
    <rdf:RDF>
      <cc:Work
         rdf:about="">
        <dc:format>image/svg+xml</dc:format>
        <dc:type
           rdf:resource="http://purl.org/dc/dcmitype/StillImage" />
        <dc:title></dc:title>
      </cc:Work>
    </rdf:RDF>
  </metadata>
  <g
     inkscape:label="Layer 1"
     inkscape:groupmode="layer"
     id="layer1"
     transform="translate(-275.58667,-582.38072)">
    <g
       id="g3562"
       transform="translate(0.25253806,0.75761455)">
      <path
         style="fill:#feb700"
         d="m 312.18566,675.96124 c -8.18462,-1.60844 -18.67783,-6.79858 -22.2295,-10.99514 -1.35791,-1.60447 -2.82287,-2.81174 -3.25548,-2.68283 -0.43261,0.1289 -0.78656,-0.15773 -0.78656,-0.63697 0,-0.47923 -2.08703,-4.17064 -4.63785,-8.20312 -5.6804,-8.97994 -6.809,-15.18704 -5.38226,-29.60164 0.89312,-9.02337 1.14122,-9.76736 5.71127,-17.12679 2.62767,-4.2315 6.91931,-10.02498 9.53697,-12.87438 3.94822,-4.29777 5.94301,-5.6077 11.70416,-7.68586 12.39784,-4.47215 18.58404,-5.36798 26.54736,-3.84434 9.03393,1.72847 18.82017,6.70578 23.79388,12.10162 2.16077,2.34416 5.84061,7.24491 8.17741,10.89057 5.44646,8.49703 6.68101,15.65533 5.09542,29.54488 -0.98497,8.62828 -1.42062,9.95894 -5.37596,16.4204 -2.36727,3.86719 -6.52531,9.59472 -9.2401,12.72786 -4.62799,5.34116 -5.47885,5.87885 -13.63626,8.6172 -7.14889,2.3998 -18.04327,5.1867 -18.82456,4.81551 -0.10353,-0.0492 -3.3426,-0.70932 -7.19794,-1.46697 z"
         id="path3576"
         inkscape:connector-curvature="0" />
      <path
         style="fill:#fea800"
         d="m 312.18566,675.96124 c -8.18462,-1.60844 -18.67783,-6.79858 -22.2295,-10.99514 -1.35791,-1.60447 -2.82287,-2.81174 -3.25548,-2.68283 -0.43261,0.1289 -0.78656,-0.15773 -0.78656,-0.63697 0,-0.47923 -2.08703,-4.17064 -4.63785,-8.20312 -5.68176,-8.98208 -6.80909,-15.1861 -5.38108,-29.61355 0.88933,-8.9851 1.16218,-9.81388 5.60294,-17.01914 5.32332,-8.63722 13.04395,-17.35531 16.83787,-19.01322 1.41796,-0.61964 2.57812,-0.87895 2.57812,-0.57625 0,0.98876 -4.58191,4.82426 -6.48445,5.4281 -1.05413,0.33457 -1.6477,1.13589 -1.37255,1.85293 0.26665,0.69489 0.0342,1.54194 -0.51659,1.88234 -1.89763,1.1728 -1.06934,4.03794 1.34234,4.64323 2.91744,0.73223 3.07387,2.4019 0.23438,2.50153 -1.16016,0.0407 -1.59725,0.28173 -0.97131,0.53561 0.85645,0.34737 0.87783,0.87829 0.0864,2.14555 -0.57841,0.92618 -0.74715,2.47747 -0.37499,3.44732 0.61528,1.6034 0.81849,1.52963 2.2401,-0.81332 1.64887,-2.71748 5.25243,-3.70277 4.28067,-1.17042 -0.41991,1.09428 0.26256,1.42087 3.0763,1.47214 1.98876,0.0362 4.45968,0.39841 5.49093,0.80481 1.62899,0.64197 1.46492,0.82987 -1.25048,1.43211 -2.71993,0.60325 -3.05214,0.9854 -2.56026,2.94519 0.41095,1.63739 0.17655,2.252 -0.8589,2.252 -2.14146,0 -1.71836,1.50745 1.02983,3.66918 2.65407,2.0877 4.36553,1.84132 3.4674,-0.49915 -0.42623,-1.11076 -0.0263,-1.38237 1.68157,-1.14186 1.9281,0.27154 2.30626,-0.14236 2.70959,-2.96567 l 0.46875,-3.28125 2.10052,5.02558 c 1.51673,3.62884 2.48983,4.87618 3.50132,4.48803 0.83683,-0.32112 1.81139,0.22965 2.42061,1.36798 0.82717,1.54558 0.65917,2.2183 -0.88941,3.56138 -2.64485,2.29386 -0.91633,3.941 2.96696,2.82729 1.9079,-0.54718 3.30659,-0.47087 4.14655,0.22624 0.69713,0.57857 1.57306,0.74639 1.94651,0.37294 0.37344,-0.37344 -0.0586,-1.21835 -0.96016,-1.87757 -0.90153,-0.65921 -1.63915,-1.46847 -1.63915,-1.79835 0,-1.46318 2.39999,-0.34366 5.74845,2.68148 3.69753,3.34049 6.88842,4.22222 7.63362,2.10938 0.31119,-0.8823 1.11915,-0.76646 3.26965,0.46875 3.6022,2.06903 4.23284,2.06033 3.56331,-0.0492 -0.29498,-0.92939 0.0528,-2.49549 0.77287,-3.48023 1.10818,-1.51552 1.539,-1.59972 2.80581,-0.54836 1.26097,1.04651 1.58939,1.00027 2.08593,-0.2937 0.44699,-1.16483 0.89262,-1.28405 1.84503,-0.49362 1.63757,1.35906 3.21283,0.3356 3.21283,-2.08741 0,-1.32148 0.43836,-1.75176 1.40625,-1.38035 0.8049,0.30887 1.40625,0.0193 1.40625,-0.67726 0,-0.66929 0.93605,-1.18339 2.08012,-1.14245 1.4014,0.0501 2.16354,-0.53735 2.33579,-1.80056 0.23469,-1.72109 0.19499,-1.73287 -0.48364,-0.14348 -0.66865,1.566 -0.85714,1.58955 -1.97193,0.24631 -0.73221,-0.88226 -0.94385,-2.15609 -0.52132,-3.13777 0.39121,-0.90891 0.80541,-2.70725 0.92045,-3.99631 0.11504,-1.28906 0.26403,-2.96496 0.3311,-3.72422 0.0877,-0.99324 0.5138,-0.821 1.51893,0.61401 2.44979,3.49757 3.46418,14.70463 2.27436,25.12731 -0.98497,8.62828 -1.42062,9.95894 -5.37596,16.4204 -2.36727,3.86719 -6.52531,9.59472 -9.2401,12.72786 -4.62799,5.34116 -5.47885,5.87885 -13.63626,8.6172 -7.14889,2.3998 -18.04327,5.1867 -18.82456,4.81551 -0.10353,-0.0492 -3.3426,-0.70932 -7.19794,-1.46697 z m 22.80197,-47.70278 c -0.87295,-2.27488 0.14975,-2.49518 2.01504,-0.43407 1.55322,1.71629 1.56381,1.88075 0.12108,1.88075 -0.86954,0 -1.83079,-0.65101 -2.13612,-1.44668 z m 5.77024,-1.36582 c 0.31867,-0.51562 0.97638,-0.9375 1.46158,-0.9375 0.48519,0 0.88217,0.42188 0.88217,0.9375 0,0.51563 -0.65771,0.9375 -1.46158,0.9375 -0.80387,0 -1.20084,-0.42187 -0.88217,-0.9375 z m -6.39032,-10.87095 c -1.87677,-1.61433 -3.28097,-2.09776 -4.90749,-1.68953 -1.70735,0.42852 -2.41727,0.1357 -2.83222,-1.16821 -0.30457,-0.95703 -1.01297,-2.79475 -1.57422,-4.08381 -0.84285,-1.93581 -1.08669,-2.05619 -1.40094,-0.69165 -0.20951,0.90979 -0.8414,1.36723 -1.40633,1.01809 -0.66696,-0.41221 -0.80591,-0.0608 -0.39716,1.00436 0.81288,2.11832 -1.28754,1.50808 -2.35247,-0.68347 -0.42355,-0.87166 -1.13242,-2.32311 -1.57525,-3.22545 -0.45039,-0.91775 -2.33023,-1.88883 -4.26642,-2.20392 -1.9037,-0.30981 -3.96716,-1.09551 -4.58547,-1.746 -0.89544,-0.94203 -0.67107,-1.04543 1.10257,-0.50814 1.52534,0.46207 2.02471,0.3476 1.58529,-0.36338 -0.37796,-0.61156 0.0552,-1.04384 1.05448,-1.0523 1.43794,-0.0122 1.48201,-0.15261 0.2897,-0.92314 -0.77344,-0.49983 -2.77734,-0.91525 -4.45312,-0.92314 -1.67579,-0.008 -3.04688,-0.43623 -3.04688,-0.95186 0,-0.51562 0.42188,-0.9375 0.9375,-0.9375 1.72279,0 0.96365,-1.54417 -1.37425,-2.79538 -3.19527,-1.71005 -1.93189,-3.11585 2.18474,-2.43103 3.36313,0.55947 3.37723,0.54861 1.06451,-0.82009 -1.7727,-1.0491 -1.94928,-1.39515 -0.72474,-1.42028 1.74066,-0.0357 4.93579,-4.15317 4.1769,-5.38262 -0.65308,-1.05803 12.28035,-1.24463 14.98531,-0.21621 1.46697,0.55775 2.82772,0.49419 3.91158,-0.18269 1.29286,-0.80741 2.49778,-0.6116 5.42456,0.88154 4.42951,2.25976 12.32799,8.26353 17.92952,13.62852 4.28875,4.10766 5.62855,7.12538 1.48945,3.35478 -1.37221,-1.25003 -2.15179,-1.63998 -1.7324,-0.86654 1.4239,2.62598 3.53744,4.64512 4.34188,4.14795 0.4408,-0.27243 0.5409,0.18369 0.22243,1.0136 -0.47099,1.22738 -1.07414,0.93034 -3.23241,-1.59193 -1.45936,-1.70548 -2.67052,-2.71221 -2.69148,-2.23719 -0.021,0.47503 0.6601,1.63518 1.51345,2.57813 1.44527,1.597 1.43948,1.83828 -0.0845,3.52226 -1.04505,1.15476 -1.41337,2.5094 -1.01962,3.75 0.64147,2.02109 -1.06953,2.71768 -2.83805,1.15543 -0.48985,-0.43271 -2.66243,-0.41206 -4.82798,0.0459 -3.13375,0.66268 -3.82252,1.1581 -3.37474,2.42737 0.31585,0.89527 -0.93837,0.17769 -2.85952,-1.63603 -1.88218,-1.77693 -3.42214,-2.77781 -3.42214,-2.22417 0,0.55364 0.63281,1.5318 1.40625,2.1737 1.50219,1.24671 1.86317,3.35695 0.69748,4.07739 -0.38983,0.24093 -1.89184,-0.57958 -3.3378,-1.82334 z m -11.87213,-13.95014 c -0.65224,-0.7859 -1.87251,-1.3956 -2.71172,-1.3549 -1.27892,0.062 -1.29827,0.16014 -0.11958,0.60622 0.77344,0.29271 1.76133,1.1348 2.19531,1.8713 0.43398,0.73651 1.02144,1.10672 1.30547,0.82269 0.28402,-0.28402 -0.0172,-1.15942 -0.66948,-1.94531 z m -8.4563,5.13359 c -0.84496,-0.54606 -0.96059,-0.91452 -0.2897,-0.92314 0.6141,-0.008 1.37728,0.40752 1.69595,0.92314 0.71935,1.16393 0.3948,1.16393 -1.40625,0 z m -19.6875,-9.84375 c 0,-0.81253 0.55824,-1.13319 1.40625,-0.80777 0.77344,0.29679 1.40625,0.66029 1.40625,0.80777 0,0.14748 -0.63281,0.51098 -1.40625,0.80777 -0.84801,0.32542 -1.40625,0.005 -1.40625,-0.80777 z"
         id="path3574"
         inkscape:connector-curvature="0" />
      <path
         style="fill:#fd9800"
         d="m 312.18566,675.96124 c -8.18462,-1.60844 -18.67783,-6.79858 -22.2295,-10.99514 -1.35791,-1.60447 -2.82287,-2.81174 -3.25548,-2.68283 -0.43261,0.1289 -0.78656,-0.15773 -0.78656,-0.63697 0,-0.47923 -2.08425,-4.17064 -4.63167,-8.20312 -5.73332,-9.07569 -6.87538,-15.50015 -5.30309,-29.83179 0.97116,-8.85221 1.29992,-9.82157 5.8956,-17.38324 2.67689,-4.40453 5.84095,-8.83422 7.03125,-9.84375 l 2.16416,-1.83551 -1.73246,2.0503 c -1.05048,1.2432 -1.43627,2.52955 -0.98004,3.26775 0.41383,0.6696 0.63371,2.59543 0.4886,4.27963 -0.1762,2.04513 0.20452,3.24189 1.1463,3.60329 1.29118,0.49547 1.37607,1.39727 0.46338,4.92279 -0.19332,0.74674 1.35535,1.9195 3.85225,2.91721 4.78263,1.91103 6.48355,4.27843 2.32385,3.23442 l -2.59039,-0.65015 2.66037,3.48792 c 2.54714,3.33948 11.32693,8.74055 12.42436,7.64312 0.28932,-0.28932 -0.24223,-1.37496 -1.18122,-2.41253 -0.93899,-1.03757 -1.45416,-2.13959 -1.14482,-2.44893 0.61253,-0.61253 3.66935,2.25419 7.06556,6.62618 1.85804,2.39189 2.40017,2.61635 3.96255,1.64062 2.35161,-1.4686 3.69457,-1.4268 5.51164,0.17154 2.01011,1.76815 10.20817,3.45128 10.63105,2.18265 0.18652,-0.55956 1.37927,-0.26547 2.86102,0.70541 1.69193,1.10859 3.46525,1.48021 5.30635,1.11198 1.52086,-0.30417 3.01739,-0.14498 3.32563,0.35376 0.84345,1.36472 2.32477,1.08914 2.32477,-0.4325 0,-0.7366 0.65356,-1.99284 1.45236,-2.79164 1.1731,-1.1731 1.79955,-1.23554 3.258,-0.32473 1.50653,0.94085 2.03748,0.82093 3.20532,-0.72398 0.76983,-1.01838 1.41311,-2.40385 1.4295,-3.07881 0.0164,-0.67496 0.4517,-0.96647 0.96732,-0.6478 0.51563,0.31867 0.9375,-0.0651 0.9375,-0.85275 0,-0.88786 0.53445,-1.22707 1.40625,-0.89252 0.9986,0.38319 1.40625,-0.0849 1.40625,-1.61486 0,-2.09568 0.0376,-2.10482 1.37643,-0.33468 1.342,1.77428 1.37718,1.76704 1.40625,-0.28956 0.0164,-1.16016 0.47659,-2.10938 1.02265,-2.10938 0.54605,0 0.69181,-0.48706 0.3239,-1.08235 -0.39998,-0.64717 -0.25863,-0.82877 0.35154,-0.45166 1.02697,0.6347 0.90144,7.07522 -0.34054,17.47151 -0.72081,6.03371 -6.29884,15.8573 -14.14743,24.91536 -4.62799,5.34116 -5.47885,5.87885 -13.63626,8.6172 -7.14889,2.3998 -18.04327,5.1867 -18.82456,4.81551 -0.10353,-0.0492 -3.3426,-0.70932 -7.19794,-1.46697 z m 15.91596,-38.23202 c 0,-0.22738 -0.42187,-0.67416 -0.9375,-0.99283 -0.51562,-0.31867 -0.9375,-0.13263 -0.9375,0.41342 0,0.54606 0.42188,0.99283 0.9375,0.99283 0.51563,0 0.9375,-0.18604 0.9375,-0.41342 z m -6.5625,-1.46158 c 0,-0.51562 -0.42187,-0.9375 -0.9375,-0.9375 -0.51562,0 -0.9375,0.42188 -0.9375,0.9375 0,0.51563 0.42188,0.9375 0.9375,0.9375 0.51563,0 0.9375,-0.42187 0.9375,-0.9375 z m 3.75,-5.68033 c 0,-0.54605 0.42188,-0.73209 0.9375,-0.41342 0.51563,0.31867 0.9375,0.76545 0.9375,0.99283 0,0.22738 -0.42187,0.41342 -0.9375,0.41342 -0.51562,0 -0.9375,-0.44677 -0.9375,-0.99283 z m 40.38651,-11.74154 c 0.045,-1.09214 0.26713,-1.31429 0.56641,-0.56641 0.27082,0.67676 0.23751,1.48535 -0.074,1.79687 -0.31152,0.31153 -0.5331,-0.24218 -0.49239,-1.23046 z m -1.08118,-3.38218 c -0.0383,-0.67496 -0.25052,-2.2021 -0.47157,-3.39365 -0.25575,-1.37856 -0.0367,-1.94073 0.60232,-1.5458 0.55234,0.34136 0.79751,1.15939 0.54484,1.81784 -0.25267,0.65845 -0.0337,1.62285 0.48653,2.14311 0.63623,0.63623 0.61225,1.15215 -0.0733,1.57581 -0.56055,0.34645 -1.05053,0.0777 -1.08885,-0.59731 z m -35.67252,-4.0397 c -0.29877,-1.19508 -0.56488,-2.0107 -1.22353,-3.75 -0.39052,-1.03125 -1.16504,-3.08705 -1.72116,-4.56844 -1.10565,-2.94524 -5.45436,-5.27531 -9.84551,-5.27531 -2.55594,0 -4.90511,-1.43677 -4.90511,-3 0,-0.4125 1.47656,-0.75 3.28125,-0.75 3.54473,0 4.26814,-1.20702 1.64063,-2.73741 -1.4849,-0.86487 -1.4513,-0.95828 0.35395,-0.98408 1.09702,-0.0157 2.52231,-0.66438 3.1673,-1.44155 0.98863,-1.19123 0.70482,-1.57615 -1.80806,-2.45214 -1.63943,-0.57151 -2.75041,-1.26948 -2.46883,-1.55106 0.28157,-0.28157 2.2338,0.0563 4.33829,0.75086 3.16614,1.04492 3.95836,1.0492 4.59148,0.0248 0.58198,-0.94167 1.4243,-1.00824 3.51874,-0.27811 1.51449,0.52795 4.02062,0.81239 5.56919,0.63208 2.20404,-0.25662 3.67566,0.45053 6.77542,3.25578 2.17792,1.97099 5.09599,4.15194 6.48462,4.84656 4.43625,2.21913 4.92082,2.76782 3.65706,4.14095 -0.85637,0.93049 -1.47497,0.97157 -2.53854,0.16859 -0.87958,-0.66407 -0.7918,-0.33787 0.23438,0.87097 2.22792,2.6245 2.11568,4.47168 -0.23438,3.85713 -2.15677,-0.56401 -2.62639,1.6097 -0.60561,2.80318 1.28413,0.75842 3.41811,4.23633 3.41811,5.57077 0,0.39907 -1.79599,-1.03705 -3.99109,-3.19138 -3.10544,-3.04776 -4.46945,-3.79187 -6.14677,-3.35324 -1.32033,0.34527 -1.96489,1.06092 -1.66334,1.84677 0.56352,1.46849 -0.91901,1.75895 -1.78943,0.35058 -0.31696,-0.51285 -1.45088,-1.40052 -2.51981,-1.9726 -1.80207,-0.96444 -1.91244,-0.82834 -1.51641,1.86996 0.37592,2.56132 0.15904,2.9101 -1.8096,2.9101 -1.25241,0 -1.98173,0.41256 -1.6573,0.9375 0.31867,0.51563 0.34357,0.9375 0.0553,0.9375 -0.28824,0 -0.57681,-0.21094 -0.64127,-0.46875 z m -33.88281,-22.14758 c 0.63594,-0.64071 1.39241,-0.92876 1.68106,-0.64011 0.28864,0.28864 -0.23167,0.81285 -1.15625,1.16492 -1.33613,0.50876 -1.44381,0.40108 -0.52481,-0.52481 z"
         id="path3572"
         inkscape:connector-curvature="0" />
      <path
         style="fill:#fd8700"
         d="m 312.18566,675.96124 c -8.18462,-1.60844 -18.67783,-6.79858 -22.2295,-10.99514 -1.35791,-1.60447 -2.82287,-2.81174 -3.25548,-2.68283 -0.43261,0.1289 -0.78656,-0.15773 -0.78656,-0.63697 0,-0.47923 -2.08703,-4.17064 -4.63785,-8.20312 -5.68667,-8.98984 -6.80943,-15.18267 -5.3768,-29.65684 0.77625,-7.84258 1.401,-10.21661 3.6019,-13.68706 1.46451,-2.3093 2.66275,-3.49656 2.66275,-2.63836 0,1.05175 0.49394,1.37083 1.51531,0.97889 1.29505,-0.49695 1.3565,-0.28473 0.42273,1.46003 -0.60092,1.12284 -1.29219,3.60058 -1.53616,5.5061 -0.38073,2.97376 -0.2746,3.23523 0.74915,1.84564 1.04911,-1.42403 1.21394,-1.20854 1.36898,1.78972 0.11025,2.13203 1.03133,4.32841 2.45931,5.86438 2.25473,2.42526 4.18603,5.61519 6.46456,10.67755 0.69924,1.55356 1.67898,2.40108 2.43864,2.10957 0.69841,-0.268 2.17317,0.14545 3.27725,0.91878 1.10409,0.77333 2.98505,1.40606 4.17993,1.40606 1.19487,0 3.73772,0.79369 5.65077,1.76377 2.14378,1.08706 5.00696,1.67424 7.46266,1.53042 3.67693,-0.21534 3.98437,-0.0543 3.98437,2.08653 0,1.73027 0.3769,2.17525 1.48293,1.75083 0.81561,-0.31298 2.27573,-0.56905 3.24473,-0.56905 0.96899,0 2.59815,-0.89772 3.62036,-1.99493 1.68203,-1.80545 1.99715,-1.85633 3.31777,-0.53571 0.80256,0.80257 1.45921,2.16729 1.45921,3.03273 0,1.0532 0.49298,1.38434 1.49085,1.00142 0.81997,-0.31465 1.92159,-0.30588 2.44806,0.0195 0.52646,0.32537 2.63053,0.71639 4.67571,0.86892 2.84099,0.21189 3.60198,-0.0264 3.22469,-1.00955 -0.32503,-0.84702 -0.0175,-1.10412 0.8996,-0.75217 0.76638,0.29408 2.19123,-0.1873 3.16632,-1.06975 1.12573,-1.01876 2.48187,-1.37943 3.71509,-0.98802 1.0682,0.33903 1.94218,0.25708 1.94218,-0.18212 0,-0.4392 1.23659,-1.52902 2.74797,-2.42181 1.98559,-1.17292 2.93314,-1.32366 3.4154,-0.54335 0.4486,0.72585 1.23134,0.34653 2.38743,-1.157 l 1.72001,-2.2369 0.0208,2.68498 c 0.0258,3.31926 -6.99088,14.91418 -13.73636,22.69913 -4.62798,5.34116 -5.47885,5.87885 -13.63626,8.6172 -7.14889,2.3998 -18.04327,5.1867 -18.82456,4.81551 -0.10352,-0.0492 -3.3426,-0.70932 -7.19794,-1.46697 z m 32.93366,-70.01512 c -2.61301,-2.69594 -3.71984,-3.15633 -7.91828,-3.29363 -3.31381,-0.10836 -5.63309,-0.76696 -7.22442,-2.05149 -1.28906,-1.04055 -3.76114,-2.79146 -5.4935,-3.89093 -2.86568,-1.81874 -3.10681,-2.31924 -2.67355,-5.54941 0.29846,-2.22518 0.0744,-3.68793 -0.60025,-3.91888 -2.31039,-0.79089 10.33993,0.47419 12.98605,1.29866 1.54688,0.48197 4.42667,2.24303 6.39954,3.91348 3.07707,2.60538 3.64901,3.7005 4.02291,7.70291 0.28192,3.01785 1.14221,5.41761 2.43575,6.79453 1.09994,1.17083 1.79817,2.12878 1.55163,2.12878 -0.24655,0 -1.81519,-1.41031 -3.48588,-3.13402 z"
         id="path3570"
         inkscape:connector-curvature="0" />
      <path
         style="fill:#fd7400"
         d="m 312.18566,675.96124 c -8.18462,-1.60844 -18.67783,-6.79858 -22.2295,-10.99514 -1.35791,-1.60447 -2.82287,-2.81174 -3.25548,-2.68283 -0.43261,0.1289 -0.78656,-0.15773 -0.78656,-0.63697 0,-0.47923 -2.08425,-4.17064 -4.63167,-8.20312 -3.86553,-6.11903 -4.76999,-8.4173 -5.46796,-13.89429 -0.45996,-3.60937 -0.54712,-9.09375 -0.19367,-12.1875 0.6678,-5.84526 0.7434,-5.76031 1.52144,1.7097 0.4636,4.45116 2.55303,8.13405 4.61471,8.13405 0.57813,0 2.84138,2.12312 5.02946,4.71804 2.85707,3.38832 6.06912,5.76929 11.39675,8.44797 4.08014,2.05145 7.41844,4.15391 7.41844,4.67212 0,0.51821 1.47656,1.64633 3.28125,2.50692 1.80469,0.8606 3.28125,1.9536 3.28125,2.42889 0,0.47529 0.67088,0.60672 1.49085,0.29207 0.81997,-0.31465 1.96837,-0.27697 2.552,0.0837 0.58363,0.3607 2.65494,0.54075 4.6029,0.4001 3.53151,-0.25498 5.01612,1.29823 1.90113,1.98898 -3.28296,0.72799 11.60158,0.0911 15.61231,-0.66806 3.04087,-0.57556 3.95213,-0.49683 3.4603,0.29896 -0.96715,1.56488 1.80595,1.34533 3.128,-0.24764 0.87587,-1.05535 0.7551,-1.40201 -0.58833,-1.68885 -0.92973,-0.19851 0.41791,-0.40815 2.99475,-0.46588 4.38008,-0.0981 4.94011,-0.39884 8.6007,-4.61842 2.15355,-2.4824 3.84211,-4.79707 3.75234,-5.1437 -0.15029,-0.58039 0.37238,-0.81773 1.80088,-0.81773 1.17618,0 -4.84074,9.16129 -9.59081,14.60286 -4.65313,5.33053 -5.53181,5.8843 -13.67298,8.6172 -7.14889,2.3998 -18.04327,5.1867 -18.82456,4.81551 -0.10353,-0.0492 -3.3426,-0.70932 -7.19794,-1.46697 z m 18.72846,-14.20302 c 0,-0.49329 0.86784,-1.12384 1.92854,-1.40122 1.22679,-0.32081 1.7955,-0.10475 1.56293,0.59378 -0.44894,1.34844 -3.49147,2.05206 -3.49147,0.80744 z m -11.42578,-3.631 c 0.67676,-0.27082 1.48535,-0.23751 1.79687,0.074 0.31153,0.31152 -0.24218,0.5331 -1.23046,0.49239 -1.09214,-0.045 -1.31429,-0.26713 -0.56641,-0.56641 z m 18.92578,-0.49797 c 0,-0.40514 0.60791,-0.73661 1.35092,-0.73661 0.74301,0 1.55578,0.33147 1.80617,0.73661 0.25039,0.40513 -0.35753,0.7366 -1.35092,0.7366 -0.99339,0 -1.80617,-0.33147 -1.80617,-0.7366 z m -18.75,-3.08036 c 0,-0.77344 0.42188,-1.40625 0.9375,-1.40625 0.51563,0 0.9375,0.63281 0.9375,1.40625 0,0.77344 -0.42187,1.40625 -0.9375,1.40625 -0.51562,0 -0.9375,-0.63281 -0.9375,-1.40625 z m 17.8125,-54.58197 c 0,-1.06569 -0.72515,-1.7924 -1.875,-1.87901 -1.03125,-0.0777 -1.875,0.23247 -1.875,0.68923 0,1.30326 -5.25721,-0.86171 -7.13733,-2.93922 -0.99733,-1.10203 -1.32403,-2.13796 -0.79414,-2.51814 1.7212,-1.23493 1.35682,-2.98964 -0.62082,-2.98964 -1.66241,0 -1.79777,-0.23137 -0.82271,-1.40625 1.5905,-1.91643 3.94081,-1.76684 8.90545,0.56682 4.79604,2.2544 10.08829,7.77562 9.65338,10.07102 -0.16962,0.89522 -1.379,1.67494 -2.86372,1.84631 -1.98415,0.22901 -2.57011,-0.0996 -2.57011,-1.44112 z"
         id="path3568"
         inkscape:connector-curvature="0" />
      <path
         style="fill:#9f6903"
         d="m 334.34644,598.04875 c -1.88486,-0.42442 -8.08539,-4.41223 -8.39545,-5.39945 -0.10621,-0.3382 0.95874,-1.21843 2.36657,-1.95607 2.22119,-1.1638 2.98607,-1.163 5.78392,0.006 4.2331,1.76871 5.77865,4.52304 3.57935,6.3788 -0.88575,0.74739 -2.38623,1.18422 -3.33439,0.97072 z"
         id="path3566"
         inkscape:connector-curvature="0" />
      <path
         style="fill:#715f00"
         d="m 332.52989,594.25759 c -2.98945,-1.81389 -3.2864,-2.98995 -0.75495,-2.98995 2.75979,0 4.76418,1.00499 4.76418,2.38872 0,2.04929 -1.30113,2.24441 -4.00923,0.60123 z"
         id="path3564"
         inkscape:connector-curvature="0" />
    </g>
  </g>
</svg>
