<?xml version="1.0" encoding="UTF-8" standalone="no"?>
<!-- Created with Inkscape (http://www.inkscape.org/) -->

<svg
   xmlns:dc="http://purl.org/dc/elements/1.1/"
   xmlns:cc="http://creativecommons.org/ns#"
   xmlns:rdf="http://www.w3.org/1999/02/22-rdf-syntax-ns#"
   xmlns:svg="http://www.w3.org/2000/svg"
   xmlns="http://www.w3.org/2000/svg"
   xmlns:sodipodi="http://sodipodi.sourceforge.net/DTD/sodipodi-0.dtd"
   xmlns:inkscape="http://www.inkscape.org/namespaces/inkscape"
   width="23.269093mm"
   height="35.32798mm"
   viewBox="0 0 82.449539 125.17788"
   id="svg2"
   version="1.1"
   inkscape:version="0.91 r13725"
   sodipodi:docname="Pear.svg">
  <defs
     id="defs4" />
  <sodipodi:namedview
     id="base"
     pagecolor="#ffffff"
     bordercolor="#666666"
     borderopacity="1.0"
     inkscape:pageopacity="0.0"
     inkscape:pageshadow="2"
     inkscape:zoom="3.959798"
     inkscape:cx="54.971805"
     inkscape:cy="67.912185"
     inkscape:document-units="px"
     inkscape:current-layer="layer1"
     showgrid="false"
     fit-margin-top="0"
     fit-margin-left="0"
     fit-margin-right="0"
     fit-margin-bottom="0"
     inkscape:window-width="1920"
     inkscape:window-height="1031"
     inkscape:window-x="1"
     inkscape:window-y="0"
     inkscape:window-maximized="0" />
  <metadata
     id="metadata7">
    <rdf:RDF>
      <cc:Work
         rdf:about="">
        <dc:format>image/svg+xml</dc:format>
        <dc:type
           rdf:resource="http://purl.org/dc/dcmitype/StillImage" />
        <dc:title></dc:title>
      </cc:Work>
    </rdf:RDF>
  </metadata>
  <g
     inkscape:label="Layer 1"
     inkscape:groupmode="layer"
     id="layer1"
     transform="translate(-272.15946,-552.73977)">
    <g
       id="g3887"
       transform="translate(-2.272843,-4.6417654e-8)">
      <path
         style="fill:#f9eb50"
         d="m 296.86139,673.60961 -12.87891,-4.26603 -4.68118,-6.43604 -4.68118,-6.43605 -0.15606,-8.91919 c -0.14356,-8.20544 0.0939,-9.5027 2.96759,-16.21102 2.45318,-5.72671 4.86336,-9.20348 11.22889,-16.19809 4.45789,-4.89844 9.92167,-12.07031 12.14173,-15.9375 2.22006,-3.86719 5.67293,-9.18772 7.67305,-11.8234 3.4535,-4.55089 3.90046,-4.81939 8.87761,-5.33308 2.88256,-0.2975 5.4286,-0.7285 5.65785,-0.95776 0.22926,-0.22926 0.67242,-6.39265 0.98479,-13.69644 0.48871,-11.42704 0.80121,-13.40445 2.24007,-14.1745 1.07743,-0.57662 1.87672,-0.56383 2.24742,0.036 0.7743,1.25285 -0.39411,15.96805 -1.83323,23.0881 l -1.15869,5.73262 5.09977,1.60756 c 4.75119,1.49768 5.24544,1.93889 7.2309,6.45488 1.17212,2.66602 3.05621,9.19116 4.18688,14.5003 1.75748,8.25247 2.85372,10.97393 7.55573,18.75739 5.46526,9.04692 5.50592,9.16851 6.44108,19.26173 0.90983,9.81987 0.85803,10.39297 -1.55911,17.24962 -2.34966,6.66528 -2.86765,7.36265 -8.60314,11.58246 -7.39887,5.44362 -11.52177,6.4782 -25.60222,6.42454 -9.89763,-0.0378 -11.24042,-0.28505 -23.37964,-4.30606 z"
         id="path3901"
         inkscape:connector-curvature="0" />
      <path
         style="fill:#ebdc2a"
         d="m 296.86139,673.60961 -12.87891,-4.26603 -4.69352,-6.45301 -4.69351,-6.453 -0.0864,-9.16281 c -0.0796,-8.44344 0.15919,-9.71888 3.04117,-16.24535 3.36632,-7.62328 14.2195,-21.03067 16.138,-19.93593 0.57861,0.33018 0.73928,0.25509 0.35704,-0.16685 -0.78845,-0.87034 0.91389,-3.28344 2.31633,-3.28344 0.50766,0 0.6733,0.65074 0.3681,1.44608 -0.45943,1.19726 0.007,1.34062 2.7122,0.83316 3.05353,-0.57284 3.26711,-0.45287 3.26711,1.83517 0,1.9863 0.44211,2.44809 2.34375,2.44809 1.96646,0 2.34375,0.44196 2.34375,2.74554 0,5.34825 4.87823,7.33438 9.375,3.81696 1.28906,-1.00832 2.87109,-1.84269 3.51562,-1.85415 0.64454,-0.0115 1.17188,-0.65366 1.17188,-1.4271 0,-0.77344 0.42187,-1.40625 0.9375,-1.40625 0.51562,0 0.9375,0.84375 0.9375,1.875 0,1.03125 -0.42188,1.875 -0.9375,1.875 -0.51563,0 -0.9375,0.91729 -0.9375,2.03842 l 0,2.03842 2.1698,-2.03842 c 2.42338,-2.27665 7.00049,-2.72524 7.75462,-0.76001 0.30015,0.78218 1.93377,1.27841 4.20862,1.27841 2.04492,0 4.44765,0.65091 5.33938,1.44646 1.46259,1.30485 1.75901,1.29996 3.02758,-0.0499 0.77344,-0.82301 1.61729,-2.03375 1.87522,-2.69054 0.71048,-1.8091 2.12221,-0.41485 5.84368,5.77131 3.05162,5.0727 3.4785,6.63036 4.32713,15.78973 0.91031,9.82506 0.85866,10.39688 -1.55869,17.25412 -2.34966,6.66528 -2.86765,7.36265 -8.60314,11.58246 -7.39887,5.44362 -11.52177,6.4782 -25.60222,6.42453 -9.89763,-0.0378 -11.24042,-0.28504 -23.37964,-4.30606 z m 45.76917,-53.65309 c -0.40384,-0.65344 -0.48108,-1.44126 -0.17164,-1.7507 0.83903,-0.83903 1.75385,0.39497 1.30068,1.75448 -0.31756,0.95266 -0.53838,0.95192 -1.12904,-0.004 z m -15.54651,-2.93833 c 0,-0.51563 0.63281,-0.9375 1.40625,-0.9375 0.77344,0 1.40625,0.42187 1.40625,0.9375 0,0.51562 -0.63281,0.9375 -1.40625,0.9375 -0.77344,0 -1.40625,-0.42188 -1.40625,-0.9375 z m 5.02652,-27.65625 c -0.37736,-0.98339 -1.9113,-1.40625 -5.10119,-1.40625 -3.03038,0 -6.37967,-0.86261 -9.97783,-2.56978 l -5.41625,-2.56977 5.53065,-0.69525 c 3.04186,-0.38239 5.69963,-0.86423 5.90616,-1.07076 0.20653,-0.20653 0.63109,-6.35133 0.94346,-13.65512 0.49792,-11.64223 0.78285,-13.39462 2.31087,-14.21239 1.29502,-0.69307 1.87596,-0.58612 2.26058,0.41618 0.57265,1.49232 -1.07309,19.81007 -2.24448,24.98189 l -0.74318,3.28125 5.20547,1.87549 c 4.08149,1.47052 5.2731,2.35331 5.51868,4.08843 0.1994,1.40874 -0.0561,1.98467 -0.70312,1.58481 -0.55899,-0.34548 -1.01634,-0.18136 -1.01634,0.36469 0,1.5002 -1.85834,1.18959 -2.47348,-0.41342 z"
         id="path3899"
         inkscape:connector-curvature="0" />
      <path
         style="fill:#dad221"
         d="m 296.86139,673.60961 -12.87891,-4.26603 -4.69352,-6.45301 -4.69351,-6.453 -0.11685,-9.16281 c -0.11254,-8.82507 0.021,-9.46041 3.62374,-17.23611 2.05733,-4.44031 4.26048,-8.39459 4.8959,-8.7873 0.65565,-0.40521 0.50363,0.28055 -0.35148,1.58562 -1.71558,2.61831 -1.20465,3.55622 1.93729,3.55622 1.20312,0 2.1875,0.47353 2.1875,1.05229 0,0.70442 0.4885,0.64687 1.4777,-0.17409 1.00606,-0.83496 1.67932,-0.90919 2.10938,-0.23257 0.34742,0.54659 2.00276,1.29127 3.67854,1.65483 1.67579,0.36356 3.04688,1.04134 3.04688,1.50617 0,0.46483 1.00061,1.09628 2.22358,1.40323 1.22297,0.30695 2.79605,1.62775 3.49573,2.93511 2.17111,4.05675 9.05994,5.55795 9.94655,2.16753 0.5805,-2.21982 1.7305,-2.43669 2.48566,-0.46875 0.76712,1.99907 3.16614,1.74047 4.34848,-0.46875 1.19157,-2.22647 3.07261,-2.41458 4.6875,-0.46875 0.6419,0.77344 2.56397,1.40625 4.27127,1.40625 2.68947,0 3.14382,0.34443 3.40083,2.57812 0.24631,2.14063 0.80736,2.62751 3.30616,2.86912 2.41252,0.23326 3.56938,-0.32465 5.83189,-2.8125 1.55231,-1.70692 2.83475,-3.54646 2.84987,-4.08787 0.0151,-0.5414 0.53276,-1.48965 1.15032,-2.10721 0.87211,-0.87211 1.70374,-0.56628 3.72439,1.36963 l 2.60157,2.49245 0.77991,-2.10829 c 1.39664,-3.77549 3.10523,0.0915 3.9877,9.02511 0.75591,7.65236 0.63332,8.78655 -1.6917,15.65217 -2.39643,7.07646 -2.77574,7.59994 -8.62507,11.90342 -7.41567,5.45589 -11.53002,6.48952 -25.61766,6.43583 -9.89763,-0.0378 -11.24042,-0.28505 -23.37964,-4.30606 z m -4.46484,-48.62267 c 0,-0.77344 0.61957,-1.40625 1.37683,-1.40625 0.83868,0 1.1659,0.54965 0.83719,1.40625 -0.29679,0.77344 -0.91636,1.40625 -1.37682,1.40625 -0.46046,0 -0.8372,-0.63281 -0.8372,-1.40625 z M 325.6778,585.4241 c -1.03125,-0.2415 -2.29688,-0.96787 -2.8125,-1.61416 -0.51563,-0.64629 -1.57031,-1.42114 -2.34375,-1.7219 -0.99239,-0.38589 -0.82536,-0.56861 0.56756,-0.62084 1.74231,-0.0653 2.0439,-0.81619 2.57146,-6.40214 0.32871,-3.48046 0.60065,-9.58281 0.60432,-13.56076 0.006,-6.19371 0.26782,-7.37241 1.82476,-8.20566 1.19529,-0.6397 2.01519,-0.65414 2.39341,-0.0422 0.77532,1.2545 -0.39488,15.97208 -1.83729,23.10749 l -1.16276,5.75202 3.61302,1.08249 c 1.98716,0.59537 3.61302,1.48743 3.61302,1.98235 0,0.91476 -3.62786,1.04028 -7.03125,0.24328 z"
         id="path3897"
         inkscape:connector-curvature="0" />
      <path
         style="fill:#cfc915"
         d="m 296.86139,673.60961 -12.87891,-4.26603 -4.69352,-6.45301 -4.69351,-6.453 -0.12707,-9.26356 c -0.079,-5.75921 0.29507,-9.93474 0.98883,-11.03781 1.00776,-1.60232 1.07936,-1.53394 0.73891,0.70558 -0.20734,1.36392 0.21202,3.47329 0.93191,4.6875 l 1.3089,2.20766 -0.39018,-2.57813 c -0.25769,-1.70266 0.0282,-2.57812 0.84194,-2.57812 1.94238,0 6.00786,2.08271 6.00786,3.07777 0,0.496 0.60585,0.39901 1.34632,-0.21553 1.968,-1.6333 5.55282,0.4367 4.92355,2.84303 -0.52596,2.01126 0.31657,2.33329 1.91711,0.73275 1.50533,-1.50533 4.00052,-0.28771 4.00052,1.95219 0,2.72478 4.34085,3.67139 6.11185,1.33283 1.23452,-1.63016 1.33063,-1.5387 1.35833,1.29258 0.0331,3.38521 1.29091,3.84131 4.46404,1.61877 1.87428,-1.3128 2.12088,-1.27496 3.05408,0.46875 0.55834,1.04328 1.63314,1.89686 2.38843,1.89686 2.07526,0 1.64544,-1.97936 -0.55475,-2.55472 -1.20464,-0.31502 -1.73226,-1.01435 -1.40625,-1.86391 0.28697,-0.74785 0.52177,-1.58781 0.52177,-1.86659 0,-0.27877 0.63281,0.0183 1.40625,0.66022 0.77344,0.6419 1.40625,1.79742 1.40625,2.56783 0,1.00003 0.69163,1.26854 2.41764,0.93859 1.53167,-0.2928 2.59834,0.008 2.91074,0.82282 0.77722,2.02543 2.30388,0.42866 1.74966,-1.83001 -0.27403,-1.11676 -0.25603,-1.50314 0.04,-0.85861 0.29602,0.64454 0.96279,1.17188 1.4817,1.17188 0.51891,0 1.6949,0.92797 2.6133,2.06215 1.59352,1.96791 1.77851,1.99094 4.04788,0.50399 2.17062,-1.42224 2.42835,-1.42704 2.95482,-0.055 0.80963,2.10982 -0.27107,4.98889 -1.87266,4.98889 -0.73869,0 -1.34307,-0.47353 -1.34307,-1.05229 0,-0.77021 -0.34512,-0.76587 -1.28742,0.0162 -0.70809,0.58765 -2.04695,0.77701 -2.97526,0.42078 -1.33553,-0.51248 -1.55602,-0.30417 -1.05633,0.99801 0.34733,0.90508 0.63151,1.78206 0.63151,1.94881 0,0.67112 11.78206,-0.74776 12.61857,-1.51964 0.56611,-0.52236 0.27147,-1.89402 -0.79447,-3.6985 -2.22854,-3.77262 -1.4095,-4.35399 2.70987,-1.92351 3.14559,1.85595 3.51343,1.88693 5.66503,0.47715 2.21567,-1.45176 2.30558,-1.42545 2.42441,0.70952 0.0897,1.61215 0.3119,1.32178 0.81409,-1.06405 0.37987,-1.80469 0.74621,-2.54297 0.81409,-1.64063 0.17694,2.35223 1.73863,2.02216 3.1466,-0.66506 0.8951,-1.70835 1.57058,-2.08165 2.60733,-1.4409 1.2077,0.7464 1.02197,1.97602 -1.35667,8.98176 -2.68349,7.90365 -2.91754,8.23587 -8.90551,12.6412 -7.44961,5.48066 -11.54679,6.51236 -25.64886,6.45861 -9.89763,-0.0378 -11.24042,-0.28505 -23.37964,-4.30606 z m 50.84766,-15.34142 c 0,-0.51563 -0.18604,-0.9375 -0.41342,-0.9375 -0.22738,0 -0.67416,0.42187 -0.99283,0.9375 -0.31867,0.51562 -0.13263,0.9375 0.41342,0.9375 0.54606,0 0.99283,-0.42188 0.99283,-0.9375 z m -6.09375,-8.4375 c 0.31867,-0.51563 0.97638,-0.9375 1.46158,-0.9375 0.48519,0 0.88217,0.42187 0.88217,0.9375 0,0.51562 -0.65771,0.9375 -1.46158,0.9375 -0.80387,0 -1.20084,-0.42188 -0.88217,-0.9375 z m -43.59375,-5.5247 c 0,-0.46046 0.66732,-1.09327 1.48293,-1.40625 2.09537,-0.80407 2.26707,-0.74066 2.26707,0.8372 0,0.78125 -0.83333,1.40625 -1.875,1.40625 -1.03125,0 -1.875,-0.37674 -1.875,-0.8372 z m 26.06585,-60.41838 c -0.69057,-0.69057 -1.88086,-1.50101 -2.64509,-1.80099 -1.16169,-0.45598 -1.14274,-0.55754 0.11555,-0.61942 1.70708,-0.0839 2.69542,-7.37247 2.70703,-19.9629 0.006,-6.19371 0.26782,-7.37241 1.82476,-8.20566 1.19529,-0.6397 2.01519,-0.65414 2.39341,-0.0422 0.78092,1.26357 -0.39918,15.99426 -1.8598,23.21484 -0.90626,4.48016 -0.92337,5.85938 -0.0727,5.85938 0.61193,0 1.93151,0.6194 2.9324,1.37643 1.72406,1.30402 1.66302,1.37801 -1.1601,1.40625 -1.63895,0.0164 -3.54492,-0.53519 -4.23549,-1.22576 z"
         id="path3895"
         inkscape:connector-curvature="0" />
      <path
         style="fill:#c7ba10"
         d="m 311.32154,676.87726 c 1.83961,-0.51714 1.70119,-0.62385 -0.91204,-0.70312 -5.3013,-0.1608 -18.92666,-4.00487 -22.29325,-6.2895 -1.77084,-1.20172 -3.2197,-2.02839 -3.2197,-1.83706 0,0.72252 -5.26374,-4.75928 -7.66958,-7.9873 -2.10262,-2.8212 -2.52972,-4.40996 -2.64624,-9.84375 -0.17166,-8.00509 -0.0584,-8.84728 0.87147,-6.47959 0.45081,1.14788 1.60682,1.875 2.98098,1.875 1.67155,0 2.32772,0.58899 2.5701,2.30701 0.17901,1.26886 0.8817,2.74542 1.56154,3.28125 0.67983,0.53584 1.39289,1.81799 1.58457,2.84924 0.29592,1.59204 0.97397,1.83375 4.49306,1.60165 4.89849,-0.32306 5.54744,-0.75188 3.5026,-2.31446 -2.15818,-1.64919 -3.1878,-6.31844 -1.39328,-6.31844 2.53314,0 5.85373,4.18081 7.07375,8.90625 1.19965,4.64652 3.42454,7.46421 5.08402,6.43859 0.47397,-0.29293 1.43499,0.24793 2.1356,1.2019 1.20371,1.63902 1.32803,1.59257 2.25817,-0.84362 1.18867,-3.11332 2.69313,-3.31619 3.73362,-0.50348 l 0.76746,2.07464 1.14239,-2.13456 c 0.82751,-1.54623 0.86154,-2.47297 0.12343,-3.36233 -0.7738,-0.93237 -0.42987,-1.61374 1.4295,-2.83205 3.59042,-2.35253 6.56299,-1.21005 8.93158,3.43276 2.84972,5.58593 5.34518,7.79292 4.65179,4.11406 -0.28258,-1.49925 2.16395,-2.40055 6.55616,-2.41531 2.35067,-0.008 5.07129,-0.59739 6.04583,-1.30998 1.56565,-1.14483 1.96853,-1.04566 3.46125,0.85202 l 1.68936,2.14767 3.98356,-1.91306 c 2.19096,-1.05218 4.3276,-2.38481 4.7481,-2.9614 0.42049,-0.57659 0.47572,-0.0304 0.12273,1.21374 -1.62918,5.74213 -3.50102,8.53725 -7.77214,11.60575 -8.74317,6.28134 -9.55741,6.50384 -24.28458,6.6361 -7.41431,0.0666 -12.50463,-0.15329 -11.31181,-0.48861 z m 7.75372,-10.10679 c 0.29666,-0.48 0.11062,-1.13771 -0.41342,-1.46158 -0.52403,-0.32387 -0.95279,0.0688 -0.95279,0.87272 0,1.64675 0.56255,1.88921 1.36621,0.58886 z m 2.38379,-7.1555 c 0,-1.61111 -1.62253,-2.58177 -3.26322,-1.95217 -1.04317,0.40029 -1.08257,0.95566 -0.20042,2.82492 0.81432,1.72554 1.40362,2.07305 2.28083,1.34503 0.65054,-0.5399 1.18281,-1.5379 1.18281,-2.21778 z m -15.9375,-3.22178 c 0,-0.51563 0.42187,-0.9375 0.9375,-0.9375 0.51562,0 0.9375,0.42187 0.9375,0.9375 0,0.51562 -0.42188,0.9375 -0.9375,0.9375 -0.51563,0 -0.9375,-0.42188 -0.9375,-0.9375 z m -18.75,-12.1875 c 0,-0.51563 0.42187,-0.9375 0.9375,-0.9375 0.51562,0 0.9375,0.42187 0.9375,0.9375 0,0.51562 -0.42188,0.9375 -0.9375,0.9375 -0.51563,0 -0.9375,-0.42188 -0.9375,-0.9375 z m 36.36911,-61.04891 c -0.1923,-0.57691 -0.0521,-3.42456 0.31152,-6.32813 0.36363,-2.90356 0.69675,-9.16671 0.74026,-13.9181 0.0691,-7.54261 0.30983,-8.76237 1.89721,-9.61191 1.19529,-0.6397 2.01519,-0.65414 2.39341,-0.0422 0.78092,1.26357 -0.39918,15.99426 -1.8598,23.21484 -0.97598,4.82483 -0.96695,5.85938 0.0512,5.85938 0.68005,0 1.49718,0.42187 1.81585,0.9375 0.33669,0.54477 -0.58922,0.9375 -2.21029,0.9375 -1.53434,0 -2.94704,-0.47201 -3.13934,-1.04891 z"
         id="path3893"
         inkscape:connector-curvature="0" />
      <path
         style="fill:#bab910"
         d="m 311.14655,677.03943 c 1.98099,-0.51361 1.68594,-0.7003 -1.90632,-1.20618 -2.33753,-0.32919 -6.97816,-1.85758 -10.3125,-3.39642 -5.26347,-2.42914 -9.56283,-3.70103 -13.75557,-4.06933 -0.62185,-0.0546 -0.96821,-0.36211 -0.7697,-0.6833 0.19851,-0.3212 -0.78734,-1.35573 -2.19077,-2.29898 -4.78741,-3.21758 -7.11551,-7.8941 -7.62764,-15.3218 -0.25781,-3.73919 -0.15234,-6.79778 0.23437,-6.79687 0.38672,9e-4 0.70313,0.61961 0.70313,1.3749 0,1.89434 3.43769,3.69794 4.06911,2.13487 0.2587,-0.64041 0.50367,-0.28054 0.54438,0.79969 0.0407,1.08025 0.91776,2.72766 1.94901,3.66093 1.03125,0.93327 1.875,2.42356 1.875,3.31176 0,2.45349 2.30593,3.88235 5.124,3.17506 2.03883,-0.51171 2.58658,-0.25907 3.01839,1.39217 0.38376,1.4675 1.01079,1.86397 2.30053,1.45462 1.03946,-0.32992 3.22162,0.30837 5.27441,1.54276 4.66842,2.80723 4.57761,2.69526 3.00552,3.70585 -2.35312,1.51266 0.71516,2.71847 4.13708,1.62584 1.60672,-0.51303 3.84963,-0.8957 4.98423,-0.85039 1.13461,0.0453 2.31966,-0.33303 2.63346,-0.84076 1.13404,-1.83494 1.96517,-0.8563 2.05814,2.4234 0.12064,4.25613 0.75917,4.85588 3.0055,2.82297 1.44634,-1.30891 2.19273,-1.42277 3.77513,-0.5759 2.37617,1.27169 4.84018,0.21445 2.52275,-1.08245 -2.10694,-1.1791 -1.9144,-2.63618 0.34836,-2.63618 1.03125,0 1.875,0.44772 1.875,0.99494 0,0.64792 1.47146,0.77429 4.21875,0.36231 2.85303,-0.42784 4.21875,-0.2947 4.21875,0.41131 0,2.02564 3.7869,1.06894 4.63889,-1.17195 1.02583,-2.69815 3.79861,-4.04301 3.79861,-1.84242 0,0.82933 -0.73828,2.11615 -1.64063,2.85961 -1.55279,1.2794 -1.54869,1.32257 0.0767,0.80649 0.94452,-0.29991 2.1262,-0.54529 2.62596,-0.54529 0.49977,0 1.51092,-1.44141 2.24702,-3.20313 0.73609,-1.76172 2.60002,-4.10151 4.14207,-5.19955 l 2.80372,-1.99643 -1.61179,4.43161 c -2.44183,6.71384 -10.21788,11.62933 -21.29928,13.46395 -5.77513,0.95612 -24.33576,1.80286 -21.09375,0.96229 z m 27.74128,-6.34247 c -0.65016,-0.65014 -2.42878,0.67083 -2.42878,1.80385 0,0.62166 0.53792,0.55053 1.42891,-0.18893 0.78589,-0.65223 1.23584,-1.37895 0.99987,-1.61492 z m -51.69702,-10.63384 c -0.30185,-0.48841 -0.94843,-0.64105 -1.43683,-0.33919 -0.48841,0.30185 -0.64104,0.94842 -0.33919,1.43683 0.30185,0.48841 0.94843,0.64105 1.43683,0.33919 0.48841,-0.30185 0.64104,-0.94842 0.33919,-1.43683 z m 33.79949,4.76757 c -0.31867,-0.51563 0.28924,-0.9375 1.35092,-0.9375 1.06168,0 1.93033,0.42187 1.93033,0.9375 0,0.51562 -0.60791,0.9375 -1.35092,0.9375 -0.74301,0 -1.61166,-0.42188 -1.93033,-0.9375 z m -12.65625,-1.81967 c 0,-1.06168 0.42187,-1.93033 0.9375,-1.93033 0.51562,0 0.9375,0.60791 0.9375,1.35092 0,0.74301 -0.42188,1.61166 -0.9375,1.93033 -0.51563,0.31867 -0.9375,-0.28924 -0.9375,-1.35092 z m 15.53925,-93.57096 c 0.48323,-11.60389 0.92239,-15.01012 2.05094,-15.90746 0.78982,-0.62802 1.82411,-0.902 2.29843,-0.60886 1.05654,0.65297 0.0568,15.41201 -1.59499,23.54757 -0.98008,4.82706 -0.97184,5.85938 0.0468,5.85938 0.68004,0 1.49718,0.42187 1.81585,0.9375 0.33867,0.54797 -0.62787,0.9375 -2.32624,0.9375 l -2.90565,0 0.61489,-14.76563 z"
         id="path3891"
         inkscape:connector-curvature="0" />
      <path
         style="fill:#584a1a"
         d="m 323.90718,568.58302 c 0.45759,-10.84036 0.90322,-14.16047 2.0201,-15.05042 2.62135,-2.08876 3.14428,-0.25599 2.48593,8.71275 -0.81737,11.13515 -2.4494,19.365 -3.93863,19.86141 -0.89709,0.29903 -1.0236,-2.71626 -0.5674,-13.52374 z"
         id="path3889"
         inkscape:connector-curvature="0" />
    </g>
  </g>
</svg>
