<?xml version="1.0" encoding="UTF-8" standalone="no"?>
<!-- Created with Inkscape (http://www.inkscape.org/) -->

<svg
   xmlns:dc="http://purl.org/dc/elements/1.1/"
   xmlns:cc="http://creativecommons.org/ns#"
   xmlns:rdf="http://www.w3.org/1999/02/22-rdf-syntax-ns#"
   xmlns:svg="http://www.w3.org/2000/svg"
   xmlns="http://www.w3.org/2000/svg"
   xmlns:sodipodi="http://sodipodi.sourceforge.net/DTD/sodipodi-0.dtd"
   xmlns:inkscape="http://www.inkscape.org/namespaces/inkscape"
   width="34.612267mm"
   height="31.339968mm"
   viewBox="0 0 122.64189 111.04712"
   id="svg2"
   version="1.1"
   inkscape:version="0.91 r13725"
   sodipodi:docname="Halloween Pumpkin.svg">
  <defs
     id="defs4" />
  <sodipodi:namedview
     id="base"
     pagecolor="#ffffff"
     bordercolor="#666666"
     borderopacity="1.0"
     inkscape:pageopacity="0.0"
     inkscape:pageshadow="2"
     inkscape:zoom="5.6"
     inkscape:cx="45.54488"
     inkscape:cy="62.89773"
     inkscape:document-units="px"
     inkscape:current-layer="layer1"
     showgrid="false"
     fit-margin-top="0"
     fit-margin-left="0"
     fit-margin-right="0"
     fit-margin-bottom="0"
     inkscape:window-width="1920"
     inkscape:window-height="1031"
     inkscape:window-x="1"
     inkscape:window-y="0"
     inkscape:window-maximized="0" />
  <metadata
     id="metadata7">
    <rdf:RDF>
      <cc:Work
         rdf:about="">
        <dc:format>image/svg+xml</dc:format>
        <dc:type
           rdf:resource="http://purl.org/dc/dcmitype/StillImage" />
        <dc:title></dc:title>
      </cc:Work>
    </rdf:RDF>
  </metadata>
  <g
     inkscape:label="Layer 1"
     inkscape:groupmode="layer"
     id="layer1"
     transform="translate(-268.07429,-540.43749)">
    <g
       id="g4726"
       transform="translate(-0.53571689,0.35714289)">
      <path
         style="fill:#edec6d"
         d="m 299.58739,648.98827 c -2.73937,-1.18242 -5.48628,-2.16679 -6.10424,-2.1875 -2.65935,-0.0891 -12.58235,-12.26345 -15.75547,-19.33006 -0.90793,-2.02199 -2.42252,-5.36384 -3.36576,-7.42634 -2.1622,-4.72788 -4.63445,-11.71875 -4.14421,-11.71875 0.20436,0 -0.17855,-1.06034 -0.85091,-2.35632 -0.9094,-1.75287 -0.9863,-3.37348 -0.30028,-6.32812 0.50721,-2.1845 0.98906,-6.08119 1.07079,-8.65931 0.17325,-5.46522 1.20004,-8.90625 2.65759,-8.90625 0.56681,0 0.78398,-0.24659 0.48259,-0.54798 -0.83496,-0.83496 2.1055,-3.97453 6.79798,-7.25831 2.32031,-1.62374 4.42969,-2.99271 4.6875,-3.04216 0.25781,-0.0495 1.69092,-0.59504 3.18469,-1.21242 2.34221,-0.96805 8.88495,-1.49498 28.69031,-2.31063 2.32031,-0.0956 4.74609,-0.5119 5.39062,-0.9252 1.95687,-1.25483 1.32331,-4.39853 -1.64062,-8.1408 -1.54688,-1.95309 -2.8125,-4.24545 -2.8125,-5.09413 0,-1.98367 3.54833,-8.96837 4.55607,-8.96837 0.42238,0 1.2474,-1.05225 1.83338,-2.33833 2.02284,-4.43965 9.43756,-1.46176 9.51823,3.8227 0.0164,1.07422 0.34623,2.26955 0.73294,2.65628 0.38672,0.38673 0.70313,3.99867 0.70313,8.02654 0,8.50765 1.60109,11.29975 6.49013,11.31798 5.32326,0.0199 10.35669,0.60628 14.13487,1.64681 5.32862,1.46753 9.01172,2.25679 11.74467,2.51678 2.99054,0.28451 10.28658,3.96054 10.28658,5.18279 0,0.50515 0.73828,0.92047 1.64062,0.92293 1.91781,0.005 8.67188,5.93093 8.67188,7.60828 0,0.63022 0.59062,1.81188 1.3125,2.62592 1.82268,2.05539 2.74195,9.94071 1.44205,12.3696 -0.57794,1.07989 -1.20091,3.29027 -1.38437,4.91195 -0.38723,3.42297 -3.37934,13.86 -5.1455,17.94852 -0.66823,1.54687 -1.16032,3.08844 -1.09354,3.42571 0.0668,0.33726 -0.49791,1.1272 -1.25486,1.75541 -0.75696,0.62822 -1.37628,1.72721 -1.37628,2.4422 0,0.715 -1.26941,2.62831 -2.82091,4.2518 -1.5515,1.6235 -2.61979,3.15293 -2.37397,3.39874 1.09847,1.09848 -7.93865,6.6681 -11.73927,7.23496 -2.25298,0.33603 -4.75761,0.96488 -5.56585,1.39743 -3.43569,1.83872 -9.073,1.88256 -14.57431,0.11332 -3.32518,-1.06939 -5.94202,-1.45518 -6.47257,-0.95424 -0.48984,0.46251 -1.88867,0.84092 -3.1085,0.84092 -1.21984,0 -3.08269,0.46283 -4.13968,1.02851 -1.05698,0.56568 -6.51355,1.09302 -12.12569,1.17188 -5.61215,0.0788 -10.20399,0.38945 -10.20408,0.69023 -3.4e-4,1.08776 -2.79326,0.5045 -7.67575,-1.60297 z"
         id="path4742"
         inkscape:connector-curvature="0" />
      <path
         style="fill:#db8c16"
         d="m 301.28395,649.4001 c -1.9994,-1.02687 -4.70034,-2.06016 -6.00209,-2.29622 -1.30175,-0.23605 -3.3712,-1.21924 -4.59879,-2.18486 -3.58373,-2.81896 -12.04911,-15.08979 -13.92668,-20.18715 -0.94963,-2.57813 -2.23437,-5.53125 -2.85497,-6.5625 -2.3695,-3.93736 -5.31614,-15.36299 -4.64343,-18.00495 0.36691,-1.44103 0.96334,-5.36224 1.32538,-8.7138 0.82828,-7.66758 3.18686,-12.12548 8.5546,-16.16886 5.7346,-4.31972 10.65986,-6.0818 17.34375,-6.20495 11.56989,-0.21319 23.98953,-1.0045 24.9348,-1.58872 2.72869,-1.68641 2.48503,-4.64769 -0.74692,-9.07763 -3.03045,-4.15376 -3.17255,-4.66283 -2.15884,-7.73438 0.59681,-1.80838 1.40785,-3.28796 1.80229,-3.28796 0.39444,0 1.51234,-1.47656 2.48423,-3.28125 1.68029,-3.12011 2.83262,-3.7524 6.02819,-3.30771 1.57629,0.21935 4.67832,2.74221 4.49249,3.65371 -0.0663,0.32533 0.1996,2.12709 0.59094,4.00392 0.39133,1.87683 0.79083,6.13791 0.88778,9.46905 0.26157,8.98851 1.41976,10.22447 9.99772,10.66906 5.99695,0.31083 13.89998,1.72222 21.06232,3.76149 1.03125,0.29362 3.03516,0.75001 4.45312,1.0142 1.41797,0.26419 2.57914,0.74887 2.58038,1.07706 9.4e-4,0.3282 2.90232,2.22787 6.44683,4.22149 4.87941,2.74444 6.95247,4.56594 8.53583,7.5 3.85638,7.1462 3.92749,9.97681 0.55658,22.15648 -1.35573,4.89844 -2.58754,9.53906 -2.73738,10.3125 -0.72555,3.74523 -1.83882,6.5625 -2.59324,6.5625 -0.45973,0 -0.83587,0.84375 -0.83587,1.875 0,1.03125 -0.42188,1.875 -0.9375,1.875 -0.51563,0 -0.9375,0.61543 -0.9375,1.36762 0,2.08687 -7.07321,11.03064 -10.52877,13.31317 -1.68574,1.11349 -4.91483,2.2692 -7.17576,2.56823 -2.26092,0.29904 -4.6867,1.02168 -5.39062,1.60589 -0.70392,0.58419 -1.27985,0.83358 -1.27985,0.5542 0,-0.27939 -1.38902,-0.12444 -3.08671,0.34431 -1.98426,0.54788 -4.24442,0.49311 -6.32812,-0.15335 -6.56449,-2.03661 -9.35458,-2.51461 -9.86424,-1.68997 -0.2855,0.46195 -1.94585,0.8399 -3.68968,0.8399 -1.74383,0 -3.43558,0.42876 -3.75945,0.95279 -0.32387,0.52403 -0.95243,0.72809 -1.3968,0.45346 -0.44437,-0.27463 -1.07718,-0.0637 -1.40625,0.46875 -0.32907,0.53244 -0.96198,0.74332 -1.40646,0.46862 -1.59078,-0.98316 -17.62466,-0.33364 -19.44853,0.78785 -0.38913,0.23927 -2.34338,-0.40513 -4.34278,-1.43199 z m 25.57238,-15.35788 2.86222,-2.4084 3.3454,2.55166 3.3454,2.55166 3.04956,-2.95576 c 3.57729,-3.46724 4.4405,-3.61634 6.04671,-1.04438 1.33191,2.13272 3.00735,1.6638 3.00735,-0.84171 0,-2.44186 1.93826,-4.05926 3.40538,-2.84165 0.65999,0.54774 1.63008,0.73008 2.15576,0.4052 1.08094,-0.66806 5.87721,-15.63236 5.22079,-16.28879 -0.23391,-0.23391 -0.72086,0.37337 -1.08211,1.34951 -1.09757,2.96582 -2.355,3.10234 -4.64386,0.50418 -2.09102,-2.37359 -2.18547,-2.39366 -2.21383,-0.4703 -0.0163,1.10499 -0.66244,2.25191 -1.43588,2.5487 -0.77344,0.2968 -1.40625,1.18569 -1.40625,1.97531 0,1.99099 -1.8314,1.40759 -4.32208,-1.37683 l -2.09649,-2.34375 -0.97742,2.34375 c -1.29769,3.11174 -3.35397,5.625 -4.60224,5.625 -0.55564,0 -2.37362,-1.89844 -4.03994,-4.21875 -1.66633,-2.32031 -3.33084,-4.21875 -3.69891,-4.21875 -0.6312,0 -2.09461,3.55541 -1.97113,4.78893 0.0314,0.3136 -1.12233,1.70013 -2.56383,3.08117 l -2.62091,2.51099 -2.50432,-3.78429 c -2.88532,-4.36002 -4.5469,-4.75518 -6.05715,-1.44055 -0.58733,1.28906 -1.45028,2.34375 -1.91766,2.34375 -1.07822,0 -4.19042,-4.69774 -4.19042,-6.32528 0,-0.67474 -0.45703,-1.05688 -1.01563,-0.8492 -0.55859,0.20768 -0.90624,0.86395 -0.77255,1.45838 0.13369,0.59442 -0.46111,1.35099 -1.32178,1.68126 -1.05738,0.40576 -2.27132,-0.2855 -3.74333,-2.13158 l -2.17847,-2.73207 0.37538,2.96609 c 0.56859,4.49277 6.74751,13.66869 8.77166,13.02625 1.67772,-0.53249 4.43714,2.60498 3.55147,4.03803 -0.82825,1.34013 2.70081,0.84024 4.38012,-0.62045 1.47278,-1.28104 1.81603,-1.2683 3.35507,0.12452 0.94295,0.85336 2.20857,1.55155 2.8125,1.55155 0.60393,0 1.09806,0.42187 1.09806,0.9375 0,1.56808 1.58489,1.06057 4.59336,-1.4709 z m -16.78086,-29.4666 c 0,-0.51563 0.79174,-1.72924 1.75942,-2.69692 1.55216,-1.55216 2.2424,-1.63425 5.85938,-0.69688 2.25497,0.5844 4.53972,1.34692 5.07721,1.69448 1.51091,0.97699 1.44152,-2.9362 -0.10509,-5.92701 -1.89134,-3.65746 -6.91259,-9.24867 -8.30587,-9.24867 -0.63014,0 -2.13654,1.05469 -3.34755,2.34375 -1.21101,1.28906 -1.83299,2.34375 -1.38217,2.34375 0.45082,0 0.34639,0.47328 -0.23207,1.05174 -0.57846,0.57846 -0.82863,1.63314 -0.55595,2.34375 0.27269,0.71061 0.0408,1.29201 -0.5152,1.29201 -1.46237,0 -2.86686,5.83332 -1.74935,7.26562 1.09201,1.39962 3.49724,1.56081 3.49724,0.23438 z m 30.29395,-2.8425 c 2.67896,-2.10727 6.63761,-1.75676 8.01805,0.70995 0.63363,1.13223 1.18474,1.19586 2.81244,0.32475 2.34692,-1.25604 2.14947,-1.80676 -3.8096,-10.62559 l -3.65035,-5.40215 -2.2692,1.65215 c -1.24806,0.90868 -2.1386,2.07401 -1.97898,2.58964 0.15962,0.51562 -0.486,1.6185 -1.43472,2.45083 -0.94872,0.83233 -2.3315,3.23252 -3.07286,5.33376 -1.39977,3.96736 -1.35466,4.05737 2.38671,4.76291 0.31719,0.0598 1.66652,-0.7485 2.99851,-1.79625 z"
         id="path4740"
         inkscape:connector-curvature="0" />
      <path
         style="fill:#e3760b"
         d="m 300.37229,649.00042 c -1.46957,-0.80189 -3.73319,-1.65043 -5.03027,-1.88563 -1.29708,-0.2352 -3.25877,-1.11385 -4.35931,-1.95253 -3.04072,-2.31722 -11.34476,-14.21088 -13.60976,-19.49289 -1.10553,-2.57813 -2.62897,-5.86745 -3.38541,-7.30961 -0.9446,-1.80088 -1.01407,-2.41105 -0.22183,-1.94822 0.63443,0.37064 0.30976,-0.3149 -0.72149,-1.52342 -1.03125,-1.20852 -1.34766,-1.88895 -0.70313,-1.51207 1.71401,1.00222 1.48372,-6.903 -0.26858,-9.22 -0.75946,-1.0042 -1.12272,-2.63907 -0.80725,-3.63303 0.37722,-1.18852 0.21826,-1.5876 -0.46435,-1.16572 -0.57087,0.35281 -1.03794,1.53064 -1.03794,2.6174 0,1.08676 -0.25108,1.72484 -0.55796,1.41796 -1.02232,-1.02232 0.68644,-6.31704 2.0387,-6.31704 0.73247,0 1.33176,-0.42188 1.33176,-0.9375 0,-0.51563 -0.50625,-0.9375 -1.125,-0.9375 -0.875,0 -0.875,-0.25 0,-1.125 1.32408,-1.32408 1.52684,-3.92151 0.24424,-3.12882 -1.47708,0.91289 -0.90856,-3.46887 1.03012,-7.93942 1.30873,-3.0179 3.22256,-5.18292 6.70068,-7.58013 7.67193,-5.28768 8.69112,-5.5921 20.03459,-5.98404 4.73186,-0.1635 9.02693,-0.55903 9.54459,-0.87897 0.51767,-0.31994 1.21887,-0.13246 1.55821,0.41661 0.43176,0.6986 1.00005,0.68041 1.89289,-0.0606 0.70173,-0.58239 2.67416,-0.93843 4.38316,-0.79119 6.63562,0.57169 8.37305,-3.45407 4.09608,-9.49097 -4.14098,-5.84496 -3.43748,-8.8686 3.85291,-16.55968 1.60005,-1.68799 2.53596,-1.9949 4.21875,-1.38345 3.10654,1.1288 4.68972,5.07147 5.09588,12.69055 0.19524,3.66236 0.63533,8.1354 0.97799,9.94008 0.34265,1.80469 0.55199,3.59766 0.46521,3.98438 -0.0868,0.38672 0.15861,0.65317 0.54532,0.5921 0.38672,-0.0611 0.91407,-0.005 1.17188,0.12506 0.39935,0.20111 5.28741,0.66986 10.3125,0.98893 1.79529,0.11399 10.20008,1.59291 12.65625,2.22702 1.03125,0.26623 3.93183,0.95948 6.44572,1.54054 4.77987,1.10482 10.89803,4.23147 10.89803,5.56937 0,0.42883 0.94922,0.9145 2.10937,1.07927 1.16016,0.16477 2.14581,0.72145 2.19035,1.23708 0.0445,0.51562 0.40813,1.68115 0.808,2.59006 0.42943,0.97608 0.25335,2.22334 -0.43013,3.04688 -1.07178,1.29141 -0.63417,1.80966 1.25147,1.4821 0.42504,-0.0738 0.5031,0.30215 0.17346,0.83553 -0.98802,1.59863 2.72734,5.6213 4.28267,4.63692 0.73346,-0.46422 1.60078,-0.85049 1.92739,-0.85838 1.22795,-0.0297 1.37449,4.4153 0.24828,7.53125 l -1.16946,3.23564 0.16367,-4.13252 c 0.0937,-2.36339 -0.28801,-4.28656 -0.89141,-4.49233 -1.37694,-0.46955 -2.23137,4.02588 -0.99935,5.25791 0.63946,0.63946 0.30713,1.4949 -1.02032,2.62639 -1.08276,0.92293 -2.0749,2.5218 -2.20474,3.55305 -0.35719,2.83684 1.01463,6.09375 2.56669,6.09375 1.04362,0 0.90411,0.51038 -0.57286,2.09573 -1.07386,1.15265 -1.54002,2.23321 -1.0359,2.40125 0.8687,0.28956 -0.7743,6.29786 -2.43765,8.91421 -0.39164,0.61603 -0.74864,1.331 -0.79333,1.58881 -0.24393,1.40723 -3.05451,6.5603 -5.3122,9.73968 -3.61689,5.09345 -8.90887,8.69803 -13.74603,9.36296 -2.26092,0.31079 -4.6867,1.04306 -5.39062,1.62727 -0.70392,0.58419 -1.27985,0.84401 -1.27985,0.57736 0,-0.26665 -1.55085,-0.13504 -3.44634,0.29247 -2.41807,0.54536 -4.5859,0.35821 -7.26563,-0.62727 -4.9022,-1.80278 -7.28266,-2.0755 -8.72922,-1.00005 -0.63796,0.47429 -1.74563,0.6376 -2.46148,0.3629 -0.71584,-0.2747 -2.40872,0.075 -3.76193,0.77702 -1.35322,0.70206 -2.4604,1.00617 -2.4604,0.67582 0,-0.33037 -0.45415,-0.14651 -1.00923,0.40857 -0.67442,0.67442 -2.24941,0.73058 -4.74755,0.16928 -2.05608,-0.46197 -4.07687,-0.6307 -4.49066,-0.37497 -0.41378,0.25573 -3.86723,0.67349 -7.67432,0.92836 -5.18631,0.34719 -7.59197,0.0978 -9.59392,-0.9946 z m 25.80124,-12.22635 c 0.94294,-0.85335 1.71444,-2.11898 1.71444,-2.8125 0,-1.98692 2.50857,-1.47305 4.38508,0.89826 0.93977,1.18757 2.39852,2.42137 3.24167,2.74178 1.74714,0.66394 5.79366,-1.78956 5.01893,-3.0431 -0.28088,-0.45447 0.24262,-1.22948 1.16334,-1.72223 1.22713,-0.65674 2.26297,-0.41902 3.88012,0.89046 2.24348,1.81667 4.38089,2.42854 3.49903,1.00166 -0.8761,-1.41757 2.3814,-5.02443 4.12578,-4.56826 1.21812,0.31854 2.20794,-0.66954 3.73625,-3.72968 1.14351,-2.28966 1.82354,-4.4186 1.51117,-4.73097 -0.31237,-0.31237 0.0839,-1.56276 0.88055,-2.77864 0.79668,-1.21588 1.21315,-2.5915 0.9255,-3.05693 -0.28765,-0.46543 -0.0931,-1.11193 0.43232,-1.43667 0.64399,-0.398 0.62767,-1.20267 -0.0501,-2.46906 -0.79912,-1.49317 -1.27842,-1.65206 -2.33596,-0.77438 -0.7318,0.60735 -1.1289,1.43053 -0.88244,1.82931 0.24646,0.39878 -0.19876,1.2619 -0.98937,1.91805 -1.1969,0.99334 -1.67517,0.85366 -2.85765,-0.83457 -1.11274,-1.58865 -1.79571,-1.8266 -3.15493,-1.09916 -1.26684,0.67799 -1.67004,0.61566 -1.49483,-0.23108 0.5046,-2.43857 2.46603,-6.51267 3.75697,-7.80361 1.66864,-1.66864 1.32921,-3.59774 -1.46685,-8.33671 -1.19811,-2.03064 -2.25609,-4.22155 -2.35107,-4.86868 -0.095,-0.64714 -1.07108,-2.43828 -2.16911,-3.98032 -2.164,-3.03907 -3.45419,-2.99119 -7.78427,0.28885 -1.53453,1.16241 -2.17777,2.3867 -1.87077,3.56066 0.26762,1.02339 -0.33381,2.67266 -1.40522,3.85347 -2.52534,2.78322 -3.23297,6.36623 -1.67211,8.46658 1.07877,1.45164 1.60973,1.54103 3.4605,0.58266 1.20242,-0.62264 2.93446,-1.78508 3.84899,-2.58321 1.27471,-1.11246 1.92016,-1.19374 2.76562,-0.34828 0.84547,0.84547 0.7309,1.10285 -0.4909,1.10285 -0.87656,0 -1.64759,0.31641 -1.7134,0.70312 -0.37237,2.18834 -0.69762,4.7808 -0.91154,7.26563 -0.13317,1.54687 -0.85221,3.53691 -1.59787,4.4223 -0.74566,0.88539 -1.12953,2.47484 -0.85305,3.53211 0.29138,1.11424 -0.14289,2.56791 -1.03307,3.45809 -1.42268,1.42268 -1.57185,1.38288 -2.02591,-0.54057 -0.26959,-1.14199 -0.91204,-2.14441 -1.42766,-2.22762 -0.51563,-0.0832 -1.93439,-1.33602 -3.15282,-2.78404 -1.73732,-2.06469 -2.49366,-2.40175 -3.5053,-1.56216 -0.70949,0.58882 -1.07681,1.41551 -0.81627,1.83709 0.26055,0.42157 0.0189,1.04756 -0.5369,1.39109 -0.55584,0.34353 -1.41827,1.69681 -1.91652,3.0073 -0.49824,1.31048 -1.06665,2.21872 -1.26313,2.0183 -0.19647,-0.20041 -2.68624,-3.52845 -5.53282,-7.39564 -5.16758,-7.02037 -5.17271,-7.03415 -3.31247,-8.90625 1.82496,-1.8366 1.89021,-1.83855 3.18599,-0.0953 1.01325,1.36317 1.62022,1.53296 2.59324,0.72543 0.94634,-0.78539 1.58682,-0.76109 2.51104,0.0953 0.99872,0.92539 1.13468,0.84681 0.69716,-0.40297 -0.31404,-0.89708 0.20867,-2.23325 1.23811,-3.16488 1.37527,-1.2446 1.56478,-2.01747 0.83092,-3.38871 -0.52288,-0.977 -0.67855,-2.2167 -0.34594,-2.75487 0.77452,-1.2532 -5.70572,-11.06909 -7.82273,-11.84941 -0.88086,-0.32468 -1.84974,-0.95747 -2.15306,-1.40621 -0.30333,-0.44873 -1.14708,-0.0821 -1.875,0.8147 -1.15211,1.41943 -1.14139,1.53116 0.0827,0.86276 0.77344,-0.42231 0.14062,0.47106 -1.40625,1.98526 -1.73616,1.69949 -3.21715,2.45508 -3.86987,1.97437 -0.67164,-0.49466 -1.23812,-0.0875 -1.55285,1.11602 -0.30511,1.16673 -0.0381,1.89476 0.69499,1.89476 1.66805,0 1.28638,2.79972 -0.80401,5.89778 -1.55352,2.30239 -1.61348,2.92144 -0.49947,5.15625 0.69631,1.39685 1.29465,2.96159 1.32964,3.47722 0.035,0.51562 0.36526,1.4187 0.73392,2.00683 0.38821,0.6193 -0.3469,1.73582 -1.74674,2.65303 -1.32937,0.87104 -2.17316,1.82759 -1.87509,2.12567 0.65341,0.6534 -1.20949,3.05822 -2.36906,3.05822 -0.45249,0 -0.82271,-1.00303 -0.82271,-2.22896 0,-1.22593 -0.62859,-2.75064 -1.39687,-3.38826 -2.25792,-1.8739 -3.35689,2.41716 -1.65948,6.47962 0.74775,1.78962 1.5101,4.03566 1.69413,4.9912 0.33506,1.73984 5.08888,7.96178 5.72188,7.48897 0.60844,-0.45447 5.11397,0.9338 4.62323,1.42454 -0.26368,0.26368 -0.0505,1.28085 0.47372,2.26037 0.92647,1.73114 1.03294,1.72412 3.80609,-0.25053 l 2.85296,-2.03149 2.93976,2.93977 c 3.37384,3.37384 4.05963,3.52218 6.41764,1.38822 z m -16.09806,-18.84794 c 0,-0.39159 0.94922,-1.2951 2.10937,-2.0078 2.10189,-1.29121 2.10304,-1.28868 0.32345,0.71199 -1.9107,2.14808 -2.43282,2.42618 -2.43282,1.29581 z m 2.53436,-13.7898 c 2.10914,-2.89787 4.13088,-2.98939 5.82824,-0.26384 1.14712,1.84201 1.13974,1.96575 -0.0582,0.97624 -1.08121,-0.89306 -1.93039,-0.8434 -4.00778,0.23437 -3.54785,1.84065 -3.72262,1.74675 -1.76221,-0.94677 z m 9.67095,13.07408 c 0.99074,-1.19376 0.93274,-1.33095 -0.35396,-0.8372 -0.84637,0.32478 -1.53885,0.96725 -1.53885,1.42771 0,1.20559 0.54269,1.03628 1.89281,-0.59051 z m 53.41969,-5.13479 c 0,-0.51563 -0.44678,-0.9375 -0.99283,-0.9375 -0.54606,0 -0.7321,0.42187 -0.41342,0.9375 0.31867,0.51562 0.76545,0.9375 0.99283,0.9375 0.22738,0 0.41342,-0.42188 0.41342,-0.9375 z m 0.34109,-4.21337 c -0.29566,-0.77047 -0.96027,-1.13961 -1.47692,-0.82031 -0.57759,0.35698 -0.4495,0.89094 0.33262,1.38651 1.70701,1.08162 1.76552,1.05267 1.1443,-0.5662 z m -70.65359,-12.24821 c 0,-0.80387 -0.42188,-1.20084 -0.9375,-0.88217 -0.51563,0.31867 -0.9375,0.97638 -0.9375,1.46158 0,0.48519 0.42187,0.88217 0.9375,0.88217 0.51562,0 0.9375,-0.65771 0.9375,-1.46158 z m 80.10676,-0.49349 c -0.30185,-0.48841 -0.94842,-0.64104 -1.43683,-0.33919 -0.48841,0.30185 -0.64105,0.94843 -0.33919,1.43683 0.30185,0.48841 0.94842,0.64104 1.43683,0.33919 0.48841,-0.30185 0.64105,-0.94843 0.33919,-1.43683 z m -111.51301,-7.41993 c 0.31867,-0.51563 0.13263,-0.9375 -0.41342,-0.9375 -0.54606,0 -0.99283,0.42187 -0.99283,0.9375 0,0.51562 0.18604,0.9375 0.41342,0.9375 0.22738,0 0.67416,-0.42188 0.99283,-0.9375 z m 7.42984,-9.48853 c -0.60756,-0.98305 -2.27359,-0.1939 -2.27359,1.07693 0,0.46902 0.63039,0.61085 1.40086,0.31519 0.77048,-0.29566 1.16321,-0.92211 0.87273,-1.39212 z m 38.50766,-5.51147 c 0.31867,-0.51563 0.15753,-0.9375 -0.35809,-0.9375 -0.51563,0 -1.19824,0.42187 -1.51691,0.9375 -0.31867,0.51562 -0.15753,0.9375 0.35809,0.9375 0.51563,0 1.19824,-0.42188 1.51691,-0.9375 z m 67.0456,36.38345 c -0.008,-0.87191 0.40752,-1.84603 0.92315,-2.1647 1.1865,-0.7333 1.1865,0.50778 0,2.34375 -0.78319,1.21189 -0.91077,1.18715 -0.92315,-0.17905 z m -1.88935,-24.6647 c -0.6727,-0.81056 -0.76382,-1.40625 -0.21509,-1.40625 0.52359,0 1.19482,0.63281 1.49162,1.40625 0.29679,0.77344 0.39358,1.40625 0.21509,1.40625 -0.17849,0 -0.84972,-0.63281 -1.49162,-1.40625 z"
         id="path4738"
         inkscape:connector-curvature="0" />
      <path
         style="fill:#d46d0a"
         d="m 300.37229,649.00042 c -1.46957,-0.80189 -3.73319,-1.65043 -5.03027,-1.88563 -3.49968,-0.63462 -5.83766,-2.7543 -11.15965,-10.11766 -5.28931,-7.31814 -9.02878,-14.80577 -9.02878,-18.07853 0,-1.16623 -0.58528,-2.60615 -1.30062,-3.19983 -0.996,-0.82661 -1.04705,-1.38495 -0.21797,-2.38394 0.59546,-0.71749 0.81526,-1.57192 0.48845,-1.89873 -0.32682,-0.32682 -0.13977,-1.14178 0.41566,-1.81103 1.11495,-1.34344 1.73091,-11.61195 0.69654,-11.61195 -1.67992,0 0.59406,-8.87865 3.09378,-12.07956 0.96032,-1.22969 1.74604,-2.60078 1.74604,-3.04687 0,-1.13488 -3.51197,-1.01716 -4.2282,0.14172 -0.32387,0.52404 -1.04677,0.66979 -1.60643,0.3239 -0.55967,-0.34589 -0.79675,-0.2473 -0.52686,0.21908 0.26989,0.46639 -0.25651,2.53548 -1.16977,4.59798 -1.39379,3.14771 -1.65975,3.37357 -1.65592,1.40625 0.01,-4.90667 3.48487,-10.66616 8.53722,-14.14837 7.67193,-5.28768 8.69112,-5.5921 20.03459,-5.98404 4.73186,-0.1635 9.02693,-0.55903 9.54459,-0.87897 0.51767,-0.31994 1.21887,-0.13246 1.55821,0.41661 0.43176,0.6986 1.00005,0.68041 1.89289,-0.0606 0.70173,-0.58239 2.67416,-0.93843 4.38316,-0.79119 6.63562,0.57169 8.37305,-3.45407 4.09608,-9.49097 -4.14098,-5.84496 -3.43748,-8.8686 3.85291,-16.55968 1.60005,-1.68799 2.53596,-1.9949 4.21875,-1.38345 3.10654,1.1288 4.68972,5.07147 5.09588,12.69055 0.19524,3.66236 0.63533,8.1354 0.97799,9.94008 0.34265,1.80469 0.55199,3.59766 0.46521,3.98438 -0.0868,0.38672 0.15861,0.65317 0.54532,0.5921 0.38672,-0.0611 0.91407,-0.005 1.17188,0.12506 0.39935,0.20111 5.28741,0.66986 10.3125,0.98893 1.79529,0.11399 10.20008,1.59291 12.65625,2.22702 1.03125,0.26623 3.93183,0.95948 6.44572,1.54054 4.87908,1.12775 10.89803,4.23971 10.89803,5.63457 0,0.4647 0.81885,0.8449 1.81967,0.8449 2.02238,0 3.1845,1.24523 2.13921,2.29222 -1.13824,1.14011 -0.78451,8.95736 0.40534,8.95758 1.18376,2.2e-4 1.20198,6.25749 0.0237,8.16388 -0.38369,0.62083 -0.0768,2.6147 0.68206,4.43083 0.81779,1.95725 1.02027,3.52416 0.49718,3.84745 -1.116,0.68973 1.97663,5.05126 3.60993,5.09108 0.77451,0.0189 0.50734,0.78195 -0.74407,2.12519 -1.07386,1.15265 -1.54001,2.23321 -1.03589,2.40125 0.86869,0.28956 -0.77431,6.29786 -2.43765,8.91421 -0.39164,0.61603 -0.74864,1.331 -0.79333,1.58881 -0.24393,1.40723 -3.05452,6.5603 -5.31221,9.73968 -3.61689,5.09345 -8.90886,8.69803 -13.74603,9.36296 -2.26092,0.31079 -4.6867,1.04306 -5.39062,1.62727 -0.70388,0.58419 -1.27981,0.84401 -1.27981,0.57736 0,-0.26665 -1.55085,-0.13504 -3.44634,0.29247 -2.41807,0.54536 -4.5859,0.35821 -7.26563,-0.62727 -4.9022,-1.80278 -7.28266,-2.0755 -8.72922,-1.00005 -0.63796,0.47429 -1.74563,0.6376 -2.46148,0.3629 -0.71584,-0.2747 -2.40872,0.075 -3.76193,0.77702 -1.35322,0.70206 -2.4604,1.00617 -2.4604,0.67582 0,-0.33037 -0.45415,-0.14651 -1.00923,0.40857 -0.67442,0.67442 -2.24941,0.73058 -4.74755,0.16928 -2.05608,-0.46197 -4.07687,-0.6307 -4.49066,-0.37497 -0.41378,0.25573 -3.86723,0.67349 -7.67432,0.92836 -5.18631,0.34719 -7.59197,0.0978 -9.59392,-0.9946 z m 25.80124,-12.22635 c 0.94294,-0.85335 1.71444,-2.11898 1.71444,-2.8125 0,-1.98692 2.50857,-1.47305 4.38508,0.89826 0.93977,1.18757 2.39852,2.42137 3.24167,2.74178 1.74714,0.66394 5.79366,-1.78956 5.01893,-3.0431 -0.28088,-0.45447 0.24262,-1.22948 1.16334,-1.72223 1.22713,-0.65674 2.26297,-0.41902 3.88012,0.89046 2.24348,1.81667 4.38089,2.42854 3.49903,1.00166 -0.8761,-1.41757 2.3814,-5.02443 4.12578,-4.56826 1.21812,0.31854 2.20794,-0.66954 3.73625,-3.72968 1.14351,-2.28966 1.82354,-4.4186 1.51117,-4.73097 -0.31237,-0.31237 0.10005,-1.58745 0.9165,-2.8335 0.81645,-1.24605 1.24346,-2.50654 0.94892,-2.80108 -0.29454,-0.29454 -0.12446,-1.03083 0.37796,-1.6362 0.61,-0.73501 0.45749,-1.69803 -0.45907,-2.89876 -1.16294,-1.52349 -1.50899,-1.59016 -2.26601,-0.43659 -0.4914,0.74882 -0.715,1.65023 -0.49688,2.00315 0.21811,0.35291 -0.24479,1.17394 -1.02866,1.8245 -1.17359,0.97398 -1.66369,0.86859 -2.77578,-0.5969 -0.74281,-0.97886 -1.14422,-2.36056 -0.89203,-3.07044 0.25219,-0.70989 10e-4,-1.84181 -0.55787,-2.51539 -0.7419,-0.89393 -0.64766,-1.81129 0.34895,-3.39679 1.67203,-2.66005 1.47439,-3.94718 -1.3353,-8.69607 -1.20774,-2.0413 -2.2736,-4.24093 -2.36858,-4.88806 -0.095,-0.64714 -1.07108,-2.43828 -2.16911,-3.98032 -2.164,-3.03907 -3.45419,-2.99119 -7.78427,0.28885 -1.53453,1.16241 -2.17777,2.3867 -1.87077,3.56066 0.26711,1.02143 -0.33312,2.67491 -1.39885,3.85347 -2.8428,3.14379 -3.16022,6.01119 -1.05954,9.57156 1.02433,1.73612 1.88644,4.89642 1.91578,7.0229 0.0345,2.49745 0.43269,3.72075 1.12476,3.45518 1.54526,-0.59297 1.07271,5.97365 -0.50039,6.95346 -0.8722,0.54326 -1.40726,0.19834 -1.73113,-1.11594 -0.25781,-1.04622 -0.89063,-1.97029 -1.40625,-2.0535 -0.51563,-0.0832 -1.93439,-1.33602 -3.15282,-2.78404 -1.73732,-2.06469 -2.49366,-2.40175 -3.5053,-1.56216 -0.70949,0.58882 -1.08834,1.39686 -0.84188,1.79564 0.24646,0.39878 -0.18006,1.24638 -0.94782,1.88357 -0.76776,0.63718 -1.39593,1.71477 -1.39593,2.39464 0,2.69448 -1.76818,2.0692 -4.09608,-1.44849 -1.59401,-2.40872 -1.96149,-3.51461 -1.0519,-3.16557 0.76889,0.29505 1.39798,0.96485 1.39798,1.48844 0,0.58735 0.49359,0.54235 1.28862,-0.11747 1.07839,-0.89498 2.02931,-5.34639 2.62438,-12.28512 0.0663,-0.77344 0.52222,-1.66901 1.01309,-1.99015 0.55052,-0.36017 0.481,-1.35278 -0.18143,-2.59055 -0.70884,-1.32447 -0.76967,-2.55032 -0.17894,-3.60589 1.04464,-1.86667 -1.10298,-6.81341 -2.95803,-6.81341 -1.43612,0 -3.71961,-3.49292 -2.69676,-4.12507 0.41114,-0.2541 1.33938,0.35915 2.06276,1.36278 0.72338,1.00364 1.81766,1.82479 2.43174,1.82479 1.03938,0 1.05056,-1.84541 0.081,-13.35996 -0.076,-0.90267 -0.89154,-1.88031 -1.8123,-2.17255 -0.92076,-0.29224 -1.67411,-0.92479 -1.67411,-1.40567 0,-0.48087 -0.88889,-0.87432 -1.9753,-0.87432 -1.29134,0 -1.80394,0.44658 -1.48039,1.28973 0.30373,0.79151 -0.0978,1.2442 -1.03934,1.17187 -0.95901,-0.0737 -1.72209,0.82143 -2.03524,2.38735 -0.27554,1.37786 -1.68335,3.42986 -3.12848,4.56 -3.13096,2.44854 -2.72803,3.56662 0.51869,1.43929 2.11997,-1.38906 2.38743,-1.36222 3.98184,0.39959 0.94008,1.03876 1.3728,2.20249 0.96162,2.58604 -0.41118,0.38356 -0.93593,0.17004 -1.16612,-0.4745 -0.57551,-1.61142 -1.82228,-1.46997 -2.49499,0.28307 -0.37266,0.97113 -0.1722,1.24327 0.60282,0.81838 0.63863,-0.35012 -0.10449,0.60233 -1.65136,2.11653 -1.93654,1.89564 -3.17748,2.48097 -3.98438,1.87934 -0.805,-0.60023 -1.17187,-0.43353 -1.17187,0.53248 0,0.77343 -0.63281,1.93143 -1.40625,2.57333 -1.58863,1.31844 -1.89257,3.75 -0.46875,3.75 0.51562,0 0.9375,-0.84375 0.9375,-1.875 0,-1.03125 0.5625,-1.875 1.25,-1.875 1.80836,0 1.56124,2.9193 -0.46865,5.53631 -1.79501,2.31419 -1.65377,6.82915 0.33396,10.6756 0.65938,1.27597 0.34748,2.11501 -1.29527,3.48444 -1.19009,0.99207 -1.79573,1.81781 -1.34587,1.83496 1.05595,0.0403 -1.24988,2.84369 -2.33896,2.84369 -0.45249,0 -0.82271,-1.00303 -0.82271,-2.22896 0,-1.22593 -0.62859,-2.75064 -1.39687,-3.38826 -2.25792,-1.8739 -3.35689,2.41716 -1.65948,6.47962 0.74775,1.78962 1.5101,4.03566 1.69413,4.9912 0.33506,1.73984 5.08888,7.96178 5.72188,7.48897 0.60844,-0.45447 5.11397,0.9338 4.62323,1.42454 -0.26368,0.26368 -0.0505,1.28085 0.47372,2.26037 0.92647,1.73114 1.03294,1.72412 3.80609,-0.25053 l 2.85296,-2.03149 2.93976,2.93977 c 3.37384,3.37384 4.05963,3.52218 6.41764,1.38822 z m -16.09806,-18.84794 c 0,-0.39159 0.94922,-1.2951 2.10937,-2.0078 2.10189,-1.29121 2.10304,-1.28868 0.32345,0.71199 -1.9107,2.14808 -2.43282,2.42618 -2.43282,1.29581 z m 2.53436,-13.7898 c 1.63598,-2.24778 4.96564,-3.25652 4.96564,-1.50437 0,0.72477 -5.08933,3.81866 -6.28155,3.81866 -0.20267,0 0.38949,-1.04143 1.31591,-2.31429 z m 25.59064,0.43929 c 0,-0.51563 0.42187,-0.9375 0.9375,-0.9375 0.51562,0 0.9375,0.42187 0.9375,0.9375 0,0.51562 -0.42188,0.9375 -0.9375,0.9375 -0.51563,0 -0.9375,-0.42188 -0.9375,-0.9375 z m 3.5625,-3 c 0.875,-0.875 1.375,-0.875 2.25,0 0.875,0.875 0.625,1.125 -1.125,1.125 -1.75,0 -2,-0.25 -1.125,-1.125 z m 26.93923,23.04843 c 1.27092,-0.83274 2.33751,-1.14915 2.3702,-0.70313 0.0475,0.64858 1.47128,-2.0594 2.28461,-4.3453 0.0917,-0.25781 1.04969,-2.36719 2.12881,-4.6875 2.57026,-5.52656 2.65453,-16.7044 0.1631,-21.63298 -0.93188,-1.84345 -1.55157,-4.58563 -1.3771,-6.09375 0.38357,-3.3154 -2.66273,-7.12308 -4.99927,-6.24877 -1.38669,0.51888 -1.40015,0.40075 -0.13458,-1.18075 1.27548,-1.59389 1.25368,-1.70013 -0.23438,-1.14245 -0.90234,0.33817 -1.64062,0.20622 -1.64062,-0.29322 0,-0.49945 -0.43672,-0.90808 -0.97048,-0.90808 -0.64583,0 -0.62168,0.65177 0.0722,1.94826 0.57346,1.07154 0.80076,2.57866 0.50509,3.34916 -0.29567,0.7705 -0.0567,2.2994 0.53099,3.39756 0.8092,1.51199 0.79889,2.08654 -0.0425,2.367 -0.80929,0.26977 -0.83344,0.70487 -0.0889,1.60197 0.71982,0.86733 0.72687,1.41412 0.0238,1.84862 -0.54907,0.33934 -0.68689,1.11518 -0.30626,1.72408 1.00823,1.6129 1.15384,3.37708 0.32119,3.89169 -0.39894,0.24656 -0.60732,1.93573 -0.46307,3.75372 0.14424,1.81799 -0.0529,3.30544 -0.43808,3.30544 -0.86492,0 -0.61746,5.49848 0.3481,7.73437 0.51906,1.20197 0.27645,1.64063 -0.9074,1.64063 -1.24106,0 -1.4669,0.48931 -0.97358,2.10937 1.20841,3.96849 1.40545,7.18335 0.47549,7.7581 -0.86433,0.53417 -0.40598,2.32003 0.59541,2.32003 0.24552,0 1.48625,-0.68133 2.75717,-1.51407 z m -76.00021,-5.95308 c 1.09694,-1.21211 1.50003,-2.71625 1.17856,-4.39788 -0.29387,-1.53729 0.12706,-3.49728 1.05631,-4.91847 1.26676,-1.9374 1.29171,-2.21029 0.13861,-1.51591 -1.11999,0.67445 -1.19845,0.57164 -0.38546,-0.505 0.56144,-0.74351 1.07825,-4.93327 1.14848,-9.31058 0.1216,-7.57975 -0.0102,-8.13037 -2.76893,-11.56319 l -2.89662,-3.60445 2.96027,-3.05423 c 2.64434,-2.72826 2.8018,-3.18576 1.47536,-4.28661 -1.26877,-1.05298 -1.95699,-0.77484 -4.72777,1.9107 -1.78355,1.7287 -3.24283,3.69314 -3.24283,4.36543 0,0.67229 -0.45703,1.22234 -1.01562,1.22234 -0.5586,0 -0.84897,0.49998 -0.64527,1.11107 0.20369,0.61109 -0.75775,3.31691 -2.13654,6.01292 -1.54779,3.02646 -2.21296,5.37744 -1.73861,6.14495 0.67193,1.08721 0.58665,6.03397 -0.15106,8.76231 -0.56029,2.07215 1.42579,8.64187 3.61351,11.95312 2.63587,3.98956 5.50721,4.58004 8.13761,1.67348 z m 14.91869,-31.48779 c 0.32015,-0.83431 0.16298,-1.21062 -0.36845,-0.88217 -0.50972,0.31502 -0.92676,0.96974 -0.92676,1.45494 0,1.34853 0.67197,1.05137 1.29521,-0.57277 z m 32.79381,-2.76381 c -0.29679,-0.77344 -0.10777,-1.40625 0.42005,-1.40625 0.52782,0 1.11946,0.47935 1.31475,1.06522 0.2532,0.75959 1.01534,0.69234 2.65625,-0.23437 1.26565,-0.71478 2.41658,-1.34469 2.55762,-1.39979 0.14105,-0.0551 -0.009,-0.79097 -0.33261,-1.63524 -0.32398,-0.84428 -0.96189,-1.30462 -1.41758,-1.02299 -0.45569,0.28163 -0.57728,-0.14267 -0.27021,-0.94289 0.37076,-0.96617 0.0185,-1.45494 -1.04854,-1.45494 -1.01805,0 -1.41583,0.4978 -1.08555,1.3585 0.32768,0.85392 0.0707,1.18558 -0.69194,0.89294 -0.66728,-0.25606 -2.35477,1.03105 -3.74996,2.86025 l -2.53672,3.32581 2.36204,0 c 1.71442,0 2.21408,-0.38556 1.8224,-1.40625 z m -59.33121,-5.41406 c -0.11596,-1.12097 -1.40183,-0.90388 -1.80469,0.30468 -0.20625,0.61875 0.13126,0.95625 0.75,0.75 0.61875,-0.20625 1.09336,-0.68085 1.05469,-1.05468 z m 85.81943,-4.25415 c -0.66397,-1.07432 -4.32724,-2.13047 -4.32724,-1.24758 0,0.66371 3.98733,2.72765 4.54701,2.35364 0.18053,-0.12064 0.0817,-0.61837 -0.21977,-1.10606 z m 20.06211,34.33291 c -0.008,-0.87191 0.40752,-1.84603 0.92315,-2.1647 1.1865,-0.7333 1.1865,0.50778 0,2.34375 -0.78319,1.21189 -0.91077,1.18715 -0.92315,-0.17905 z m -117.98001,-6.8522 c -0.0152,-1.03125 0.33502,-2.71875 0.77816,-3.75 1.02657,-2.38896 1.02657,0.0758 0,3.28125 -0.6034,1.88412 -0.756,1.97605 -0.77816,0.46875 z m 120.30153,-3.09412 c 0.28668,-3.01196 0.02,-4.17123 -1.05467,-4.58359 -1.16517,-0.44712 -1.20087,-0.70255 -0.18793,-1.34465 0.68776,-0.43597 1.5177,-0.79914 1.84431,-0.80703 1.24083,-0.03 1.36876,4.42751 0.21614,7.53125 l -1.20159,3.23564 0.38374,-4.03162 z m -4.21087,-14.71838 c -0.6727,-0.81056 -0.76382,-1.40625 -0.21509,-1.40625 0.52359,0 1.19482,0.63281 1.49162,1.40625 0.29679,0.77344 0.39358,1.40625 0.21509,1.40625 -0.17849,0 -0.84972,-0.63281 -1.49162,-1.40625 z"
         id="path4736"
         inkscape:connector-curvature="0" />
      <path
         style="fill:#c85504"
         d="m 300.37229,649.00042 c -1.46957,-0.80189 -3.73319,-1.65043 -5.03027,-1.88563 -1.29708,-0.2352 -3.26333,-1.1103 -4.36944,-1.94463 -2.40077,-1.81092 -12.19024,-15.48991 -11.70492,-16.35549 0.18649,-0.33258 -0.50469,-1.56526 -1.53594,-2.73928 -1.03125,-1.17401 -1.40662,-1.86266 -0.83415,-1.53032 0.72363,0.42009 0.93771,-0.88801 0.70243,-4.29197 -0.62379,-9.02483 -0.2305,-13.47557 1.15859,-13.11136 0.46647,0.12231 0.89563,1.06392 0.95369,2.09248 0.0581,1.02856 0.62034,2.49038 1.24952,3.24849 0.62917,0.75811 1.26068,2.44174 1.40334,3.74141 0.2491,2.2692 6.81659,12.76225 7.94428,12.69278 0.30102,-0.0185 1.75148,-1.01871 3.22325,-2.22259 2.27539,-1.86123 2.52059,-2.47917 1.63809,-4.12814 -0.68378,-1.27766 -0.71716,-2.13747 -0.0978,-2.52023 0.51702,-0.31954 0.9465,-1.5053 0.9544,-2.63502 0.0117,-1.66991 0.18431,-1.79106 0.92314,-0.6478 0.49983,0.77344 0.91525,2.4833 0.92314,3.79968 0.0234,3.89952 5.09925,9.95282 8.95174,10.67556 1.81622,0.34072 3.09308,0.9579 2.83745,1.37151 -0.25562,0.41361 0.0632,1.47407 0.70851,2.35658 1.09242,1.49398 1.35906,1.4584 3.86937,-0.51621 l 2.6961,-2.12075 3.13529,3.627 3.13529,3.62699 2.34031,-2.19859 c 1.28716,-1.20924 2.3403,-2.75789 2.3403,-3.44144 0,-2.3127 2.70357,-1.26054 5.2122,2.02844 l 2.49512,3.27128 2.71987,-1.93672 c 1.49592,-1.06518 2.49214,-2.30516 2.21383,-2.75548 -0.27832,-0.45033 0.29132,-1.24551 1.26586,-1.76706 1.40671,-0.75285 2.21639,-0.47514 3.92868,1.3475 1.63825,1.74385 2.45574,2.04768 3.40029,1.26378 0.68393,-0.56761 1.00089,-1.42458 0.70437,-1.90436 -0.95989,-1.55313 1.43517,-3.35457 3.84698,-2.89353 1.6413,0.31376 2.3378,0.033 2.3378,-0.94221 0,-0.76401 0.88413,-2.51309 1.96473,-3.88685 1.10897,-1.40984 1.71443,-3.15 1.39007,-3.99526 -0.31606,-0.82363 -0.0711,-2.1043 0.54443,-2.84592 1.43293,-1.72658 1.69048,-5.86125 0.51087,-8.20149 -0.88898,-1.76364 -0.96959,-1.75357 -2.65842,0.33203 -0.95789,1.18296 -1.52607,2.49961 -1.26261,2.92589 1.0133,1.63956 -1.61697,1.94011 -2.80153,0.32013 -1.04309,-1.42651 -1.04014,-2.00966 0.0178,-3.52007 0.87414,-1.24802 0.98986,-2.33001 0.37254,-3.48348 -0.58739,-1.09755 -0.55893,-1.88114 0.0827,-2.2777 1.18882,-0.73473 0.32265,-3.8071 -2.0059,-7.11507 -0.94837,-1.34727 -1.4828,-2.69108 -1.18763,-2.98625 0.29517,-0.29517 -0.13917,-1.50158 -0.9652,-2.6809 -2.31844,-3.31005 -1.77929,-4.17803 1.0287,-1.65607 l 2.53057,2.27279 -1.69196,-2.69606 c -0.93057,-1.48283 -1.33104,-2.95939 -0.88994,-3.28125 1.21639,-0.88754 0.94561,-4.05675 -0.57066,-6.67894 -0.74539,-1.28906 -1.25543,-3.00453 -1.13342,-3.81215 0.12202,-0.80762 -0.63529,-2.2441 -1.68291,-3.19218 -1.04761,-0.94807 -1.89829,-2.39667 -1.89039,-3.2191 0.0121,-1.25976 0.14852,-1.28329 0.86604,-0.14935 0.61374,0.96991 1.19907,1.07184 2.09502,0.36482 1.35462,-1.06897 8.27458,-0.54884 8.27458,0.62195 0,0.81415 5.79884,10.61749 7.4753,12.63749 0.80684,0.97219 0.82168,1.82186 0.0568,3.25109 -0.72489,1.35448 -0.74365,2.48033 -0.0625,3.75303 0.68276,1.27576 0.66824,2.00647 -0.0487,2.44956 -0.56195,0.3473 -0.81757,1.41208 -0.56807,2.36618 0.2495,0.95409 -0.12676,2.21641 -0.83613,2.80513 -0.96844,0.80374 -1.04219,1.53302 -0.29601,2.92727 0.54657,1.02126 0.7872,2.06341 0.53473,2.31587 -0.25246,0.25247 -0.10678,1.68721 0.32373,3.18832 0.45879,1.59973 0.42039,2.95324 -0.0928,3.2704 -1.06666,0.65924 -0.57743,7.50956 0.76661,10.73417 0.7228,1.73413 0.66514,2.70952 -0.22168,3.75 -0.80721,0.94707 -0.93127,2.10842 -0.37994,3.55665 0.69086,1.81479 1.11526,1.99165 2.71926,1.13322 1.04535,-0.55946 2.63415,-0.89433 3.53066,-0.74416 0.98404,0.16484 1.63561,-0.32679 1.64415,-1.24052 0.008,-0.83246 0.47694,-2.09808 1.0426,-2.8125 0.56567,-0.71442 1.31841,-2.51006 1.67278,-3.99031 0.35438,-1.48026 1.27512,-3.3222 2.04612,-4.0932 0.771,-0.771 1.24362,-1.87642 1.05026,-2.4565 -0.19336,-0.58008 0.15443,-1.56068 0.77286,-2.17911 0.61843,-0.61843 1.00328,-2.22787 0.85524,-3.57652 -0.16035,-1.46078 0.14684,-2.31344 0.75986,-2.1091 0.57442,0.19147 1.08374,2.82011 1.15288,5.95008 0.1369,6.19806 0.9378,8.25801 2.9156,7.49906 0.72124,-0.27679 1.31138,-0.13975 1.31138,0.30453 0,0.44428 -0.65982,1.06097 -1.46626,1.37043 -0.80645,0.30947 -1.39068,1.30382 -1.2983,2.20968 0.0924,0.90586 0.0667,1.96343 -0.0572,2.35014 -0.12383,0.38672 -0.30798,1.01954 -0.40923,1.40625 -0.50654,1.93477 -3.10511,6.72113 -5.41504,9.97406 -3.61689,5.09345 -8.90886,8.69803 -13.74603,9.36296 -2.26092,0.31079 -4.6867,1.04306 -5.39062,1.62727 -0.70391,0.58419 -1.27984,0.84401 -1.27984,0.57736 0,-0.26665 -1.55085,-0.13504 -3.44634,0.29247 -2.41807,0.54536 -4.5859,0.35821 -7.26563,-0.62727 -4.9022,-1.80278 -7.28266,-2.0755 -8.72922,-1.00005 -0.63796,0.47429 -1.74563,0.6376 -2.46148,0.3629 -0.71584,-0.2747 -2.40872,0.075 -3.76193,0.77702 -1.35322,0.70206 -2.4604,1.00617 -2.4604,0.67582 0,-0.33037 -0.45415,-0.14651 -1.00923,0.40857 -0.67442,0.67442 -2.24941,0.73058 -4.74755,0.16928 -2.05608,-0.46197 -4.07687,-0.6307 -4.49066,-0.37497 -0.41378,0.25573 -3.86723,0.67349 -7.67432,0.92836 -5.18631,0.34719 -7.59197,0.0978 -9.59392,-0.9946 z m 21.10902,-27.23804 c -0.68259,-1.21971 -0.38101,-2.00848 1.26212,-3.30097 2.89874,-2.28014 5.01372,-2.26855 2.94609,0.0162 -0.85335,0.94294 -1.55155,2.18367 -1.55155,2.75717 0,1.83957 -1.73017,2.1832 -2.65666,0.52764 z m 13.90666,-0.36709 c 0,-1.06168 -0.37169,-1.70061 -0.82597,-1.41985 -0.45429,0.28077 -1.82538,-0.95313 -3.04688,-2.74199 -1.48059,-2.1683 -2.73775,-3.08975 -3.77144,-2.76432 -1.27505,0.40143 -1.49632,-0.0952 -1.24539,-2.79509 0.16783,-1.80579 0.57254,-4.12573 0.89935,-5.15542 0.32681,-1.0297 0.11533,-2.76696 -0.46996,-3.86058 -0.84544,-1.57971 -0.75935,-2.32521 0.41886,-3.62711 0.81566,-0.9013 1.29681,-1.82492 1.06923,-2.05251 -0.51117,-0.51117 -1.55836,-5.04574 -2.03432,-8.80905 -0.19564,-1.54688 -0.62573,-4.28906 -0.95577,-6.09375 -0.61091,-3.34056 -0.67626,-7.08376 -0.16519,-9.4613 0.15661,-0.72859 -0.43516,-1.32483 -1.3209,-1.33083 -2.83388,-0.0192 -4.08679,-2.05397 -2.43305,-3.95134 2.54758,-2.9229 2.44878,-4.38197 -0.58866,-8.69403 -4.12017,-5.84915 -3.41261,-8.87675 3.87006,-16.55968 1.60005,-1.688 2.53596,-1.99491 4.21875,-1.38345 3.25157,1.18149 4.75368,5.27669 5.19202,14.15499 0.21742,4.40379 0.96704,9.17415 1.66581,10.6008 0.69877,1.42665 0.84308,2.32976 0.32068,2.0069 -0.52924,-0.32709 -0.86823,0.18482 -0.76556,1.15609 0.10133,0.9587 0.13566,2.74397 0.0763,3.96727 -0.0906,1.86701 -0.33377,2.03676 -1.51421,1.05708 -1.3978,-1.16007 -1.95244,-0.30289 -1.46546,2.26481 0.60344,3.18174 0.53717,7.28355 -0.12429,7.69235 -0.43285,0.26751 0.0464,1.54584 1.06491,2.84072 1.48778,1.8914 1.64037,2.69308 0.77603,4.0771 -0.83307,1.33396 -0.78123,2.0778 0.22968,3.29587 1.13046,1.36212 1.08595,1.69601 -0.33187,2.48946 -1.07023,0.59893 -1.43894,1.54174 -1.06442,2.72177 0.32652,1.02877 0.13326,1.80542 -0.44927,1.80542 -0.59475,0 -0.36464,1.00369 0.55024,2.39998 1.44351,2.20307 1.44908,2.52343 0.0679,3.90463 -1.3812,1.38119 -1.345,1.72886 0.44127,4.23744 1.07026,1.50304 1.94592,3.74607 1.94592,4.98452 0,1.23846 0.32134,2.05314 0.71409,1.8104 0.39275,-0.24273 1.19833,0.14215 1.79017,0.85528 0.82635,0.99569 0.72668,1.64601 -0.42949,2.80218 -1.96367,1.96367 -2.30914,1.90012 -2.30914,-0.42476 z m -34.37144,-5.04109 c 0.28417,-0.74052 -0.26116,-2.33526 -1.21184,-3.54385 -1.93535,-2.4604 -2.6969,-6.23536 -1.61007,-7.98098 0.39466,-0.63388 0.33803,-1.8995 -0.12585,-2.8125 -0.9374,-1.84502 0.3072,-7.75375 1.63324,-7.75375 0.92488,0 0.21931,-3.66569 -1.01068,-5.25078 -1.41375,-1.82192 -0.6142,-8.6923 1.20297,-10.33682 0.9347,-0.84589 1.45427,-1.93471 1.15459,-2.41959 -0.66476,-1.07561 3.26811,-5.43031 4.90428,-5.43031 0.64673,0 1.79692,-0.62105 2.55599,-1.38011 1.13034,-1.13035 1.56451,-1.15793 2.399,-0.15243 0.76638,0.92343 0.45772,1.7549 -1.24543,3.35492 -1.24537,1.16997 -2.03872,2.71512 -1.76299,3.43367 0.27573,0.71855 0.18057,2.04473 -0.21148,2.94707 -0.39205,0.90235 -0.77663,2.0625 -0.85462,2.57813 -0.078,0.51562 -0.72855,2.20312 -1.44567,3.75 -0.71712,1.54687 -1.3464,3.23437 -1.3984,3.75 -0.052,0.51562 -0.57407,1.80611 -1.16018,2.86773 -1.08558,1.96636 -1.05523,4.19089 0.12916,9.46489 0.40206,1.79036 0.27153,3.20031 -0.33073,3.57252 -0.69679,0.43065 -0.70025,1.1655 -0.0115,2.45238 0.54086,1.01061 0.74992,2.21523 0.46458,2.67693 -0.28535,0.4617 -0.12473,1.87598 0.35693,3.14284 0.59069,1.55362 0.53184,2.64729 -0.18079,3.35992 -1.49015,1.49015 -2.85574,1.31347 -2.24048,-0.28988 z m 85.93394,-7.03575 c 0,-0.4852 0.41705,-1.13992 0.92677,-1.45494 0.53143,-0.32845 0.68859,0.0479 0.36844,0.88217 -0.62324,1.62414 -1.29521,1.9213 -1.29521,0.57277 z m -109.12394,-6.46442 c -0.27692,-0.44808 0.024,-1.53612 0.66879,-2.41787 1.08121,-1.47865 1.18349,-1.4544 1.31656,0.31217 0.15488,2.05613 -1.15643,3.44692 -1.98535,2.1057 z M 379.679,602.07778 c -0.64774,-0.26114 -0.96695,-0.81583 -0.70935,-1.23264 0.25761,-0.41681 -0.16415,-2.27167 -0.93723,-4.12193 -0.77309,-1.85025 -1.35314,-3.68804 -1.28901,-4.08397 0.0641,-0.39593 0.0204,-0.93081 -0.0972,-1.18862 -0.11758,-0.25781 -0.32776,-1.81282 -0.46704,-3.45558 -0.15499,-1.82789 -1.93394,-5.19679 -4.58473,-8.68235 -2.3823,-3.13253 -4.33147,-5.84323 -4.33147,-6.02378 0,-0.18056 1.01273,-0.13468 2.25052,0.10193 3.85319,0.73659 11.19902,12.39745 10.20483,16.19927 -0.45576,1.74284 -0.26485,2.05996 0.95769,1.59083 0.8398,-0.32226 1.77626,-0.18248 2.08101,0.31062 0.30477,0.49311 -0.31588,0.89656 -1.37919,0.89656 -1.75311,0 -1.88408,0.41005 -1.40518,4.39953 0.29046,2.41974 0.73857,4.74005 0.9958,5.15625 0.51076,0.82644 0.44523,0.83324 -1.28945,0.13388 z m 10.08527,-2.65841 c -0.69761,-5.01211 -0.70494,-6.12762 -0.0429,-6.53675 1.08269,-0.66914 1.73168,3.49563 0.88256,5.66368 -0.39004,0.99581 -0.76786,1.38869 -0.83963,0.87307 z M 277.1592,597.30999 c -0.22643,-1.53419 0.32624,-5.44336 0.89466,-6.32812 0.33127,-0.51563 0.619,-1.83845 0.6394,-2.93961 0.0204,-1.10116 0.58699,-2.66471 1.2591,-3.47456 0.67212,-0.80984 0.98977,-1.84824 0.7059,-2.30755 -0.28386,-0.45931 0.70268,-2.00279 2.19232,-3.42996 1.48964,-1.42716 2.48419,-3.17922 2.21011,-3.89346 -0.27408,-0.71423 -0.006,-1.29861 0.59481,-1.29861 0.60122,0 0.85041,-0.39272 0.55376,-0.87272 -0.93542,-1.51354 1.14841,-2.39917 8.28794,-3.52241 2.87323,-0.45203 3.54732,-0.29622 3.19845,0.73932 -0.24311,0.72163 -1.2858,1.31206 -2.31707,1.31206 -2.1248,0 -4.99061,2.06203 -4.99061,3.59089 0,0.55965 -1.49782,2.55146 -3.32848,4.42623 -1.83067,1.87477 -3.38086,4.42381 -3.44488,5.66453 -0.064,1.24072 -0.74096,2.99413 -1.50432,3.89647 -0.76336,0.90235 -1.10187,1.64063 -0.75226,1.64063 0.34962,0 -0.11234,1.1416 -1.02657,2.53689 -0.91423,1.3953 -1.55677,2.66092 -1.42787,2.8125 0.12891,0.15159 0.23438,0.69748 0.23438,1.21311 0,1.07877 -1.82229,1.29461 -1.97877,0.23437 z m 28.73756,-2.04459 c -0.29666,-0.48 -0.11062,-1.13771 0.41342,-1.46158 0.52403,-0.32387 0.95279,0.0688 0.95279,0.87272 0,1.64674 -0.56255,1.88921 -1.36621,0.58886 z m -34.66727,-9.71459 c 0.35207,-0.92458 0.87628,-1.44489 1.16492,-1.15625 0.28865,0.28865 6e-4,1.04512 -0.64011,1.68106 -0.92589,0.919 -1.03357,0.81132 -0.52481,-0.52481 z m 103.96571,-8.20303 c -1.42402,-1.57354 -1.46289,-1.81156 -0.21778,-1.33377 0.83357,0.31987 1.74589,1.18178 2.02739,1.91535 0.70042,1.82527 0.23247,1.67487 -1.80961,-0.58158 z m -98.86973,0.62388 c 0,-0.19468 0.73828,-0.93296 1.64062,-1.64062 1.48693,-1.16613 1.52009,-1.13297 0.35396,0.35395 -1.22472,1.56164 -1.99458,2.05827 -1.99458,1.28667 z m 23.60195,-7.62299 c 0.28564,-0.28564 1.47727,-0.70383 2.64805,-0.9293 1.17078,-0.22547 1.84981,-0.13106 1.50894,0.20981 -0.34087,0.34087 -1.53249,0.75905 -2.64805,0.9293 -1.11556,0.17024 -1.79458,0.0758 -1.50894,-0.20981 z"
         id="path4734"
         inkscape:connector-curvature="0" />
      <path
         style="fill:#b15808"
         d="m 300.37229,649.00042 c -1.46957,-0.80189 -3.73319,-1.65043 -5.03027,-1.88563 -5.96558,-1.08177 -11.91555,-9.16199 -11.95734,-16.23839 -0.0154,-2.60463 -0.34437,-4.73627 -0.73109,-4.73698 -0.38671,-7.2e-4 -0.61638,-0.31771 -0.51037,-0.70443 0.10602,-0.38671 -0.52525,-2.05027 -1.40281,-3.69679 -1.66884,-3.13115 -0.78406,-5.0341 1.21863,-2.62101 0.63718,0.76776 0.90233,1.39593 0.58922,1.39593 -1.27621,0 5.21346,11.15415 8.39665,14.43177 3.63935,3.74732 5.14227,3.56519 5.39575,-0.65387 0.0776,-1.29139 0.52916,-2.10832 1.0035,-1.8154 0.50699,0.31308 0.5479,-0.20697 0.0993,-1.26183 -0.41976,-0.98693 -0.80798,-2.84911 -0.86272,-4.13817 -0.0547,-1.28906 -0.62789,-3.26737 -1.27367,-4.39623 -0.75974,-1.32809 -0.84236,-2.25753 -0.2341,-2.63345 0.51702,-0.31954 0.9465,-1.5053 0.9544,-2.63502 0.0117,-1.66991 0.18431,-1.79106 0.92314,-0.6478 0.49983,0.77344 0.91525,2.4833 0.92314,3.79968 0.0234,3.89952 5.09925,9.95282 8.95174,10.67556 1.81622,0.34072 3.09308,0.9579 2.83745,1.37151 -0.25562,0.41361 0.0632,1.47407 0.70851,2.35658 1.09242,1.49398 1.35906,1.4584 3.86937,-0.51621 l 2.6961,-2.12075 3.13529,3.627 3.13529,3.62699 2.34031,-2.19859 c 1.28716,-1.20924 2.3403,-2.75789 2.3403,-3.44144 0,-2.3127 2.70357,-1.26054 5.2122,2.02844 l 2.49512,3.27128 2.71987,-1.93672 c 1.49592,-1.06518 2.49508,-2.3004 2.22037,-2.7449 -0.27472,-0.44451 0.24739,-1.22617 1.16026,-1.73704 1.21141,-0.67794 2.10631,-0.52471 3.31292,0.56725 1.56395,1.41536 1.49171,1.63089 -1.3386,3.99374 -1.78286,1.4884 -2.58924,2.74643 -1.99559,3.11332 1.24145,0.76726 8.89493,-5.8086 8.15463,-7.00644 -0.9607,-1.55443 1.43308,-3.35634 3.84602,-2.89508 1.67342,0.3199 2.3378,0.0366 2.3378,-0.99671 0,-0.79399 1.0365,-2.67542 2.30333,-4.18096 1.74379,-2.07238 2.03985,-3.00083 1.21875,-3.82193 -0.79315,-0.79315 -0.80563,-1.36353 -0.0464,-2.12273 0.7592,-0.7592 1.3394,-0.47526 2.15929,1.05673 0.87615,1.63709 0.86889,2.25078 -0.0333,2.80833 -0.63492,0.3924 -0.90164,1.12244 -0.59271,1.6223 0.30894,0.49986 0.1815,2.23453 -0.28319,3.85482 -0.74144,2.58524 -0.62086,2.94597 0.98476,2.94597 2.45936,0 4.59861,4.46826 2.7008,5.64116 -0.72918,0.45067 -1.10162,1.04356 -0.82763,1.31756 0.73777,0.73777 4.60335,-2.19615 4.60649,-3.49625 0.002,-0.6153 1.2692,-1.96247 2.81714,-2.99372 1.71488,-1.14246 2.61374,-2.40387 2.30072,-3.22869 -0.39307,-1.0357 -0.11386,-0.99179 1.18864,0.18695 1.78981,1.61975 4.75533,0.79826 3.63898,-1.00805 -0.33251,-0.53799 0.34013,-1.63985 1.49474,-2.44856 2.52299,-1.76718 3.94861,-1.91274 2.92364,-0.29853 -0.40926,0.64454 -0.75056,1.45313 -0.75846,1.79688 -0.007,0.34375 -0.3984,0.97656 -0.86778,1.40625 -0.50657,0.46373 -0.54075,0.20972 -0.0841,-0.625 0.42315,-0.77344 0.42114,-1.09052 -0.005,-0.70463 -0.42559,0.3859 -0.88181,1.71469 -1.01383,2.95287 -0.32619,3.05953 -5.22784,9.63678 -9.5211,12.77584 -1.93815,1.41711 -5.37246,2.83019 -7.6339,3.14106 -2.26093,0.31079 -4.68671,1.04306 -5.39062,1.62727 -0.70368,0.58419 -1.27961,0.84401 -1.27961,0.57736 0,-0.26665 -1.55085,-0.13504 -3.44634,0.29247 -2.41807,0.54536 -4.5859,0.35821 -7.26563,-0.62727 -4.9022,-1.80278 -7.28266,-2.0755 -8.72922,-1.00005 -0.63796,0.47429 -1.74563,0.6376 -2.46148,0.3629 -0.71584,-0.2747 -2.40872,0.075 -3.76193,0.77702 -1.35322,0.70206 -2.4604,1.00617 -2.4604,0.67582 0,-0.33037 -0.45415,-0.14651 -1.00923,0.40857 -0.67442,0.67442 -2.24941,0.73058 -4.74755,0.16928 -2.05608,-0.46197 -4.07687,-0.6307 -4.49066,-0.37497 -0.41378,0.25573 -3.86723,0.67349 -7.67432,0.92836 -5.18631,0.34719 -7.59197,0.0978 -9.59392,-0.9946 z m 21.10902,-27.23804 c -0.68259,-1.21971 -0.38101,-2.00848 1.26212,-3.30097 2.89874,-2.28014 5.01372,-2.26855 2.94609,0.0162 -0.85335,0.94294 -1.55155,2.18367 -1.55155,2.75717 0,1.83957 -1.73017,2.1832 -2.65666,0.52764 z m 13.90666,-0.39651 c 0,-1.0455 -0.37169,-1.67119 -0.82597,-1.39043 -0.45429,0.28077 -1.82538,-0.96018 -3.04688,-2.75766 -1.22149,-1.79747 -2.73473,-3.0754 -3.36275,-2.83984 -1.76423,0.66174 -2.28737,-1.01243 -0.72226,-2.31136 1.15988,-0.96261 2.03179,-0.48444 5.14593,2.82215 2.06219,2.18962 3.74943,3.6664 3.74943,3.28172 0,-0.38468 0.60774,-0.19504 1.35052,0.42142 1.52877,1.26877 1.04083,3.3975 -0.95426,4.16309 -0.8831,0.33888 -1.33376,-0.13048 -1.33376,-1.38909 z m 45.9375,0.31821 c 0,-0.39597 0.84375,-1.24687 1.875,-1.89089 1.03125,-0.64403 1.875,-0.84699 1.875,-0.45103 0,0.39597 -0.84375,1.24687 -1.875,1.89089 -1.03125,0.64403 -1.875,0.84699 -1.875,0.45103 z m -5.15625,-1.17096 c -0.31868,-0.51563 0.31414,-0.9375 1.40625,-0.9375 1.09211,0 1.72492,0.42187 1.40625,0.9375 -0.31868,0.51562 -0.95149,0.9375 -1.40625,0.9375 -0.45476,0 -1.08758,-0.42188 -1.40625,-0.9375 z m -75.22349,-3.98438 c 0.24522,-0.64453 0.0167,-2.22656 -0.5078,-3.51562 -1.48312,-3.64497 -1.52921,-4.59671 -0.19789,-4.08583 2.03757,0.78189 4.24941,6.19049 3.09864,7.57709 -1.27592,1.53739 -2.97519,1.55469 -2.39295,0.0244 z m 60.02422,-2.45314 c 0.1096,-1.51514 0.51568,-2.56007 0.90239,-2.32206 1.01013,0.62168 0.86734,3.85994 -0.19927,4.51914 -0.51441,0.31792 -0.81672,-0.62671 -0.70312,-2.19708 z m -7.52324,-0.0791 c -1.17129,-1.87553 -0.14171,-3.48387 1.55781,-2.43351 0.4766,0.29455 1.0781,-0.20789 1.33666,-1.11655 0.25857,-0.90866 0.37137,-0.2025 0.25069,1.56924 -0.25668,3.76821 -1.52864,4.56928 -3.14516,1.98082 z m 33.50376,-4.67808 c 0,-0.4852 0.41705,-1.13992 0.92677,-1.45494 0.53143,-0.32845 0.68859,0.0479 0.36844,0.88217 -0.62324,1.62414 -1.29521,1.9213 -1.29521,0.57277 z m -29.0625,-0.99283 c 0,-0.51563 0.42187,-0.9375 0.9375,-0.9375 0.51562,0 0.9375,0.42187 0.9375,0.9375 0,0.51562 -0.42188,0.9375 -0.9375,0.9375 -0.51563,0 -0.9375,-0.42188 -0.9375,-0.9375 z m -3.24195,-5.33344 c -0.348,-1.38652 -1.43595,-3.64898 -2.41768,-5.0277 -0.98174,-1.37872 -1.54347,-2.74826 -1.2483,-3.04343 0.29517,-0.29517 -0.13917,-1.50158 -0.9652,-2.6809 -2.22134,-3.17142 -1.8222,-4.2298 0.70117,-1.85922 1.83335,1.72234 2.38261,1.85328 3.27312,0.78029 0.58854,-0.70915 0.85099,-1.50845 0.58323,-1.77621 -0.88102,-0.88102 1.41422,-5.56136 2.42188,-4.93859 0.54851,0.339 0.64409,1.0908 0.21574,1.69704 -0.42297,0.59862 -0.7178,2.21099 -0.65519,3.58304 0.0748,1.64024 -0.28704,2.34079 -1.05666,2.04546 -2.4242,-0.93025 -2.30687,1.66931 0.22855,5.06377 1.44652,1.93663 2.94645,3.66176 3.33316,3.83364 0.38672,0.17188 0.70313,0.93859 0.70313,1.7038 0,0.96321 -0.57511,1.20877 -1.8691,0.79807 -1.43483,-0.4554 -1.73826,-0.25225 -1.30595,0.87433 0.30973,0.80715 0.14188,1.46755 -0.37302,1.46755 -0.51489,0 -1.22089,-1.13442 -1.56888,-2.52094 z m -23.94555,0.64594 c 0,-0.51563 0.42187,-0.9375 0.9375,-0.9375 0.51562,0 0.9375,0.42187 0.9375,0.9375 0,0.51562 -0.42188,0.9375 -0.9375,0.9375 -0.51563,0 -0.9375,-0.42188 -0.9375,-0.9375 z m -4.6875,-2.8125 c 0,-0.51563 0.44677,-0.9375 0.99283,-0.9375 0.54605,0 0.73209,0.42187 0.41342,0.9375 -0.31867,0.51562 -0.76545,0.9375 -0.99283,0.9375 -0.22738,0 -0.41342,-0.42188 -0.41342,-0.9375 z m 5.19629,-0.87272 c -0.29666,-0.48 -0.15482,-1.11039 0.31518,-1.40087 0.47001,-0.29048 1.09646,0.10225 1.39212,0.87272 0.58284,1.51887 -0.82571,1.9546 -1.7073,0.52815 z m 58.55501,-0.53353 c -0.69761,-5.01211 -0.70494,-6.12762 -0.0429,-6.53675 1.08269,-0.66914 1.73168,3.49563 0.88256,5.66368 -0.39004,0.99581 -0.76786,1.38869 -0.83963,0.87307 z m -83.86751,-4.15397 c -0.29666,-0.48 -0.11062,-1.13771 0.41342,-1.46158 0.52403,-0.32387 0.95279,0.0688 0.95279,0.87272 0,1.64674 -0.56255,1.88921 -1.36621,0.58886 z m -34.66727,-9.71459 c 0.35207,-0.92458 0.87628,-1.44489 1.16492,-1.15625 0.28865,0.28865 6e-4,1.04512 -0.64011,1.68106 -0.92589,0.919 -1.03357,0.81132 -0.52481,-0.52481 z m 12.45906,-6.6107 c 1.26091,-1.34218 1.83304,-2.8023 1.46937,-3.75 -0.34439,-0.89748 -0.13455,-1.55199 0.49758,-1.55199 0.60122,0 0.85041,-0.39272 0.55376,-0.87272 -0.93542,-1.51354 1.14841,-2.39917 8.28794,-3.52241 2.87202,-0.45184 3.54819,-0.29578 3.20326,0.73932 -0.24048,0.72163 -1.5393,1.33134 -2.88628,1.35491 -2.64641,0.0463 -6.30121,2.78752 -6.30121,4.72611 0,1.17233 -4.74276,5.07479 -6.16752,5.07479 -0.397,0 0.2074,-0.9891 1.3431,-2.19801 z m -7.36308,-0.96845 c 0,-0.19468 0.73828,-0.93296 1.64062,-1.64062 1.48693,-1.16613 1.52009,-1.13297 0.35396,0.35395 -1.22472,1.56164 -1.99458,2.05827 -1.99458,1.28667 z m 30.9375,-5.30123 c 0,-0.60703 -0.77389,-0.78804 -1.875,-0.43856 -3.0176,0.95775 -2.15249,-0.46955 0.9375,-1.54673 1.54687,-0.53924 2.8125,-1.4127 2.8125,-1.94102 0,-0.56716 0.57174,-0.48609 1.39593,0.19793 1.58754,1.31755 1.18154,2.37915 -1.44814,3.78651 -1.29309,0.69204 -1.82279,0.67515 -1.82279,-0.0581 z m 40.28368,-0.47328 c -0.86104,-1.0375 -0.8685,-1.37153 -0.0306,-1.37153 0.60919,0 0.8697,-0.38495 0.57892,-0.85545 -0.53233,-0.86133 3.82575,-0.73684 4.69675,0.13416 0.25702,0.25702 -0.56186,1.14164 -1.81973,1.96583 -2.00081,1.31098 -2.42948,1.32687 -3.4253,0.12699 z m -26.42634,-2.09224 c -0.71239,-0.85496 -0.59367,-1.64589 0.42219,-2.8125 2.5089,-2.88122 2.40239,-4.35705 -0.62462,-8.65429 -4.12017,-5.84915 -3.41261,-8.87675 3.87006,-16.55968 1.60005,-1.688 2.53596,-1.99491 4.21875,-1.38345 3.25157,1.18149 4.75368,5.27669 5.19202,14.15499 0.21742,4.40379 0.96704,9.17415 1.66581,10.6008 0.69877,1.42665 0.87741,2.35097 0.39697,2.05405 -0.48044,-0.29693 -0.87352,0.0766 -0.87352,0.83 0,0.75343 -1.32858,1.83301 -2.9524,2.39908 -3.61858,1.26144 -4.53109,1.29276 -2.6726,0.0917 0.84496,-0.54606 0.96059,-0.91452 0.2897,-0.92314 -0.6141,-0.008 -1.36611,0.38945 -1.67114,0.883 -0.77506,1.25406 -6.0621,0.75852 -7.26122,-0.68057 z m 34.42391,0.72071 c -0.31867,-0.51563 -0.13263,-0.9375 0.41342,-0.9375 0.54606,0 0.99283,0.42187 0.99283,0.9375 0,0.51562 -0.18604,0.9375 -0.41342,0.9375 -0.22738,0 -0.67416,-0.42188 -0.99283,-0.9375 z m -55.6168,-0.47695 c 0.28564,-0.28564 1.47727,-0.70383 2.64805,-0.9293 1.17078,-0.22547 1.84981,-0.13106 1.50894,0.20981 -0.34087,0.34087 -1.53249,0.75905 -2.64805,0.9293 -1.11556,0.17024 -1.79458,0.0758 -1.50894,-0.20981 z"
         id="path4732"
         inkscape:connector-curvature="0" />
      <path
         style="fill:#a33303"
         d="m 300.87616,648.63709 c -2.22368,-1.00916 -4.33306,-1.76006 -4.6875,-1.66867 -1.24004,0.31977 -4.86319,-1.27715 -4.86319,-2.14348 0,-0.48087 -0.63281,-0.87432 -1.40625,-0.87432 -0.77344,0 -1.47051,-0.52734 -1.54904,-1.17188 -0.0785,-0.64453 -0.19325,-1.59375 -0.25492,-2.10937 -0.0617,-0.51563 -0.687,-2.32212 -1.38964,-4.01443 -0.70264,-1.69232 -1.00889,-3.34558 -0.68054,-3.67393 0.32834,-0.32834 -0.10448,-1.37208 -0.96182,-2.31943 -0.85734,-0.94735 -1.25719,-2.02406 -0.88857,-2.39268 0.36863,-0.36863 0.9637,-0.21789 1.32238,0.33498 3.10254,4.78218 11.00252,13.34012 11.68473,12.65791 0.49515,-0.49515 0.34579,-1.63164 -0.36374,-2.76779 -1.60885,-2.57617 0.58624,-7.34527 2.6084,-5.66704 0.9648,0.80072 1.25401,0.66682 1.25401,-0.5806 0,-1.09329 0.48297,-1.43601 1.48293,-1.05229 0.81561,0.31298 1.68425,0.56905 1.93032,0.56905 0.24608,0 0.18667,0.42187 -0.132,0.9375 -0.78783,1.27474 1.71253,1.19372 3.00358,-0.0973 0.75477,-0.75477 1.47198,-0.1136 2.65014,2.36919 1.19715,2.52281 2.04435,3.26785 3.27264,2.87801 0.91152,-0.28931 2.22911,0.0257 2.92798,0.70001 0.69886,0.6743 2.32535,1.2524 3.61441,1.28466 1.28906,0.0322 3.07617,0.3815 3.97135,0.7761 1.20997,0.53338 1.84388,0.15177 2.47053,-1.48721 0.46362,-1.21258 1.68258,-2.96081 2.70881,-3.88498 1.80956,-1.62959 1.93715,-1.59559 4.22772,1.1266 1.29901,1.54378 3.4366,2.95082 4.7502,3.12673 1.31359,0.17592 3.24569,1.09573 4.29354,2.04402 1.86448,1.68733 1.92531,1.67121 2.84769,-0.75484 0.51838,-1.36345 2.00567,-2.96341 3.30509,-3.55547 1.29941,-0.59205 2.36257,-1.61312 2.36257,-2.26905 0,-0.65592 0.94922,-1.48185 2.10937,-1.8354 1.16016,-0.35355 2.8679,-1.30943 3.79498,-2.12418 2.19663,-1.93048 4.42906,-2.2547 3.77419,-0.54813 -0.27728,0.72257 -0.85561,1.31377 -1.28517,1.31377 -0.90197,0 -0.62789,3.43268 0.47214,5.91325 0.41329,0.93198 1.31631,1.47775 2.00669,1.21282 0.69039,-0.26492 1.5242,-0.0465 1.85293,0.48538 0.66919,1.08278 5.08566,-2.6128 5.09007,-4.25924 10e-4,-0.55465 1.26589,-1.85221 2.8098,-2.88346 1.54391,-1.03125 2.80832,-2.15171 2.8098,-2.48992 0.002,-0.33821 1.0541,-0.12727 2.33914,0.46875 2.81799,1.30702 3.04415,2.48992 0.47606,2.48992 -2.08838,0 -2.47518,1.83732 -0.75,3.5625 0.875,0.875 0.875,1.125 0,1.125 -0.61875,0 -1.13401,0.52734 -1.14502,1.17187 -0.0227,1.32956 -7.13956,6.63533 -9.32534,6.95226 -0.78974,0.11452 -2.49058,0.34802 -3.77964,0.5189 -1.28906,0.17089 -2.91505,0.66848 -3.6133,1.10578 -2.48895,1.55875 -11.90133,1.76646 -14.75487,0.3256 -1.49907,-0.75694 -3.56933,-1.24009 -4.60058,-1.07366 -1.03125,0.16642 -3.01504,0.49029 -4.40842,0.71971 -1.39337,0.22941 -3.92462,0.84038 -5.625,1.35771 -3.74921,1.14069 -6.37283,1.1058 -6.37283,-0.0847 0,-0.48484 -0.73798,-0.59836 -1.63995,-0.25223 -0.90198,0.34611 -3.32776,0.85961 -5.39063,1.14109 -2.06287,0.28148 -3.91161,0.66139 -4.10831,0.84425 -0.1967,0.18287 -1.14592,-0.0894 -2.10938,-0.60502 -1.18627,-0.63488 -1.75173,-0.62423 -1.75173,0.033 0,1.42151 -1.83132,1.16186 -6.38681,-0.90555 z m 25.63086,-78.70803 c -0.30475,-0.4931 -1.11896,-0.67979 -1.80935,-0.41487 -1.66789,0.64003 -2.56823,-1.91428 -1.59861,-4.53539 0.81637,-2.20687 0.71449,-2.55971 -2.57147,-8.90655 -1.92432,-3.71681 -2.03666,-8.68413 -0.19641,-8.68413 0.3726,0 1.21697,-1.00809 1.87637,-2.2402 2.94017,-5.49375 9.68952,-4.69275 10.92052,1.29602 0.3717,1.80836 0.63678,4.55355 0.58905,6.10043 -0.0477,1.54687 0.30819,5.10215 0.79093,7.90061 0.71106,4.12201 0.59767,5.51552 -0.59722,7.33915 -0.83163,1.26923 -2.04474,2.03238 -2.78137,1.74971 -0.71855,-0.27573 -1.55579,-0.0979 -1.86055,0.39522 -0.30475,0.49311 -0.92618,0.89656 -1.38094,0.89656 -0.45476,0 -1.07619,-0.40345 -1.38095,-0.89656 z"
         id="path4730"
         inkscape:connector-curvature="0" />
      <path
         style="fill:#445818"
         d="m 326.5049,569.92563 c -0.30359,-0.49122 -1.11684,-0.67636 -1.80723,-0.41144 -1.66789,0.64003 -2.56823,-1.91428 -1.59861,-4.53539 0.81637,-2.20687 0.71449,-2.55971 -2.57147,-8.90655 -1.92432,-3.71681 -2.03666,-8.68413 -0.19641,-8.68413 0.3726,0 1.21697,-1.00809 1.87637,-2.2402 2.94017,-5.49375 9.68952,-4.69275 10.92052,1.29602 0.3717,1.80836 0.63678,4.55355 0.58905,6.10043 -0.0477,1.54687 0.30566,5.08851 0.78533,7.8703 0.75009,4.35014 0.64351,5.23819 -0.76181,6.34714 -3.23278,2.55101 -6.6823,4.0593 -7.23574,3.16382 z"
         id="path4728"
         inkscape:connector-curvature="0" />
    </g>
  </g>
</svg>
